{
copyright = "~";
date = "2015-07-03 09:16:30 +0000";
designer = "Dhruvi Tolia";
designerURL = "~";
familyName = "Hind Kochi";
fontMaster = (
{
ascender = 707;
capHeight = 674;
descender = -200;
guideLines = (
{
locked = 1;
position = "{545, 600}";
},
{
locked = 1;
position = "{447, -10}";
},
{
locked = 1;
position = "{596, 580}";
},
{
position = "{-101, -72}";
},
{
angle = 90;
position = "{-90, -326}";
}
);
id = "9D6DA52E-CD68-4B8E-8511-A7BD80A00452";
userData = {
GSOffsetHorizontal = 10;
GSOffsetVertical = 10;
};
weight = Light;
weightValue = 0;
xHeight = 507;
},
{
ascender = 707;
capHeight = 674;
descender = -187;
guideLines = (
{
angle = 180;
locked = 1;
position = "{772, -10}";
},
{
locked = 1;
position = "{356, 610}";
},
{
locked = 1;
position = "{1065, -215}";
},
{
position = "{-227, 957}";
}
);
id = "8E067A2A-2289-4446-99CD-66E5BEE6C169";
userData = {
GSOffsetHorizontal = 71;
GSOffsetMakeStroke = 1;
GSOffsetVertical = 50;
};
weight = Bold;
xHeight = 507;
}
);
glyphs = (
{
glyphname = mlA;
lastChange = "2015-07-03 10:43:56 +0000";
layers = (
{
background = {
paths = (
{
closed = 1;
nodes = (
"1456 -53 OFFCURVE",
"1605 95 OFFCURVE",
"1605 278 CURVE SMOOTH",
"1605 461 OFFCURVE",
"1456 609 OFFCURVE",
"1273 609 CURVE SMOOTH",
"1089 609 OFFCURVE",
"940 461 OFFCURVE",
"940 278 CURVE SMOOTH",
"940 95 OFFCURVE",
"1089 -53 OFFCURVE",
"1273 -53 CURVE SMOOTH"
);
}
);
};
guideLines = (
{
angle = 90;
position = "{1236, 311}";
},
{
angle = 90;
position = "{1001, 270}";
}
);
layerId = "8E067A2A-2289-4446-99CD-66E5BEE6C169";
name = Bold;
paths = (
{
closed = 1;
nodes = (
"355 125 LINE",
"251 125 OFFCURVE",
"193 188 OFFCURVE",
"193 290 CURVE SMOOTH",
"193 425 OFFCURVE",
"281 498 OFFCURVE",
"395 498 CURVE SMOOTH",
"412 498 OFFCURVE",
"429 498 OFFCURVE",
"445 497 CURVE",
"390 441 OFFCURVE",
"356 369 OFFCURVE",
"356 290 CURVE SMOOTH",
"356 117 OFFCURVE",
"463 -10 OFFCURVE",
"630 -10 CURVE SMOOTH",
"752 -10 OFFCURVE",
"842 55 OFFCURVE",
"842 170 CURVE SMOOTH",
"842 241 OFFCURVE",
"785 286 OFFCURVE",
"710 294 CURVE",
"780 299 OFFCURVE",
"822 344 OFFCURVE",
"822 404 CURVE SMOOTH",
"822 443 OFFCURVE",
"794 479 OFFCURVE",
"750 510 CURVE",
"847 491 OFFCURVE",
"930 398 OFFCURVE",
"930 272 CURVE SMOOTH",
"930 0 LINE",
"1072 0 LINE",
"1072 267 LINE SMOOTH",
"1072 399 OFFCURVE",
"1159 492 OFFCURVE",
"1274 492 CURVE SMOOTH",
"1364 492 OFFCURVE",
"1456 428 OFFCURVE",
"1467 339 CURVE",
"1445 368 OFFCURVE",
"1400 391 OFFCURVE",
"1352 391 CURVE SMOOTH",
"1245 391 OFFCURVE",
"1163 306 OFFCURVE",
"1163 189 CURVE SMOOTH",
"1163 70 OFFCURVE",
"1259 -10 OFFCURVE",
"1375 -10 CURVE SMOOTH",
"1512 -10 OFFCURVE",
"1602 111 OFFCURVE",
"1602 276 CURVE SMOOTH",
"1602 471 OFFCURVE",
"1449 609 OFFCURVE",
"1273 609 CURVE SMOOTH",
"1168 609 OFFCURVE",
"1059 560 OFFCURVE",
"1001 464 CURVE",
"946 560 OFFCURVE",
"830 610 OFFCURVE",
"713 610 CURVE SMOOTH",
"667 610 OFFCURVE",
"608 598 OFFCURVE",
"570 580 CURVE",
"519 600 OFFCURVE",
"464 610 OFFCURVE",
"395 610 CURVE SMOOTH",
"202 610 OFFCURVE",
"45 481 OFFCURVE",
"45 290 CURVE SMOOTH",
"45 112 OFFCURVE",
"164 -10 OFFCURVE",
"355 -10 CURVE"
);
},
{
closed = 1;
nodes = (
"548 111 OFFCURVE",
"498 187 OFFCURVE",
"498 290 CURVE SMOOTH",
"498 375 OFFCURVE",
"541 441 OFFCURVE",
"599 479 CURVE",
"648 465 OFFCURVE",
"676 443 OFFCURVE",
"676 411 CURVE SMOOTH",
"676 370 OFFCURVE",
"650 352 OFFCURVE",
"606 352 CURVE SMOOTH",
"569 352 LINE",
"569 232 LINE",
"601 232 LINE SMOOTH",
"669 232 OFFCURVE",
"694 205 OFFCURVE",
"694 168 CURVE SMOOTH",
"694 136 OFFCURVE",
"668 111 OFFCURVE",
"627 111 CURVE SMOOTH"
);
},
{
closed = 1;
nodes = (
"1334 111 OFFCURVE",
"1302 150 OFFCURVE",
"1302 191 CURVE SMOOTH",
"1302 232 OFFCURVE",
"1334 271 OFFCURVE",
"1380 271 CURVE SMOOTH",
"1426 271 OFFCURVE",
"1458 232 OFFCURVE",
"1458 191 CURVE SMOOTH",
"1458 150 OFFCURVE",
"1426 111 OFFCURVE",
"1380 111 CURVE SMOOTH"
);
}
);
width = 1647;
visible = 1;
},
{
guideLines = (
{
position = "{569, 297}";
}
);
layerId = "9D6DA52E-CD68-4B8E-8511-A7BD80A00452";
name = Light;
paths = (
{
closed = 1;
nodes = (
"295 50 LINE",
"201 50 OFFCURVE",
"120 138 OFFCURVE",
"120 260 CURVE SMOOTH",
"120 435 OFFCURVE",
"231 525 OFFCURVE",
"385 525 CURVE SMOOTH",
"406 525 OFFCURVE",
"426 524 OFFCURVE",
"446 523 CURVE",
"366 466 OFFCURVE",
"316 371 OFFCURVE",
"316 260 CURVE SMOOTH",
"316 107 OFFCURVE",
"403 -10 OFFCURVE",
"560 -10 CURVE SMOOTH",
"682 -10 OFFCURVE",
"742 65 OFFCURVE",
"742 160 CURVE SMOOTH",
"742 231 OFFCURVE",
"695 268 OFFCURVE",
"640 281 CURVE",
"697 296 OFFCURVE",
"722 339 OFFCURVE",
"722 399 CURVE SMOOTH",
"722 449 OFFCURVE",
"688 492 OFFCURVE",
"633 524 CURVE",
"735 524 OFFCURVE",
"863 458 OFFCURVE",
"863 292 CURVE SMOOTH",
"863 0 LINE",
"923 0 LINE",
"923 292 LINE SMOOTH",
"923 434 OFFCURVE",
"1041 524 OFFCURVE",
"1151 524 CURVE SMOOTH",
"1273 524 OFFCURVE",
"1384 434 OFFCURVE",
"1408 275 CURVE",
"1382 327 OFFCURVE",
"1328 358 OFFCURVE",
"1270 358 CURVE SMOOTH",
"1166 358 OFFCURVE",
"1085 282 OFFCURVE",
"1085 172 CURVE SMOOTH",
"1085 80 OFFCURVE",
"1154 -10 OFFCURVE",
"1269 -10 CURVE SMOOTH",
"1384 -10 OFFCURVE",
"1466 86 OFFCURVE",
"1466 223 CURVE SMOOTH",
"1466 424 OFFCURVE",
"1346 580 OFFCURVE",
"1151 580 CURVE SMOOTH",
"1031 580 OFFCURVE",
"931 506 OFFCURVE",
"892 414 CURVE",
"845 525 OFFCURVE",
"730 580 OFFCURVE",
"633 580 CURVE SMOOTH",
"591 580 OFFCURVE",
"555 574 OFFCURVE",
"522 561 CURVE",
"483 574 OFFCURVE",
"436 580 OFFCURVE",
"385 580 CURVE SMOOTH",
"192 580 OFFCURVE",
"55 461 OFFCURVE",
"55 260 CURVE SMOOTH",
"55 122 OFFCURVE",
"144 -10 OFFCURVE",
"295 -10 CURVE"
);
},
{
closed = 1;
nodes = (
"459 45 OFFCURVE",
"378 126 OFFCURVE",
"378 260 CURVE SMOOTH",
"378 375 OFFCURVE",
"433 471 OFFCURVE",
"536 508 CURVE",
"609 489 OFFCURVE",
"657 453 OFFCURVE",
"657 399 CURVE SMOOTH",
"657 348 OFFCURVE",
"630 308 OFFCURVE",
"576 308 CURVE SMOOTH",
"549 308 LINE",
"549 247 LINE",
"576 247 LINE SMOOTH",
"630 247 OFFCURVE",
"677 212 OFFCURVE",
"677 158 CURVE SMOOTH",
"677 96 OFFCURVE",
"639 45 OFFCURVE",
"559 45 CURVE SMOOTH"
);
},
{
closed = 1;
nodes = (
"1196 45 OFFCURVE",
"1146 98 OFFCURVE",
"1146 172 CURVE SMOOTH",
"1146 246 OFFCURVE",
"1200 301 OFFCURVE",
"1270 301 CURVE SMOOTH",
"1340 301 OFFCURVE",
"1395 248 OFFCURVE",
"1395 172 CURVE SMOOTH",
"1395 96 OFFCURVE",
"1333 45 OFFCURVE",
"1267 45 CURVE SMOOTH"
);
}
);
width = 1511;
},
{
associatedMasterId = "8E067A2A-2289-4446-99CD-66E5BEE6C169";
background = {
paths = (
{
closed = 1;
nodes = (
"1466 -53 OFFCURVE",
"1615 95 OFFCURVE",
"1615 278 CURVE SMOOTH",
"1615 461 OFFCURVE",
"1466 609 OFFCURVE",
"1283 609 CURVE SMOOTH",
"1099 609 OFFCURVE",
"950 461 OFFCURVE",
"950 278 CURVE SMOOTH",
"950 95 OFFCURVE",
"1099 -53 OFFCURVE",
"1283 -53 CURVE SMOOTH"
);
}
);
};
guideLines = (
{
angle = 90;
position = "{1246, 311}";
},
{
angle = 90;
position = "{1011, 270}";
}
);
layerId = "5D09811D-39B9-4055-B961-D5FCCFBCBD61";
name = "Bold May 4 15, 15:07";
paths = (
{
closed = 1;
nodes = (
"365 125 LINE",
"261 125 OFFCURVE",
"203 188 OFFCURVE",
"203 290 CURVE SMOOTH",
"203 425 OFFCURVE",
"291 498 OFFCURVE",
"405 498 CURVE SMOOTH",
"574 498 OFFCURVE",
"686 475 OFFCURVE",
"686 411 CURVE SMOOTH",
"686 370 OFFCURVE",
"660 352 OFFCURVE",
"616 352 CURVE SMOOTH",
"579 352 LINE",
"579 232 LINE",
"611 232 LINE SMOOTH",
"679 232 OFFCURVE",
"704 205 OFFCURVE",
"704 168 CURVE SMOOTH",
"704 136 OFFCURVE",
"678 111 OFFCURVE",
"637 111 CURVE SMOOTH",
"558 111 OFFCURVE",
"508 187 OFFCURVE",
"508 290 CURVE SMOOTH",
"508 427 OFFCURVE",
"620 514 OFFCURVE",
"723 514 CURVE SMOOTH",
"835 514 OFFCURVE",
"940 414 OFFCURVE",
"940 272 CURVE SMOOTH",
"940 0 LINE",
"1082 0 LINE",
"1082 267 LINE SMOOTH",
"1082 399 OFFCURVE",
"1169 492 OFFCURVE",
"1284 492 CURVE SMOOTH",
"1374 492 OFFCURVE",
"1466 428 OFFCURVE",
"1477 339 CURVE",
"1455 368 OFFCURVE",
"1410 391 OFFCURVE",
"1362 391 CURVE SMOOTH",
"1255 391 OFFCURVE",
"1173 306 OFFCURVE",
"1173 189 CURVE SMOOTH",
"1173 70 OFFCURVE",
"1269 -10 OFFCURVE",
"1385 -10 CURVE SMOOTH",
"1522 -10 OFFCURVE",
"1612 111 OFFCURVE",
"1612 276 CURVE SMOOTH",
"1612 471 OFFCURVE",
"1459 609 OFFCURVE",
"1283 609 CURVE SMOOTH",
"1178 609 OFFCURVE",
"1069 560 OFFCURVE",
"1011 464 CURVE",
"956 560 OFFCURVE",
"840 610 OFFCURVE",
"723 610 CURVE SMOOTH",
"538 610 OFFCURVE",
"366 467 OFFCURVE",
"366 290 CURVE SMOOTH",
"366 117 OFFCURVE",
"473 -10 OFFCURVE",
"640 -10 CURVE SMOOTH",
"762 -10 OFFCURVE",
"852 55 OFFCURVE",
"852 170 CURVE SMOOTH",
"852 241 OFFCURVE",
"795 286 OFFCURVE",
"720 294 CURVE",
"790 299 OFFCURVE",
"832 344 OFFCURVE",
"832 404 CURVE SMOOTH",
"832 519 OFFCURVE",
"592 610 OFFCURVE",
"405 610 CURVE SMOOTH",
"212 610 OFFCURVE",
"55 481 OFFCURVE",
"55 290 CURVE SMOOTH",
"55 112 OFFCURVE",
"174 -10 OFFCURVE",
"365 -10 CURVE"
);
},
{
closed = 1;
nodes = (
"1344 111 OFFCURVE",
"1312 150 OFFCURVE",
"1312 191 CURVE SMOOTH",
"1312 232 OFFCURVE",
"1344 271 OFFCURVE",
"1390 271 CURVE SMOOTH",
"1436 271 OFFCURVE",
"1468 232 OFFCURVE",
"1468 191 CURVE SMOOTH",
"1468 150 OFFCURVE",
"1436 111 OFFCURVE",
"1390 111 CURVE SMOOTH"
);
}
);
width = 1671;
},
{
associatedMasterId = "9D6DA52E-CD68-4B8E-8511-A7BD80A00452";
guideLines = (
{
position = "{559, 297}";
}
);
layerId = "1F0D3AD4-C6B2-4D95-A25A-14E584873791";
name = "Light May 4 15, 15:08";
paths = (
{
closed = 1;
nodes = (
"285 50 LINE",
"191 50 OFFCURVE",
"110 138 OFFCURVE",
"110 260 CURVE SMOOTH",
"110 435 OFFCURVE",
"221 525 OFFCURVE",
"375 525 CURVE SMOOTH",
"527 525 OFFCURVE",
"647 484 OFFCURVE",
"647 399 CURVE SMOOTH",
"647 348 OFFCURVE",
"620 308 OFFCURVE",
"566 308 CURVE SMOOTH",
"539 308 LINE",
"539 247 LINE",
"566 247 LINE SMOOTH",
"620 247 OFFCURVE",
"667 212 OFFCURVE",
"667 158 CURVE SMOOTH",
"667 96 OFFCURVE",
"629 45 OFFCURVE",
"549 45 CURVE SMOOTH",
"449 45 OFFCURVE",
"368 126 OFFCURVE",
"368 260 CURVE SMOOTH",
"368 407 OFFCURVE",
"459 524 OFFCURVE",
"623 524 CURVE SMOOTH",
"725 524 OFFCURVE",
"850 458 OFFCURVE",
"850 292 CURVE SMOOTH",
"850 0 LINE",
"915 0 LINE",
"915 292 LINE SMOOTH",
"915 434 OFFCURVE",
"1031 524 OFFCURVE",
"1141 524 CURVE SMOOTH",
"1263 524 OFFCURVE",
"1373 434 OFFCURVE",
"1397 275 CURVE",
"1371 327 OFFCURVE",
"1316 358 OFFCURVE",
"1258 358 CURVE SMOOTH",
"1154 358 OFFCURVE",
"1073 282 OFFCURVE",
"1073 172 CURVE SMOOTH",
"1073 80 OFFCURVE",
"1142 -10 OFFCURVE",
"1257 -10 CURVE SMOOTH",
"1372 -10 OFFCURVE",
"1453 89 OFFCURVE",
"1453 256 CURVE SMOOTH",
"1453 417 OFFCURVE",
"1336 580 OFFCURVE",
"1141 580 CURVE SMOOTH",
"1021 580 OFFCURVE",
"921 506 OFFCURVE",
"882 414 CURVE",
"835 525 OFFCURVE",
"720 580 OFFCURVE",
"623 580 CURVE SMOOTH",
"440 580 OFFCURVE",
"306 443 OFFCURVE",
"306 260 CURVE SMOOTH",
"306 107 OFFCURVE",
"393 -10 OFFCURVE",
"550 -10 CURVE SMOOTH",
"672 -10 OFFCURVE",
"732 65 OFFCURVE",
"732 160 CURVE SMOOTH",
"732 231 OFFCURVE",
"685 268 OFFCURVE",
"630 281 CURVE",
"687 296 OFFCURVE",
"712 339 OFFCURVE",
"712 399 CURVE SMOOTH",
"712 504 OFFCURVE",
"562 580 OFFCURVE",
"375 580 CURVE SMOOTH",
"182 580 OFFCURVE",
"45 461 OFFCURVE",
"45 260 CURVE SMOOTH",
"45 122 OFFCURVE",
"134 -10 OFFCURVE",
"285 -10 CURVE"
);
},
{
closed = 1;
nodes = (
"1186 45 OFFCURVE",
"1138 96 OFFCURVE",
"1138 172 CURVE SMOOTH",
"1138 248 OFFCURVE",
"1190 301 OFFCURVE",
"1260 301 CURVE SMOOTH",
"1330 301 OFFCURVE",
"1385 248 OFFCURVE",
"1385 172 CURVE SMOOTH",
"1385 96 OFFCURVE",
"1323 45 OFFCURVE",
"1257 45 CURVE SMOOTH"
);
}
);
width = 1503;
}
);
unicode = 0D05;
},
{
glyphname = mlAA;
lastChange = "2015-07-03 10:43:56 +0000";
layers = (
{
guideLines = (
{
angle = 90;
position = "{1001, 272}";
}
);
layerId = "8E067A2A-2289-4446-99CD-66E5BEE6C169";
name = Bold;
paths = (
{
closed = 1;
nodes = (
"946 560 OFFCURVE",
"830 610 OFFCURVE",
"713 610 CURVE SMOOTH",
"667 610 OFFCURVE",
"608 598 OFFCURVE",
"570 580 CURVE",
"519 600 OFFCURVE",
"464 610 OFFCURVE",
"395 610 CURVE SMOOTH",
"202 610 OFFCURVE",
"45 481 OFFCURVE",
"45 290 CURVE SMOOTH",
"45 112 OFFCURVE",
"164 -10 OFFCURVE",
"355 -10 CURVE",
"355 125 LINE",
"251 125 OFFCURVE",
"193 188 OFFCURVE",
"193 290 CURVE SMOOTH",
"193 425 OFFCURVE",
"281 498 OFFCURVE",
"395 498 CURVE SMOOTH",
"412 498 OFFCURVE",
"429 498 OFFCURVE",
"445 497 CURVE",
"390 441 OFFCURVE",
"356 369 OFFCURVE",
"356 290 CURVE SMOOTH",
"356 117 OFFCURVE",
"463 -10 OFFCURVE",
"630 -10 CURVE SMOOTH",
"752 -10 OFFCURVE",
"842 55 OFFCURVE",
"842 170 CURVE SMOOTH",
"842 241 OFFCURVE",
"785 286 OFFCURVE",
"710 294 CURVE",
"780 299 OFFCURVE",
"822 344 OFFCURVE",
"822 404 CURVE SMOOTH",
"822 443 OFFCURVE",
"794 479 OFFCURVE",
"750 510 CURVE",
"847 491 OFFCURVE",
"930 398 OFFCURVE",
"930 272 CURVE SMOOTH",
"930 0 LINE",
"1072 0 LINE",
"1072 272 LINE SMOOTH",
"1072 414 OFFCURVE",
"1157 492 OFFCURVE",
"1272 492 CURVE SMOOTH",
"1405 492 OFFCURVE",
"1479 400 OFFCURVE",
"1479 238 CURVE SMOOTH",
"1479 158 OFFCURVE",
"1445 110 OFFCURVE",
"1381 110 CURVE SMOOTH",
"1335 110 OFFCURVE",
"1303 147 OFFCURVE",
"1303 190 CURVE SMOOTH",
"1303 233 OFFCURVE",
"1331 270 OFFCURVE",
"1381 270 CURVE SMOOTH",
"1463 270 OFFCURVE",
"1551 192 OFFCURVE",
"1551 103 CURVE SMOOTH",
"1551 -77 OFFCURVE",
"1460 -133 OFFCURVE",
"1336 -133 CURVE SMOOTH",
"1290 -133 OFFCURVE",
"1250 -123 OFFCURVE",
"1215 -113 CURVE",
"1215 -244 LINE",
"1250 -252 OFFCURVE",
"1291 -257 OFFCURVE",
"1337 -257 CURVE SMOOTH",
"1542 -257 OFFCURVE",
"1680 -138 OFFCURVE",
"1680 64 CURVE SMOOTH",
"1680 258 OFFCURVE",
"1524 386 OFFCURVE",
"1381 386 CURVE SMOOTH",
"1258 386 OFFCURVE",
"1163 308 OFFCURVE",
"1163 189 CURVE SMOOTH",
"1163 70 OFFCURVE",
"1259 -10 OFFCURVE",
"1375 -10 CURVE SMOOTH",
"1520 -10 OFFCURVE",
"1600 125 OFFCURVE",
"1600 254 CURVE SMOOTH",
"1600 439 OFFCURVE",
"1493 610 OFFCURVE",
"1271 610 CURVE SMOOTH",
"1146 610 OFFCURVE",
"1049 545 OFFCURVE",
"1001 464 CURVE"
);
},
{
closed = 1;
nodes = (
"548 111 OFFCURVE",
"498 187 OFFCURVE",
"498 290 CURVE SMOOTH",
"498 375 OFFCURVE",
"541 441 OFFCURVE",
"599 479 CURVE",
"648 465 OFFCURVE",
"676 443 OFFCURVE",
"676 411 CURVE SMOOTH",
"676 370 OFFCURVE",
"650 352 OFFCURVE",
"606 352 CURVE SMOOTH",
"569 352 LINE",
"569 232 LINE",
"601 232 LINE SMOOTH",
"669 232 OFFCURVE",
"694 205 OFFCURVE",
"694 168 CURVE SMOOTH",
"694 136 OFFCURVE",
"668 111 OFFCURVE",
"627 111 CURVE SMOOTH"
);
}
);
width = 1710;
},
{
layerId = "9D6DA52E-CD68-4B8E-8511-A7BD80A00452";
name = Light;
paths = (
{
closed = 1;
nodes = (
"845 525 OFFCURVE",
"730 580 OFFCURVE",
"633 580 CURVE SMOOTH",
"591 580 OFFCURVE",
"555 574 OFFCURVE",
"522 561 CURVE",
"483 574 OFFCURVE",
"436 580 OFFCURVE",
"385 580 CURVE SMOOTH",
"192 580 OFFCURVE",
"55 461 OFFCURVE",
"55 260 CURVE SMOOTH",
"55 122 OFFCURVE",
"144 -10 OFFCURVE",
"295 -10 CURVE",
"295 50 LINE",
"201 50 OFFCURVE",
"120 138 OFFCURVE",
"120 260 CURVE SMOOTH",
"120 435 OFFCURVE",
"231 525 OFFCURVE",
"385 525 CURVE SMOOTH",
"406 525 OFFCURVE",
"426 524 OFFCURVE",
"446 523 CURVE",
"366 466 OFFCURVE",
"316 371 OFFCURVE",
"316 260 CURVE SMOOTH",
"316 107 OFFCURVE",
"403 -10 OFFCURVE",
"560 -10 CURVE SMOOTH",
"682 -10 OFFCURVE",
"742 65 OFFCURVE",
"742 160 CURVE SMOOTH",
"742 231 OFFCURVE",
"695 268 OFFCURVE",
"640 281 CURVE",
"697 296 OFFCURVE",
"722 339 OFFCURVE",
"722 399 CURVE SMOOTH",
"722 449 OFFCURVE",
"688 492 OFFCURVE",
"633 524 CURVE",
"735 524 OFFCURVE",
"863 458 OFFCURVE",
"863 292 CURVE",
"863 0 LINE",
"923 0 LINE",
"923 292 LINE SMOOTH",
"923 434 OFFCURVE",
"1041 524 OFFCURVE",
"1151 524 CURVE SMOOTH",
"1293 524 OFFCURVE",
"1402 408 OFFCURVE",
"1402 247 CURVE SMOOTH",
"1402 123 OFFCURVE",
"1340 45 OFFCURVE",
"1267 45 CURVE SMOOTH",
"1196 45 OFFCURVE",
"1148 96 OFFCURVE",
"1148 172 CURVE SMOOTH",
"1148 248 OFFCURVE",
"1200 301 OFFCURVE",
"1270 301 CURVE SMOOTH",
"1371 301 OFFCURVE",
"1462 229 OFFCURVE",
"1462 79 CURVE SMOOTH",
"1462 -75 OFFCURVE",
"1362 -170 OFFCURVE",
"1236 -170 CURVE SMOOTH",
"1206 -170 OFFCURVE",
"1171 -166 OFFCURVE",
"1135 -158 CURVE",
"1135 -215 LINE",
"1173 -222 OFFCURVE",
"1201 -227 OFFCURVE",
"1237 -227 CURVE SMOOTH",
"1407 -227 OFFCURVE",
"1525 -92 OFFCURVE",
"1525 79 CURVE SMOOTH",
"1525 227 OFFCURVE",
"1414 358 OFFCURVE",
"1268 358 CURVE SMOOTH",
"1164 358 OFFCURVE",
"1083 282 OFFCURVE",
"1083 172 CURVE SMOOTH",
"1083 80 OFFCURVE",
"1152 -10 OFFCURVE",
"1267 -10 CURVE SMOOTH",
"1382 -10 OFFCURVE",
"1463 89 OFFCURVE",
"1463 256 CURVE SMOOTH",
"1463 417 OFFCURVE",
"1346 580 OFFCURVE",
"1151 580 CURVE SMOOTH",
"1031 580 OFFCURVE",
"931 506 OFFCURVE",
"892 414 CURVE"
);
},
{
closed = 1;
nodes = (
"459 45 OFFCURVE",
"378 126 OFFCURVE",
"378 260 CURVE SMOOTH",
"378 375 OFFCURVE",
"433 471 OFFCURVE",
"536 508 CURVE",
"609 489 OFFCURVE",
"657 453 OFFCURVE",
"657 399 CURVE SMOOTH",
"657 348 OFFCURVE",
"630 308 OFFCURVE",
"576 308 CURVE SMOOTH",
"549 308 LINE",
"549 247 LINE",
"576 247 LINE SMOOTH",
"630 247 OFFCURVE",
"677 212 OFFCURVE",
"677 158 CURVE SMOOTH",
"677 96 OFFCURVE",
"639 45 OFFCURVE",
"559 45 CURVE SMOOTH"
);
}
);
width = 1545;
},
{
associatedMasterId = "8E067A2A-2289-4446-99CD-66E5BEE6C169";
guideLines = (
{
angle = 90;
position = "{1011, 272}";
}
);
layerId = "A91F7244-886C-4A01-A0A1-E99A06CDE9FA";
name = "Bold May 4 15, 15:18";
paths = (
{
closed = 1;
nodes = (
"956 560 OFFCURVE",
"840 610 OFFCURVE",
"723 610 CURVE SMOOTH",
"538 610 OFFCURVE",
"366 467 OFFCURVE",
"366 290 CURVE SMOOTH",
"366 117 OFFCURVE",
"473 -10 OFFCURVE",
"640 -10 CURVE SMOOTH",
"762 -10 OFFCURVE",
"852 55 OFFCURVE",
"852 170 CURVE SMOOTH",
"852 241 OFFCURVE",
"795 286 OFFCURVE",
"720 294 CURVE",
"790 299 OFFCURVE",
"832 344 OFFCURVE",
"832 404 CURVE SMOOTH",
"832 519 OFFCURVE",
"592 610 OFFCURVE",
"405 610 CURVE SMOOTH",
"212 610 OFFCURVE",
"55 481 OFFCURVE",
"55 290 CURVE SMOOTH",
"55 112 OFFCURVE",
"174 -10 OFFCURVE",
"365 -10 CURVE",
"365 125 LINE",
"261 125 OFFCURVE",
"203 188 OFFCURVE",
"203 290 CURVE SMOOTH",
"203 425 OFFCURVE",
"291 498 OFFCURVE",
"405 498 CURVE SMOOTH",
"574 498 OFFCURVE",
"686 475 OFFCURVE",
"686 411 CURVE SMOOTH",
"686 370 OFFCURVE",
"660 352 OFFCURVE",
"616 352 CURVE SMOOTH",
"579 352 LINE",
"579 232 LINE",
"611 232 LINE SMOOTH",
"679 232 OFFCURVE",
"704 205 OFFCURVE",
"704 168 CURVE SMOOTH",
"704 136 OFFCURVE",
"678 111 OFFCURVE",
"637 111 CURVE SMOOTH",
"558 111 OFFCURVE",
"508 187 OFFCURVE",
"508 290 CURVE SMOOTH",
"508 427 OFFCURVE",
"620 514 OFFCURVE",
"723 514 CURVE SMOOTH",
"835 514 OFFCURVE",
"940 414 OFFCURVE",
"940 272 CURVE",
"940 0 LINE",
"1082 0 LINE",
"1082 272 LINE SMOOTH",
"1082 414 OFFCURVE",
"1167 492 OFFCURVE",
"1282 492 CURVE SMOOTH",
"1415 492 OFFCURVE",
"1489 400 OFFCURVE",
"1489 238 CURVE SMOOTH",
"1489 158 OFFCURVE",
"1455 110 OFFCURVE",
"1391 110 CURVE SMOOTH",
"1345 110 OFFCURVE",
"1313 147 OFFCURVE",
"1313 190 CURVE SMOOTH",
"1313 233 OFFCURVE",
"1341 270 OFFCURVE",
"1391 270 CURVE SMOOTH",
"1473 270 OFFCURVE",
"1561 192 OFFCURVE",
"1561 103 CURVE SMOOTH",
"1561 -77 OFFCURVE",
"1470 -133 OFFCURVE",
"1346 -133 CURVE SMOOTH",
"1300 -133 OFFCURVE",
"1260 -123 OFFCURVE",
"1225 -113 CURVE",
"1225 -244 LINE",
"1260 -252 OFFCURVE",
"1301 -257 OFFCURVE",
"1347 -257 CURVE SMOOTH",
"1552 -257 OFFCURVE",
"1690 -138 OFFCURVE",
"1690 64 CURVE SMOOTH",
"1690 258 OFFCURVE",
"1534 386 OFFCURVE",
"1391 386 CURVE SMOOTH",
"1268 386 OFFCURVE",
"1173 308 OFFCURVE",
"1173 189 CURVE SMOOTH",
"1173 70 OFFCURVE",
"1269 -10 OFFCURVE",
"1385 -10 CURVE SMOOTH",
"1530 -10 OFFCURVE",
"1610 125 OFFCURVE",
"1610 254 CURVE SMOOTH",
"1610 439 OFFCURVE",
"1503 610 OFFCURVE",
"1281 610 CURVE SMOOTH",
"1156 610 OFFCURVE",
"1059 545 OFFCURVE",
"1011 464 CURVE"
);
}
);
width = 1750;
},
{
associatedMasterId = "9D6DA52E-CD68-4B8E-8511-A7BD80A00452";
layerId = "85AC8645-ABE8-45C0-8962-462A9833497C";
name = "Light May 4 15, 15:18";
paths = (
{
closed = 1;
nodes = (
"835 525 OFFCURVE",
"720 580 OFFCURVE",
"623 580 CURVE SMOOTH",
"440 580 OFFCURVE",
"306 443 OFFCURVE",
"306 260 CURVE SMOOTH",
"306 107 OFFCURVE",
"393 -10 OFFCURVE",
"550 -10 CURVE SMOOTH",
"672 -10 OFFCURVE",
"732 65 OFFCURVE",
"732 160 CURVE SMOOTH",
"732 231 OFFCURVE",
"685 268 OFFCURVE",
"630 281 CURVE",
"687 296 OFFCURVE",
"712 339 OFFCURVE",
"712 399 CURVE SMOOTH",
"712 504 OFFCURVE",
"562 580 OFFCURVE",
"375 580 CURVE SMOOTH",
"182 580 OFFCURVE",
"45 461 OFFCURVE",
"45 260 CURVE SMOOTH",
"45 122 OFFCURVE",
"134 -10 OFFCURVE",
"285 -10 CURVE",
"285 50 LINE",
"191 50 OFFCURVE",
"110 138 OFFCURVE",
"110 260 CURVE SMOOTH",
"110 435 OFFCURVE",
"221 525 OFFCURVE",
"375 525 CURVE SMOOTH",
"527 525 OFFCURVE",
"647 484 OFFCURVE",
"647 399 CURVE SMOOTH",
"647 348 OFFCURVE",
"620 308 OFFCURVE",
"566 308 CURVE SMOOTH",
"539 308 LINE",
"539 247 LINE",
"566 247 LINE SMOOTH",
"620 247 OFFCURVE",
"667 212 OFFCURVE",
"667 158 CURVE SMOOTH",
"667 96 OFFCURVE",
"629 45 OFFCURVE",
"549 45 CURVE SMOOTH",
"449 45 OFFCURVE",
"368 126 OFFCURVE",
"368 260 CURVE SMOOTH",
"368 407 OFFCURVE",
"459 524 OFFCURVE",
"623 524 CURVE SMOOTH",
"725 524 OFFCURVE",
"850 458 OFFCURVE",
"850 292 CURVE",
"850 0 LINE",
"915 0 LINE",
"915 292 LINE SMOOTH",
"915 434 OFFCURVE",
"1031 524 OFFCURVE",
"1141 524 CURVE SMOOTH",
"1283 524 OFFCURVE",
"1392 408 OFFCURVE",
"1392 247 CURVE SMOOTH",
"1392 123 OFFCURVE",
"1330 45 OFFCURVE",
"1257 45 CURVE SMOOTH",
"1186 45 OFFCURVE",
"1138 96 OFFCURVE",
"1138 172 CURVE SMOOTH",
"1138 248 OFFCURVE",
"1190 301 OFFCURVE",
"1260 301 CURVE SMOOTH",
"1361 301 OFFCURVE",
"1452 229 OFFCURVE",
"1452 79 CURVE SMOOTH",
"1452 -75 OFFCURVE",
"1352 -170 OFFCURVE",
"1226 -170 CURVE SMOOTH",
"1196 -170 OFFCURVE",
"1161 -166 OFFCURVE",
"1125 -158 CURVE",
"1125 -215 LINE",
"1163 -222 OFFCURVE",
"1191 -227 OFFCURVE",
"1227 -227 CURVE SMOOTH",
"1397 -227 OFFCURVE",
"1515 -92 OFFCURVE",
"1515 79 CURVE SMOOTH",
"1515 227 OFFCURVE",
"1404 358 OFFCURVE",
"1258 358 CURVE SMOOTH",
"1154 358 OFFCURVE",
"1073 282 OFFCURVE",
"1073 172 CURVE SMOOTH",
"1073 80 OFFCURVE",
"1142 -10 OFFCURVE",
"1257 -10 CURVE SMOOTH",
"1372 -10 OFFCURVE",
"1453 89 OFFCURVE",
"1453 256 CURVE SMOOTH",
"1453 417 OFFCURVE",
"1336 580 OFFCURVE",
"1141 580 CURVE SMOOTH",
"1021 580 OFFCURVE",
"921 506 OFFCURVE",
"882 414 CURVE"
);
}
);
width = 1555;
}
);
unicode = 0D06;
},
{
glyphname = mlI;
lastChange = "2015-07-03 10:43:56 +0000";
layers = (
{
associatedMasterId = "8E067A2A-2289-4446-99CD-66E5BEE6C169";
guideLines = (
{
angle = 90;
position = "{605, 352}";
}
);
layerId = "C824DA33-1F78-4755-A044-AE952B0B870B";
name = "Bold Mar 23 15, 11:04";
paths = (
{
closed = 1;
nodes = (
"213 433 OFFCURVE",
"272 493 OFFCURVE",
"356 493 CURVE SMOOTH",
"474 493 OFFCURVE",
"534 427 OFFCURVE",
"534 322 CURVE SMOOTH",
"534 192 LINE",
"676 192 LINE",
"676 352 LINE SMOOTH",
"676 437 OFFCURVE",
"706 494 OFFCURVE",
"761 494 CURVE SMOOTH",
"815 494 OFFCURVE",
"854 437 OFFCURVE",
"854 325 CURVE SMOOTH",
"854 219 OFFCURVE",
"787 121 OFFCURVE",
"629 121 CURVE SMOOTH",
"236 121 LINE SMOOTH",
"110 121 OFFCURVE",
"50 44 OFFCURVE",
"50 -45 CURVE SMOOTH",
"50 -133 OFFCURVE",
"110 -214 OFFCURVE",
"222 -214 CURVE SMOOTH",
"989 -214 LINE",
"989 -92 LINE",
"250 -92 LINE SMOOTH",
"219 -92 OFFCURVE",
"195 -72 OFFCURVE",
"195 -45 CURVE SMOOTH",
"195 -18 OFFCURVE",
"216 -1 OFFCURVE",
"247 -1 CURVE SMOOTH",
"659 -1 LINE SMOOTH",
"903 -1 OFFCURVE",
"1000 172 OFFCURVE",
"1000 332 CURVE SMOOTH",
"1000 513 OFFCURVE",
"887 610 OFFCURVE",
"761 610 CURVE SMOOTH",
"667 610 OFFCURVE",
"612 551 OFFCURVE",
"595 507 CURVE",
"548 571 OFFCURVE",
"468 610 OFFCURVE",
"358 610 CURVE SMOOTH",
"199 610 OFFCURVE",
"70 516 OFFCURVE",
"70 364 CURVE SMOOTH",
"70 241 OFFCURVE",
"163 177 OFFCURVE",
"269 177 CURVE SMOOTH",
"365 177 OFFCURVE",
"466 233 OFFCURVE",
"466 345 CURVE SMOOTH",
"466 382 OFFCURVE",
"451 415 OFFCURVE",
"436 433 CURVE",
"299 433 LINE",
"313 413 OFFCURVE",
"325 390 OFFCURVE",
"325 356 CURVE SMOOTH",
"325 322 OFFCURVE",
"300 299 OFFCURVE",
"269 299 CURVE SMOOTH",
"233 299 OFFCURVE",
"213 327 OFFCURVE",
"213 364 CURVE SMOOTH"
);
}
);
width = 1050;
},
{
guideLines = (
{
angle = 90;
position = "{510, 352}";
},
{
angle = 90;
position = "{675, 339}";
},
{
angle = 90;
position = "{299, 376}";
}
);
layerId = "8E067A2A-2289-4446-99CD-66E5BEE6C169";
name = Bold;
paths = (
{
closed = 1;
nodes = (
"597 610 OFFCURVE",
"526 559 OFFCURVE",
"500 487 CURVE",
"466 559 OFFCURVE",
"373 610 OFFCURVE",
"275 610 CURVE SMOOTH",
"136 610 OFFCURVE",
"45 522 OFFCURVE",
"45 400 CURVE SMOOTH",
"45 267 OFFCURVE",
"138 197 OFFCURVE",
"264 197 CURVE SMOOTH",
"281 197 OFFCURVE",
"307 199 OFFCURVE",
"324 202 CURVE",
"324 332 LINE",
"302 329 OFFCURVE",
"289 327 OFFCURVE",
"264 329 CURVE SMOOTH",
"221 332 OFFCURVE",
"191 363 OFFCURVE",
"191 404 CURVE SMOOTH",
"191 460 OFFCURVE",
"235 493 OFFCURVE",
"288 493 CURVE SMOOTH",
"366 493 OFFCURVE",
"429 437 OFFCURVE",
"429 332 CURVE SMOOTH",
"429 222 LINE",
"571 222 LINE",
"571 352 LINE SMOOTH",
"571 437 OFFCURVE",
"620 494 OFFCURVE",
"675 494 CURVE SMOOTH",
"729 494 OFFCURVE",
"769 453 OFFCURVE",
"769 352 CURVE SMOOTH",
"769 236 OFFCURVE",
"702 121 OFFCURVE",
"524 121 CURVE SMOOTH",
"231 121 LINE SMOOTH",
"105 121 OFFCURVE",
"45 44 OFFCURVE",
"45 -45 CURVE SMOOTH",
"45 -133 OFFCURVE",
"105 -214 OFFCURVE",
"217 -214 CURVE SMOOTH",
"904 -214 LINE",
"904 -92 LINE",
"245 -92 LINE SMOOTH",
"214 -92 OFFCURVE",
"190 -72 OFFCURVE",
"190 -45 CURVE SMOOTH",
"190 -18 OFFCURVE",
"211 -1 OFFCURVE",
"242 -1 CURVE SMOOTH",
"554 -1 LINE SMOOTH",
"818 -1 OFFCURVE",
"915 189 OFFCURVE",
"915 359 CURVE SMOOTH",
"915 527 OFFCURVE",
"817 610 OFFCURVE",
"691 610 CURVE SMOOTH"
);
}
);
width = 965;
},
{
layerId = "9D6DA52E-CD68-4B8E-8511-A7BD80A00452";
name = Light;
paths = (
{
closed = 1;
nodes = (
"539 580 OFFCURVE",
"479 529 OFFCURVE",
"453 457 CURVE",
"409 529 OFFCURVE",
"343 580 OFFCURVE",
"245 580 CURVE SMOOTH",
"113 580 OFFCURVE",
"45 492 OFFCURVE",
"45 390 CURVE SMOOTH",
"45 277 OFFCURVE",
"128 217 OFFCURVE",
"234 217 CURVE SMOOTH",
"251 217 OFFCURVE",
"277 219 OFFCURVE",
"294 222 CURVE",
"294 282 LINE",
"273 277 OFFCURVE",
"259 275 OFFCURVE",
"234 276 CURVE SMOOTH",
"161 279 OFFCURVE",
"110 323 OFFCURVE",
"110 394 CURVE SMOOTH",
"110 470 OFFCURVE",
"159 523 OFFCURVE",
"245 523 CURVE SMOOTH",
"336 523 OFFCURVE",
"425 447 OFFCURVE",
"425 342 CURVE SMOOTH",
"425 262 LINE",
"485 262 LINE",
"485 362 LINE SMOOTH",
"485 447 OFFCURVE",
"543 523 OFFCURVE",
"633 523 CURVE SMOOTH",
"727 523 OFFCURVE",
"780 440 OFFCURVE",
"780 339 CURVE SMOOTH",
"780 170 OFFCURVE",
"676 96 OFFCURVE",
"484 96 CURVE SMOOTH",
"201 96 LINE SMOOTH",
"103 96 OFFCURVE",
"45 47 OFFCURVE",
"45 -28 CURVE SMOOTH",
"45 -103 OFFCURVE",
"94 -152 OFFCURVE",
"201 -152 CURVE SMOOTH",
"824 -152 LINE",
"824 -97 LINE",
"215 -97 LINE SMOOTH",
"144 -97 OFFCURVE",
"110 -71 OFFCURVE",
"110 -28 CURVE SMOOTH",
"110 14 OFFCURVE",
"144 41 OFFCURVE",
"212 41 CURVE SMOOTH",
"514 41 LINE SMOOTH",
"718 41 OFFCURVE",
"845 156 OFFCURVE",
"845 339 CURVE SMOOTH",
"845 497 OFFCURVE",
"739 580 OFFCURVE",
"633 580 CURVE SMOOTH"
);
}
);
width = 900;
}
);
unicode = 0D07;
},
{
glyphname = mlII;
lastChange = "2015-07-03 10:43:56 +0000";
layers = (
{
layerId = "8E067A2A-2289-4446-99CD-66E5BEE6C169";
name = Bold;
paths = (
{
closed = 1;
nodes = (
"904 -214 LINE",
"904 -92 LINE",
"245 -92 LINE SMOOTH",
"214 -92 OFFCURVE",
"190 -72 OFFCURVE",
"190 -45 CURVE SMOOTH",
"190 -18 OFFCURVE",
"211 -1 OFFCURVE",
"242 -1 CURVE SMOOTH",
"554 -1 LINE SMOOTH",
"818 -1 OFFCURVE",
"915 189 OFFCURVE",
"915 359 CURVE SMOOTH",
"915 527 OFFCURVE",
"817 610 OFFCURVE",
"691 610 CURVE SMOOTH",
"597 610 OFFCURVE",
"526 559 OFFCURVE",
"500 487 CURVE",
"466 559 OFFCURVE",
"373 610 OFFCURVE",
"275 610 CURVE SMOOTH",
"136 610 OFFCURVE",
"45 522 OFFCURVE",
"45 400 CURVE SMOOTH",
"45 267 OFFCURVE",
"138 197 OFFCURVE",
"264 197 CURVE SMOOTH",
"281 197 OFFCURVE",
"307 199 OFFCURVE",
"324 202 CURVE",
"324 332 LINE",
"302 329 OFFCURVE",
"289 327 OFFCURVE",
"264 329 CURVE SMOOTH",
"221 332 OFFCURVE",
"191 363 OFFCURVE",
"191 404 CURVE SMOOTH",
"191 460 OFFCURVE",
"235 493 OFFCURVE",
"288 493 CURVE SMOOTH",
"366 493 OFFCURVE",
"429 437 OFFCURVE",
"429 332 CURVE SMOOTH",
"429 222 LINE",
"571 222 LINE",
"571 352 LINE SMOOTH",
"571 437 OFFCURVE",
"620 494 OFFCURVE",
"675 494 CURVE SMOOTH",
"729 494 OFFCURVE",
"769 453 OFFCURVE",
"769 352 CURVE SMOOTH",
"769 236 OFFCURVE",
"702 121 OFFCURVE",
"524 121 CURVE SMOOTH",
"231 121 LINE SMOOTH",
"105 121 OFFCURVE",
"45 44 OFFCURVE",
"45 -45 CURVE SMOOTH",
"45 -133 OFFCURVE",
"105 -214 OFFCURVE",
"217 -214 CURVE SMOOTH"
);
},
{
closed = 1;
nodes = (
"1613 -10 OFFCURVE",
"1740 132 OFFCURVE",
"1740 338 CURVE SMOOTH",
"1740 486 OFFCURVE",
"1670 610 OFFCURVE",
"1512 610 CURVE SMOOTH",
"1436 610 OFFCURVE",
"1376 563 OFFCURVE",
"1355 515 CURVE",
"1328 563 OFFCURVE",
"1271 610 OFFCURVE",
"1187 610 CURVE SMOOTH",
"1046 610 OFFCURVE",
"977 497 OFFCURVE",
"977 381 CURVE SMOOTH",
"977 349 OFFCURVE",
"985 305 OFFCURVE",
"999 277 CURVE",
"1144 277 LINE",
"1131 309 OFFCURVE",
"1120 344 OFFCURVE",
"1120 382 CURVE SMOOTH",
"1120 440 OFFCURVE",
"1146 488 OFFCURVE",
"1199 488 CURVE SMOOTH",
"1251 488 OFFCURVE",
"1278 453 OFFCURVE",
"1278 386 CURVE SMOOTH",
"1278 304 LINE",
"1424 304 LINE",
"1424 396 LINE SMOOTH",
"1424 457 OFFCURVE",
"1453 488 OFFCURVE",
"1499 488 CURVE SMOOTH",
"1559 488 OFFCURVE",
"1592 434 OFFCURVE",
"1592 324 CURVE SMOOTH",
"1592 183 OFFCURVE",
"1516 125 OFFCURVE",
"1415 125 CURVE SMOOTH",
"1376 125 OFFCURVE",
"1339 132 OFFCURVE",
"1317 138 CURVE",
"1317 7 LINE",
"1347 -4 OFFCURVE",
"1388 -10 OFFCURVE",
"1421 -10 CURVE SMOOTH"
);
}
);
width = 1790;
},
{
layerId = "9D6DA52E-CD68-4B8E-8511-A7BD80A00452";
name = Light;
paths = (
{
closed = 1;
nodes = (
"824 -152 LINE",
"824 -97 LINE",
"215 -97 LINE SMOOTH",
"144 -97 OFFCURVE",
"110 -71 OFFCURVE",
"110 -28 CURVE SMOOTH",
"110 14 OFFCURVE",
"144 41 OFFCURVE",
"212 41 CURVE SMOOTH",
"514 41 LINE SMOOTH",
"718 41 OFFCURVE",
"845 156 OFFCURVE",
"845 339 CURVE SMOOTH",
"845 497 OFFCURVE",
"739 580 OFFCURVE",
"633 580 CURVE SMOOTH",
"539 580 OFFCURVE",
"479 529 OFFCURVE",
"453 457 CURVE",
"409 529 OFFCURVE",
"343 580 OFFCURVE",
"245 580 CURVE SMOOTH",
"113 580 OFFCURVE",
"45 492 OFFCURVE",
"45 390 CURVE SMOOTH",
"45 277 OFFCURVE",
"128 217 OFFCURVE",
"234 217 CURVE SMOOTH",
"251 217 OFFCURVE",
"277 219 OFFCURVE",
"294 222 CURVE",
"294 282 LINE",
"273 277 OFFCURVE",
"259 275 OFFCURVE",
"234 276 CURVE SMOOTH",
"161 279 OFFCURVE",
"110 323 OFFCURVE",
"110 394 CURVE SMOOTH",
"110 470 OFFCURVE",
"159 523 OFFCURVE",
"245 523 CURVE SMOOTH",
"336 523 OFFCURVE",
"425 447 OFFCURVE",
"425 342 CURVE SMOOTH",
"425 262 LINE",
"485 262 LINE",
"485 362 LINE SMOOTH",
"485 447 OFFCURVE",
"543 523 OFFCURVE",
"633 523 CURVE SMOOTH",
"727 523 OFFCURVE",
"780 440 OFFCURVE",
"780 339 CURVE SMOOTH",
"780 170 OFFCURVE",
"676 96 OFFCURVE",
"484 96 CURVE SMOOTH",
"201 96 LINE SMOOTH",
"103 96 OFFCURVE",
"45 47 OFFCURVE",
"45 -28 CURVE SMOOTH",
"45 -103 OFFCURVE",
"94 -152 OFFCURVE",
"201 -152 CURVE SMOOTH"
);
},
{
closed = 1;
nodes = (
"1559 20 OFFCURVE",
"1667 151 OFFCURVE",
"1667 327 CURVE SMOOTH",
"1667 476 OFFCURVE",
"1584 580 OFFCURVE",
"1459 580 CURVE SMOOTH",
"1383 580 OFFCURVE",
"1334 537 OFFCURVE",
"1309 485 CURVE",
"1282 537 OFFCURVE",
"1227 580 OFFCURVE",
"1153 580 CURVE SMOOTH",
"1052 580 OFFCURVE",
"967 501 OFFCURVE",
"967 377 CURVE SMOOTH",
"967 345 OFFCURVE",
"975 305 OFFCURVE",
"989 277 CURVE",
"1054 277 LINE",
"1041 309 OFFCURVE",
"1030 340 OFFCURVE",
"1030 378 CURVE SMOOTH",
"1030 476 OFFCURVE",
"1091 523 OFFCURVE",
"1150 523 CURVE SMOOTH",
"1213 523 OFFCURVE",
"1278 477 OFFCURVE",
"1278 386 CURVE SMOOTH",
"1278 334 LINE",
"1342 334 LINE",
"1342 386 LINE SMOOTH",
"1342 463 OFFCURVE",
"1396 523 OFFCURVE",
"1462 523 CURVE SMOOTH",
"1542 523 OFFCURVE",
"1602 464 OFFCURVE",
"1602 327 CURVE SMOOTH",
"1602 194 OFFCURVE",
"1525 79 OFFCURVE",
"1395 79 CURVE SMOOTH",
"1361 79 OFFCURVE",
"1325 87 OFFCURVE",
"1297 95 CURVE",
"1297 37 LINE",
"1327 26 OFFCURVE",
"1363 20 OFFCURVE",
"1396 20 CURVE SMOOTH"
);
}
);
width = 1722;
}
);
unicode = 0D08;
},
{
glyphname = mlU;
lastChange = "2015-07-03 10:43:56 +0000";
layers = (
{
layerId = "8E067A2A-2289-4446-99CD-66E5BEE6C169";
name = Bold;
paths = (
{
closed = 1;
nodes = (
"703 -214 LINE",
"703 -92 LINE",
"255 -92 LINE SMOOTH",
"224 -92 OFFCURVE",
"200 -76 OFFCURVE",
"200 -52 CURVE SMOOTH",
"200 -24 OFFCURVE",
"220 -12 OFFCURVE",
"243 -12 CURVE SMOOTH",
"377 -13 LINE SMOOTH",
"593 -13 OFFCURVE",
"703 118 OFFCURVE",
"703 309 CURVE SMOOTH",
"703 466 OFFCURVE",
"579 610 OFFCURVE",
"379 610 CURVE SMOOTH",
"189 610 OFFCURVE",
"45 477 OFFCURVE",
"45 332 CURVE SMOOTH",
"45 212 OFFCURVE",
"119 138 OFFCURVE",
"232 138 CURVE SMOOTH",
"326 138 OFFCURVE",
"406 204 OFFCURVE",
"406 297 CURVE SMOOTH",
"406 404 OFFCURVE",
"320 472 OFFCURVE",
"231 443 CURVE",
"267 471 OFFCURVE",
"315 488 OFFCURVE",
"372 488 CURVE SMOOTH",
"470 488 OFFCURVE",
"558 426 OFFCURVE",
"558 307 CURVE SMOOTH",
"558 213 OFFCURVE",
"510 114 OFFCURVE",
"383 114 CURVE SMOOTH",
"239 114 LINE SMOOTH",
"126 114 OFFCURVE",
"55 53 OFFCURVE",
"55 -45 CURVE SMOOTH",
"55 -133 OFFCURVE",
"115 -214 OFFCURVE",
"227 -214 CURVE SMOOTH"
);
},
{
closed = 1;
nodes = (
"191 249 OFFCURVE",
"168 278 OFFCURVE",
"168 307 CURVE SMOOTH",
"168 337 OFFCURVE",
"191 366 OFFCURVE",
"225 366 CURVE SMOOTH",
"259 366 OFFCURVE",
"283 337 OFFCURVE",
"283 307 CURVE SMOOTH",
"283 278 OFFCURVE",
"259 249 OFFCURVE",
"225 249 CURVE SMOOTH"
);
}
);
width = 753;
},
{
layerId = "9D6DA52E-CD68-4B8E-8511-A7BD80A00452";
name = Light;
paths = (
{
closed = 1;
nodes = (
"633 -159 LINE",
"633 -104 LINE",
"225 -104 LINE SMOOTH",
"154 -104 OFFCURVE",
"120 -78 OFFCURVE",
"120 -35 CURVE SMOOTH",
"120 7 OFFCURVE",
"154 35 OFFCURVE",
"222 35 CURVE SMOOTH",
"376 35 LINE SMOOTH",
"552 35 OFFCURVE",
"633 156 OFFCURVE",
"633 307 CURVE SMOOTH",
"633 467 OFFCURVE",
"507 580 OFFCURVE",
"339 580 CURVE SMOOTH",
"169 580 OFFCURVE",
"45 472 OFFCURVE",
"45 327 CURVE SMOOTH",
"45 227 OFFCURVE",
"114 163 OFFCURVE",
"202 163 CURVE SMOOTH",
"288 163 OFFCURVE",
"346 232 OFFCURVE",
"346 307 CURVE SMOOTH",
"346 411 OFFCURVE",
"248 479 OFFCURVE",
"141 438 CURVE",
"190 495 OFFCURVE",
"257 525 OFFCURVE",
"339 525 CURVE SMOOTH",
"484 525 OFFCURVE",
"568 425 OFFCURVE",
"568 307 CURVE SMOOTH",
"568 173 OFFCURVE",
"514 90 OFFCURVE",
"347 90 CURVE SMOOTH",
"211 90 LINE SMOOTH",
"113 89 OFFCURVE",
"55 40 OFFCURVE",
"55 -35 CURVE SMOOTH",
"55 -110 OFFCURVE",
"104 -159 OFFCURVE",
"211 -159 CURVE SMOOTH"
);
},
{
closed = 1;
nodes = (
"142 217 OFFCURVE",
"107 262 OFFCURVE",
"107 307 CURVE SMOOTH",
"107 353 OFFCURVE",
"142 398 OFFCURVE",
"195 398 CURVE SMOOTH",
"247 398 OFFCURVE",
"284 357 OFFCURVE",
"284 307 CURVE SMOOTH",
"284 262 OFFCURVE",
"247 217 OFFCURVE",
"195 217 CURVE SMOOTH"
);
}
);
width = 688;
}
);
unicode = 0D09;
},
{
glyphname = mlUU;
lastChange = "2015-07-03 10:43:56 +0000";
layers = (
{
layerId = "8E067A2A-2289-4446-99CD-66E5BEE6C169";
name = Bold;
paths = (
{
closed = 1;
nodes = (
"703 -214 LINE",
"703 -92 LINE",
"255 -92 LINE SMOOTH",
"224 -92 OFFCURVE",
"200 -76 OFFCURVE",
"200 -52 CURVE SMOOTH",
"200 -24 OFFCURVE",
"220 -12 OFFCURVE",
"243 -12 CURVE SMOOTH",
"377 -13 LINE SMOOTH",
"593 -13 OFFCURVE",
"703 118 OFFCURVE",
"703 309 CURVE SMOOTH",
"703 466 OFFCURVE",
"579 610 OFFCURVE",
"379 610 CURVE SMOOTH",
"189 610 OFFCURVE",
"45 477 OFFCURVE",
"45 332 CURVE SMOOTH",
"45 212 OFFCURVE",
"119 138 OFFCURVE",
"232 138 CURVE SMOOTH",
"326 138 OFFCURVE",
"406 204 OFFCURVE",
"406 297 CURVE SMOOTH",
"406 404 OFFCURVE",
"320 472 OFFCURVE",
"231 443 CURVE",
"267 471 OFFCURVE",
"315 488 OFFCURVE",
"372 488 CURVE SMOOTH",
"470 488 OFFCURVE",
"558 426 OFFCURVE",
"558 307 CURVE SMOOTH",
"558 213 OFFCURVE",
"510 114 OFFCURVE",
"383 114 CURVE SMOOTH",
"239 114 LINE SMOOTH",
"126 114 OFFCURVE",
"55 53 OFFCURVE",
"55 -45 CURVE SMOOTH",
"55 -133 OFFCURVE",
"115 -214 OFFCURVE",
"227 -214 CURVE SMOOTH"
);
},
{
closed = 1;
nodes = (
"191 249 OFFCURVE",
"168 278 OFFCURVE",
"168 307 CURVE SMOOTH",
"168 337 OFFCURVE",
"191 366 OFFCURVE",
"225 366 CURVE SMOOTH",
"259 366 OFFCURVE",
"283 337 OFFCURVE",
"283 307 CURVE SMOOTH",
"283 278 OFFCURVE",
"259 249 OFFCURVE",
"225 249 CURVE SMOOTH"
);
},
{
closed = 1;
nodes = (
"1388 -10 OFFCURVE",
"1515 132 OFFCURVE",
"1515 338 CURVE SMOOTH",
"1515 486 OFFCURVE",
"1445 610 OFFCURVE",
"1287 610 CURVE SMOOTH",
"1211 610 OFFCURVE",
"1151 563 OFFCURVE",
"1130 515 CURVE",
"1103 563 OFFCURVE",
"1046 610 OFFCURVE",
"962 610 CURVE SMOOTH",
"821 610 OFFCURVE",
"752 497 OFFCURVE",
"752 381 CURVE SMOOTH",
"752 349 OFFCURVE",
"760 305 OFFCURVE",
"774 277 CURVE",
"919 277 LINE",
"906 309 OFFCURVE",
"895 344 OFFCURVE",
"895 382 CURVE SMOOTH",
"895 440 OFFCURVE",
"921 488 OFFCURVE",
"974 488 CURVE SMOOTH",
"1026 488 OFFCURVE",
"1053 453 OFFCURVE",
"1053 386 CURVE SMOOTH",
"1053 304 LINE",
"1199 304 LINE",
"1199 396 LINE SMOOTH",
"1199 457 OFFCURVE",
"1228 488 OFFCURVE",
"1274 488 CURVE SMOOTH",
"1334 488 OFFCURVE",
"1367 434 OFFCURVE",
"1367 324 CURVE SMOOTH",
"1367 183 OFFCURVE",
"1291 125 OFFCURVE",
"1190 125 CURVE SMOOTH",
"1151 125 OFFCURVE",
"1114 132 OFFCURVE",
"1092 138 CURVE",
"1092 7 LINE",
"1122 -4 OFFCURVE",
"1163 -10 OFFCURVE",
"1196 -10 CURVE SMOOTH"
);
}
);
width = 1565;
},
{
layerId = "9D6DA52E-CD68-4B8E-8511-A7BD80A00452";
name = Light;
paths = (
{
closed = 1;
nodes = (
"633 -159 LINE",
"633 -104 LINE",
"225 -104 LINE SMOOTH",
"154 -104 OFFCURVE",
"120 -78 OFFCURVE",
"120 -35 CURVE SMOOTH",
"120 7 OFFCURVE",
"154 35 OFFCURVE",
"222 35 CURVE SMOOTH",
"376 35 LINE SMOOTH",
"552 35 OFFCURVE",
"633 156 OFFCURVE",
"633 307 CURVE SMOOTH",
"633 467 OFFCURVE",
"507 580 OFFCURVE",
"339 580 CURVE SMOOTH",
"169 580 OFFCURVE",
"45 472 OFFCURVE",
"45 327 CURVE SMOOTH",
"45 227 OFFCURVE",
"114 163 OFFCURVE",
"202 163 CURVE SMOOTH",
"288 163 OFFCURVE",
"346 232 OFFCURVE",
"346 307 CURVE SMOOTH",
"346 411 OFFCURVE",
"248 479 OFFCURVE",
"141 438 CURVE",
"190 495 OFFCURVE",
"257 525 OFFCURVE",
"339 525 CURVE SMOOTH",
"484 525 OFFCURVE",
"568 425 OFFCURVE",
"568 307 CURVE SMOOTH",
"568 173 OFFCURVE",
"514 90 OFFCURVE",
"347 90 CURVE SMOOTH",
"211 90 LINE SMOOTH",
"113 89 OFFCURVE",
"55 40 OFFCURVE",
"55 -35 CURVE SMOOTH",
"55 -110 OFFCURVE",
"104 -159 OFFCURVE",
"211 -159 CURVE SMOOTH"
);
},
{
closed = 1;
nodes = (
"142 217 OFFCURVE",
"107 262 OFFCURVE",
"107 307 CURVE SMOOTH",
"107 353 OFFCURVE",
"142 398 OFFCURVE",
"195 398 CURVE SMOOTH",
"247 398 OFFCURVE",
"284 357 OFFCURVE",
"284 307 CURVE SMOOTH",
"284 262 OFFCURVE",
"247 217 OFFCURVE",
"195 217 CURVE SMOOTH"
);
},
{
closed = 1;
nodes = (
"1329 20 OFFCURVE",
"1437 151 OFFCURVE",
"1437 327 CURVE SMOOTH",
"1437 476 OFFCURVE",
"1354 580 OFFCURVE",
"1229 580 CURVE SMOOTH",
"1153 580 OFFCURVE",
"1104 537 OFFCURVE",
"1079 485 CURVE",
"1052 537 OFFCURVE",
"997 580 OFFCURVE",
"923 580 CURVE SMOOTH",
"822 580 OFFCURVE",
"737 501 OFFCURVE",
"737 377 CURVE SMOOTH",
"737 345 OFFCURVE",
"745 305 OFFCURVE",
"759 277 CURVE",
"824 277 LINE",
"811 309 OFFCURVE",
"800 340 OFFCURVE",
"800 378 CURVE SMOOTH",
"800 476 OFFCURVE",
"861 523 OFFCURVE",
"920 523 CURVE SMOOTH",
"983 523 OFFCURVE",
"1048 477 OFFCURVE",
"1048 386 CURVE SMOOTH",
"1048 334 LINE",
"1112 334 LINE",
"1112 386 LINE SMOOTH",
"1112 463 OFFCURVE",
"1166 523 OFFCURVE",
"1232 523 CURVE SMOOTH",
"1312 523 OFFCURVE",
"1372 464 OFFCURVE",
"1372 327 CURVE SMOOTH",
"1372 194 OFFCURVE",
"1295 79 OFFCURVE",
"1165 79 CURVE SMOOTH",
"1131 79 OFFCURVE",
"1095 87 OFFCURVE",
"1067 95 CURVE",
"1067 37 LINE",
"1097 26 OFFCURVE",
"1133 20 OFFCURVE",
"1166 20 CURVE SMOOTH"
);
}
);
width = 1492;
}
);
unicode = 0D0A;
},
{
glyphname = mlvR;
lastChange = "2015-07-03 10:43:56 +0000";
layers = (
{
layerId = "8E067A2A-2289-4446-99CD-66E5BEE6C169";
name = Bold;
paths = (
{
closed = 1;
nodes = (
"747 -211 OFFCURVE",
"875 -123 OFFCURVE",
"875 2 CURVE SMOOTH",
"875 81 OFFCURVE",
"813 139 OFFCURVE",
"732 154 CURVE",
"810 191 OFFCURVE",
"896 278 OFFCURVE",
"896 415 CURVE SMOOTH",
"896 513 OFFCURVE",
"817 610 OFFCURVE",
"686 610 CURVE SMOOTH",
"564 610 OFFCURVE",
"497 513 OFFCURVE",
"497 434 CURVE SMOOTH",
"497 321 OFFCURVE",
"587 267 OFFCURVE",
"656 267 CURVE SMOOTH",
"682 267 OFFCURVE",
"697 273 OFFCURVE",
"715 283 CURVE",
"667 237 OFFCURVE",
"585 210 OFFCURVE",
"470 210 CURVE SMOOTH",
"357 210 OFFCURVE",
"284 237 OFFCURVE",
"234 283 CURVE",
"252 273 OFFCURVE",
"276 267 OFFCURVE",
"301 267 CURVE SMOOTH",
"371 267 OFFCURVE",
"449 324 OFFCURVE",
"449 434 CURVE SMOOTH",
"449 513 OFFCURVE",
"382 610 OFFCURVE",
"259 610 CURVE SMOOTH",
"131 610 OFFCURVE",
"50 516 OFFCURVE",
"50 418 CURVE SMOOTH",
"50 280 OFFCURVE",
"137 192 OFFCURVE",
"215 154 CURVE",
"131 138 OFFCURVE",
"70 84 OFFCURVE",
"70 0 CURVE SMOOTH",
"70 -123 OFFCURVE",
"212 -211 OFFCURVE",
"467 -211 CURVE SMOOTH"
);
},
{
closed = 1;
nodes = (
"313 -89 OFFCURVE",
"218 -58 OFFCURVE",
"218 4 CURVE SMOOTH",
"218 66 OFFCURVE",
"331 92 OFFCURVE",
"470 92 CURVE SMOOTH",
"609 92 OFFCURVE",
"727 68 OFFCURVE",
"727 6 CURVE SMOOTH",
"727 -56 OFFCURVE",
"621 -89 OFFCURVE",
"467 -89 CURVE SMOOTH"
);
},
{
closed = 1;
nodes = (
"209 359 OFFCURVE",
"181 393 OFFCURVE",
"181 429 CURVE SMOOTH",
"181 467 OFFCURVE",
"209 499 OFFCURVE",
"249 499 CURVE SMOOTH",
"290 499 OFFCURVE",
"318 467 OFFCURVE",
"318 429 CURVE SMOOTH",
"318 393 OFFCURVE",
"290 359 OFFCURVE",
"249 359 CURVE SMOOTH"
);
},
{
closed = 1;
nodes = (
"656 359 OFFCURVE",
"628 393 OFFCURVE",
"628 429 CURVE SMOOTH",
"628 467 OFFCURVE",
"656 499 OFFCURVE",
"696 499 CURVE SMOOTH",
"737 499 OFFCURVE",
"765 467 OFFCURVE",
"765 429 CURVE SMOOTH",
"765 393 OFFCURVE",
"737 359 OFFCURVE",
"696 359 CURVE SMOOTH"
);
}
);
width = 946;
},
{
guideLines = (
{
angle = 90;
position = "{435, -17}";
}
);
layerId = "9D6DA52E-CD68-4B8E-8511-A7BD80A00452";
name = Light;
paths = (
{
closed = 1;
nodes = (
"617 -201 OFFCURVE",
"805 -159 OFFCURVE",
"805 -26 CURVE SMOOTH",
"805 73 OFFCURVE",
"723 113 OFFCURVE",
"639 129 CURVE",
"727 167 OFFCURVE",
"825 250 OFFCURVE",
"825 388 CURVE SMOOTH",
"825 496 OFFCURVE",
"755 580 OFFCURVE",
"656 580 CURVE SMOOTH",
"567 580 OFFCURVE",
"494 513 OFFCURVE",
"494 414 CURVE SMOOTH",
"494 331 OFFCURVE",
"569 267 OFFCURVE",
"645 267 CURVE SMOOTH",
"681 267 OFFCURVE",
"710 272 OFFCURVE",
"741 295 CURVE",
"681 174 OFFCURVE",
"558 152 OFFCURVE",
"435 152 CURVE SMOOTH",
"312 152 OFFCURVE",
"189 174 OFFCURVE",
"129 295 CURVE",
"160 272 OFFCURVE",
"189 267 OFFCURVE",
"225 267 CURVE SMOOTH",
"301 267 OFFCURVE",
"376 331 OFFCURVE",
"376 414 CURVE SMOOTH",
"376 513 OFFCURVE",
"303 580 OFFCURVE",
"214 580 CURVE SMOOTH",
"115 580 OFFCURVE",
"45 496 OFFCURVE",
"45 388 CURVE SMOOTH",
"45 250 OFFCURVE",
"143 167 OFFCURVE",
"231 129 CURVE",
"147 113 OFFCURVE",
"65 73 OFFCURVE",
"65 -26 CURVE SMOOTH",
"65 -159 OFFCURVE",
"253 -201 OFFCURVE",
"435 -201 CURVE SMOOTH"
);
},
{
closed = 1;
nodes = (
"248 -146 OFFCURVE",
"128 -104 OFFCURVE",
"128 -22 CURVE SMOOTH",
"128 65 OFFCURVE",
"236 97 OFFCURVE",
"435 97 CURVE SMOOTH",
"634 97 OFFCURVE",
"742 65 OFFCURVE",
"742 -22 CURVE SMOOTH",
"742 -104 OFFCURVE",
"622 -146 OFFCURVE",
"435 -146 CURVE SMOOTH"
);
},
{
closed = 1;
nodes = (
"151 322 OFFCURVE",
"113 369 OFFCURVE",
"113 423 CURVE SMOOTH",
"113 479 OFFCURVE",
"151 525 OFFCURVE",
"210 525 CURVE SMOOTH",
"270 525 OFFCURVE",
"311 479 OFFCURVE",
"311 423 CURVE SMOOTH",
"311 369 OFFCURVE",
"270 322 OFFCURVE",
"210 322 CURVE SMOOTH"
);
},
{
closed = 1;
nodes = (
"600 322 OFFCURVE",
"559 369 OFFCURVE",
"559 423 CURVE SMOOTH",
"559 479 OFFCURVE",
"600 525 OFFCURVE",
"660 525 CURVE SMOOTH",
"719 525 OFFCURVE",
"757 479 OFFCURVE",
"757 423 CURVE SMOOTH",
"757 369 OFFCURVE",
"719 322 OFFCURVE",
"660 322 CURVE SMOOTH"
);
}
);
width = 870;
}
);
unicode = 0D0B;
},
{
glyphname = mlvL;
lastChange = "2015-07-03 10:43:56 +0000";
layers = (
{
guideLines = (
{
position = "{990, 78}";
},
{
position = "{990, 149}";
}
);
layerId = "8E067A2A-2289-4446-99CD-66E5BEE6C169";
name = Bold;
paths = (
{
closed = 1;
nodes = (
"374 -10 OFFCURVE",
"467 78 OFFCURVE",
"467 260 CURVE SMOOTH",
"467 340 OFFCURVE",
"426 438 OFFCURVE",
"367 486 CURVE",
"371 486 OFFCURVE",
"374 486 OFFCURVE",
"378 486 CURVE SMOOTH",
"470 482 OFFCURVE",
"555 424 OFFCURVE",
"555 282 CURVE SMOOTH",
"555 0 LINE",
"701 0 LINE",
"701 282 LINE SMOOTH",
"701 425 OFFCURVE",
"788 483 OFFCURVE",
"881 486 CURVE SMOOTH",
"883 486 OFFCURVE",
"886 486 OFFCURVE",
"889 486 CURVE",
"830 438 OFFCURVE",
"789 340 OFFCURVE",
"789 260 CURVE SMOOTH",
"789 78 OFFCURVE",
"882 -10 OFFCURVE",
"997 -10 CURVE SMOOTH",
"1112 -10 OFFCURVE",
"1206 78 OFFCURVE",
"1206 270 CURVE SMOOTH",
"1206 479 OFFCURVE",
"1065 610 OFFCURVE",
"879 610 CURVE SMOOTH",
"744 610 OFFCURVE",
"660 536 OFFCURVE",
"628 487 CURVE",
"596 536 OFFCURVE",
"512 610 OFFCURVE",
"377 610 CURVE SMOOTH",
"191 610 OFFCURVE",
"50 479 OFFCURVE",
"50 270 CURVE SMOOTH",
"50 78 OFFCURVE",
"144 -10 OFFCURVE",
"259 -10 CURVE SMOOTH"
);
},
{
closed = 1;
nodes = (
"224 112 OFFCURVE",
"198 149 OFFCURVE",
"198 270 CURVE SMOOTH",
"198 350 OFFCURVE",
"218 411 OFFCURVE",
"258 456 CURVE",
"298 409 OFFCURVE",
"319 342 OFFCURVE",
"319 260 CURVE SMOOTH",
"319 149 OFFCURVE",
"294 112 OFFCURVE",
"259 112 CURVE SMOOTH"
);
},
{
closed = 1;
nodes = (
"962 112 OFFCURVE",
"937 149 OFFCURVE",
"937 260 CURVE SMOOTH",
"937 342 OFFCURVE",
"958 409 OFFCURVE",
"998 456 CURVE",
"1038 411 OFFCURVE",
"1058 350 OFFCURVE",
"1058 270 CURVE SMOOTH",
"1058 149 OFFCURVE",
"1032 112 OFFCURVE",
"997 112 CURVE SMOOTH"
);
}
);
width = 1256;
},
{
guideLines = (
{
position = "{987, 343}";
},
{
angle = 90;
position = "{968, 237}";
}
);
layerId = "9D6DA52E-CD68-4B8E-8511-A7BD80A00452";
name = Light;
paths = (
{
closed = 1;
nodes = (
"357 -10 OFFCURVE",
"409 115 OFFCURVE",
"409 237 CURVE SMOOTH",
"409 374 OFFCURVE",
"337 475 OFFCURVE",
"287 514 CURVE",
"309 522 OFFCURVE",
"331 525 OFFCURVE",
"353 525 CURVE SMOOTH",
"467 525 OFFCURVE",
"567 423 OFFCURVE",
"567 292 CURVE",
"567 0 LINE",
"627 0 LINE",
"627 292 LINE SMOOTH",
"627 423 OFFCURVE",
"727 525 OFFCURVE",
"841 525 CURVE SMOOTH",
"863 525 OFFCURVE",
"885 522 OFFCURVE",
"907 514 CURVE",
"857 475 OFFCURVE",
"785 374 OFFCURVE",
"785 237 CURVE SMOOTH",
"785 115 OFFCURVE",
"837 -10 OFFCURVE",
"967 -10 CURVE SMOOTH",
"1097 -10 OFFCURVE",
"1149 115 OFFCURVE",
"1149 237 CURVE SMOOTH",
"1149 429 OFFCURVE",
"1017 580 OFFCURVE",
"841 580 CURVE SMOOTH",
"729 580 OFFCURVE",
"638 508 OFFCURVE",
"597 416 CURVE",
"556 508 OFFCURVE",
"465 580 OFFCURVE",
"353 580 CURVE SMOOTH",
"177 580 OFFCURVE",
"45 429 OFFCURVE",
"45 237 CURVE SMOOTH",
"45 115 OFFCURVE",
"97 -10 OFFCURVE",
"227 -10 CURVE SMOOTH"
);
},
{
closed = 1;
nodes = (
"152 47 OFFCURVE",
"109 129 OFFCURVE",
"109 237 CURVE SMOOTH",
"109 353 OFFCURVE",
"170 449 OFFCURVE",
"229 492 CURVE",
"282 449 OFFCURVE",
"344 353 OFFCURVE",
"344 237 CURVE SMOOTH",
"344 128 OFFCURVE",
"302 47 OFFCURVE",
"227 47 CURVE SMOOTH"
);
},
{
closed = 1;
nodes = (
"892 47 OFFCURVE",
"850 128 OFFCURVE",
"850 237 CURVE SMOOTH",
"850 353 OFFCURVE",
"912 449 OFFCURVE",
"965 492 CURVE",
"1024 449 OFFCURVE",
"1085 353 OFFCURVE",
"1085 237 CURVE SMOOTH",
"1085 129 OFFCURVE",
"1042 47 OFFCURVE",
"967 47 CURVE SMOOTH"
);
}
);
width = 1194;
},
{
associatedMasterId = "8E067A2A-2289-4446-99CD-66E5BEE6C169";
background = {
paths = (
{
closed = 0;
nodes = (
"993 456 LINE",
"953 411 OFFCURVE",
"932 360 OFFCURVE",
"932 270 CURVE SMOOTH",
"932 149 OFFCURVE",
"961 112 OFFCURVE",
"993 112 CURVE SMOOTH"
);
}
);
};
guideLines = (
{
position = "{983, 53}";
},
{
angle = 90;
position = "{992.5, 270}";
}
);
layerId = "17722478-666D-4719-B3FA-81F80A8D97BC";
name = "Bold May 4 15, 15:25";
paths = (
{
closed = 1;
nodes = (
"369 -10 OFFCURVE",
"464 81 OFFCURVE",
"464 270 CURVE SMOOTH",
"464 360 OFFCURVE",
"426 435 OFFCURVE",
"362 486 CURVE",
"458 486 OFFCURVE",
"550 427 OFFCURVE",
"550 312 CURVE",
"550 0 LINE",
"696 0 LINE",
"696 312 LINE SMOOTH",
"696 427 OFFCURVE",
"788 486 OFFCURVE",
"884 486 CURVE",
"820 435 OFFCURVE",
"782 330 OFFCURVE",
"782 240 CURVE SMOOTH",
"782 51 OFFCURVE",
"877 -10 OFFCURVE",
"992 -10 CURVE SMOOTH",
"1107 -10 OFFCURVE",
"1201 78 OFFCURVE",
"1201 270 CURVE SMOOTH",
"1201 479 OFFCURVE",
"1060 610 OFFCURVE",
"874 610 CURVE SMOOTH",
"739 610 OFFCURVE",
"655 536 OFFCURVE",
"623 487 CURVE",
"591 536 OFFCURVE",
"507 610 OFFCURVE",
"372 610 CURVE SMOOTH",
"186 610 OFFCURVE",
"45 479 OFFCURVE",
"45 270 CURVE SMOOTH",
"45 78 OFFCURVE",
"139 -10 OFFCURVE",
"254 -10 CURVE SMOOTH"
);
},
{
closed = 1;
nodes = (
"219 112 OFFCURVE",
"193 149 OFFCURVE",
"193 270 CURVE SMOOTH",
"193 350 OFFCURVE",
"213 411 OFFCURVE",
"253 456 CURVE",
"293 411 OFFCURVE",
"314 350 OFFCURVE",
"314 270 CURVE SMOOTH",
"314 149 OFFCURVE",
"289 112 OFFCURVE",
"254 112 CURVE SMOOTH"
);
},
{
closed = 1;
nodes = (
"957 112 OFFCURVE",
"932 119 OFFCURVE",
"932 240 CURVE SMOOTH",
"932 320 OFFCURVE",
"953 411 OFFCURVE",
"993 456 CURVE",
"1033 411 OFFCURVE",
"1053 350 OFFCURVE",
"1053 270 CURVE SMOOTH",
"1053 149 OFFCURVE",
"1027 112 OFFCURVE",
"992 112 CURVE SMOOTH"
);
}
);
width = 1246;
}
);
unicode = 0D0C;
},
{
glyphname = mlE;
lastChange = "2015-07-03 10:43:56 +0000";
layers = (
{
guideLines = (
{
position = "{314, 246}";
},
{
angle = 90;
position = "{1029, 179}";
}
);
hints = (
{
horizontal = 1;
place = "{315.328125, 0.000000}";
}
);
layerId = "8E067A2A-2289-4446-99CD-66E5BEE6C169";
name = Bold;
paths = (
{
closed = 1;
nodes = (
"1033 -215 OFFCURVE",
"1095 -142 OFFCURVE",
"1095 -24 CURVE SMOOTH",
"1095 403 LINE",
"965 403 LINE",
"965 121 LINE",
"816 121 LINE",
"815 140 OFFCURVE",
"814 160 OFFCURVE",
"814 182 CURVE SMOOTH",
"814 361 OFFCURVE",
"901 488 OFFCURVE",
"1028 488 CURVE SMOOTH",
"1155 488 OFFCURVE",
"1233 383 OFFCURVE",
"1233 175 CURVE SMOOTH",
"1233 36 OFFCURVE",
"1191 -86 OFFCURVE",
"1134 -195 CURVE",
"1292 -195 LINE",
"1343 -84 OFFCURVE",
"1381 38 OFFCURVE",
"1381 179 CURVE SMOOTH",
"1381 423 OFFCURVE",
"1257 610 OFFCURVE",
"1028 610 CURVE SMOOTH",
"799 610 OFFCURVE",
"666 423 OFFCURVE",
"666 172 CURVE SMOOTH",
"666 154 OFFCURVE",
"667 137 OFFCURVE",
"668 121 CURVE",
"613 122 LINE",
"584 122 OFFCURVE",
"571 123 OFFCURVE",
"534 118 CURVE",
"561 151 OFFCURVE",
"582 194 OFFCURVE",
"582 241 CURVE SMOOTH",
"582 395 OFFCURVE",
"459 495 OFFCURVE",
"314 495 CURVE SMOOTH",
"169 495 OFFCURVE",
"45 395 OFFCURVE",
"45 241 CURVE SMOOTH",
"45 91 OFFCURVE",
"148 -9 OFFCURVE",
"282 -10 CURVE",
"282 125 LINE",
"231 127 OFFCURVE",
"193 174 OFFCURVE",
"193 246 CURVE SMOOTH",
"193 321 OFFCURVE",
"247 373 OFFCURVE",
"314 373 CURVE SMOOTH",
"381 373 OFFCURVE",
"434 326 OFFCURVE",
"434 246 CURVE SMOOTH",
"434 191 OFFCURVE",
"414 152 OFFCURVE",
"382 117 CURVE",
"382 0 LINE",
"680 0 LINE",
"720 -135 OFFCURVE",
"818 -215 OFFCURVE",
"927 -215 CURVE SMOOTH"
);
},
{
closed = 1;
nodes = (
"893 -93 OFFCURVE",
"854 -74 OFFCURVE",
"829 0 CURVE",
"965 0 LINE",
"965 -55 LINE SMOOTH",
"965 -81 OFFCURVE",
"950 -93 OFFCURVE",
"927 -93 CURVE SMOOTH"
);
}
);
width = 1446;
},
{
guideLines = (
{
angle = 90;
position = "{932, 168.5}";
}
);
layerId = "9D6DA52E-CD68-4B8E-8511-A7BD80A00452";
name = Light;
paths = (
{
closed = 1;
nodes = (
"919 -195 OFFCURVE",
"956 -132 OFFCURVE",
"956 -24 CURVE SMOOTH",
"956 363 LINE",
"896 363 LINE",
"896 55 LINE",
"673 55 LINE",
"667 104 OFFCURVE",
"666 130 OFFCURVE",
"666 172 CURVE SMOOTH",
"666 368 OFFCURVE",
"771 525 OFFCURVE",
"932 525 CURVE SMOOTH",
"1092 525 OFFCURVE",
"1193 376 OFFCURVE",
"1193 175 CURVE SMOOTH",
"1193 62 OFFCURVE",
"1152 -75 OFFCURVE",
"1093 -175 CURVE",
"1161 -175 LINE",
"1220 -70 OFFCURVE",
"1258 78 OFFCURVE",
"1258 179 CURVE SMOOTH",
"1258 392 OFFCURVE",
"1141 580 OFFCURVE",
"932 580 CURVE SMOOTH",
"723 580 OFFCURVE",
"601 394 OFFCURVE",
"601 172 CURVE SMOOTH",
"601 134 OFFCURVE",
"602 101 OFFCURVE",
"608 55 CURVE",
"535 55 LINE",
"506 55 OFFCURVE",
"481 56 OFFCURVE",
"447 51 CURVE",
"480 90 OFFCURVE",
"511 148 OFFCURVE",
"511 228 CURVE SMOOTH",
"511 352 OFFCURVE",
"428 469 OFFCURVE",
"275 469 CURVE SMOOTH",
"121 469 OFFCURVE",
"40 344 OFFCURVE",
"40 227 CURVE SMOOTH",
"40 117 OFFCURVE",
"106 -10 OFFCURVE",
"245 -10 CURVE",
"245 50 LINE",
"183 50 OFFCURVE",
"105 105 OFFCURVE",
"105 227 CURVE SMOOTH",
"105 318 OFFCURVE",
"161 414 OFFCURVE",
"275 414 CURVE SMOOTH",
"386 414 OFFCURVE",
"446 326 OFFCURVE",
"446 227 CURVE SMOOTH",
"446 148 OFFCURVE",
"414 95 OFFCURVE",
"366 52 CURVE",
"366 0 LINE",
"615 0 LINE",
"655 -135 OFFCURVE",
"746 -195 OFFCURVE",
"825 -195 CURVE SMOOTH"
);
},
{
closed = 1;
nodes = (
"772 -137 OFFCURVE",
"704 -78 OFFCURVE",
"681 0 CURVE",
"896 0 LINE",
"896 -55 LINE SMOOTH",
"896 -119 OFFCURVE",
"862 -137 OFFCURVE",
"825 -137 CURVE SMOOTH"
);
}
);
width = 1318;
}
);
unicode = 0D0E;
},
{
glyphname = mlEE;
lastChange = "2015-07-03 10:43:56 +0000";
layers = (
{
background = {
paths = (
{
closed = 0;
nodes = (
"1412 139 LINE SMOOTH",
"1412 -2 OFFCURVE",
"1336 -60 OFFCURVE",
"1235 -60 CURVE SMOOTH",
"1196 -60 OFFCURVE",
"1159 -53 OFFCURVE",
"1137 -47 CURVE",
"1137 -178 LINE",
"1167 -189 OFFCURVE",
"1208 -195 OFFCURVE",
"1241 -195 CURVE SMOOTH",
"1433 -195 OFFCURVE",
"1560 -53 OFFCURVE",
"1560 153 CURVE SMOOTH"
);
},
{
closed = 0;
nodes = (
"680 0 LINE",
"720 -135 OFFCURVE",
"818 -215 OFFCURVE",
"927 -215 CURVE SMOOTH",
"1033 -215 OFFCURVE",
"1095 -142 OFFCURVE",
"1095 -24 CURVE SMOOTH"
);
},
{
closed = 1;
nodes = (
"893 -93 OFFCURVE",
"854 -74 OFFCURVE",
"829 0 CURVE",
"965 0 LINE",
"965 -55 LINE SMOOTH",
"965 -81 OFFCURVE",
"950 -93 OFFCURVE",
"927 -93 CURVE SMOOTH"
);
}
);
};
guideLines = (
{
position = "{1210, 29}";
}
);
layerId = "8E067A2A-2289-4446-99CD-66E5BEE6C169";
name = Bold;
paths = (
{
closed = 1;
nodes = (
"1033 -215 OFFCURVE",
"1095 -142 OFFCURVE",
"1095 -24 CURVE SMOOTH",
"1095 393 LINE",
"965 393 LINE",
"965 121 LINE",
"816 121 LINE",
"813 142 OFFCURVE",
"814 160 OFFCURVE",
"814 182 CURVE SMOOTH",
"814 361 OFFCURVE",
"925 488 OFFCURVE",
"1082 488 CURVE SMOOTH",
"1196 488 OFFCURVE",
"1292 441 OFFCURVE",
"1292 343 CURVE SMOOTH",
"1292 286 OFFCURVE",
"1262 241 OFFCURVE",
"1202 241 CURVE SMOOTH",
"1159 241 LINE",
"1159 121 LINE",
"1202 121 LINE SMOOTH",
"1272 121 OFFCURVE",
"1309 84 OFFCURVE",
"1309 29 CURVE SMOOTH",
"1309 -26 OFFCURVE",
"1275 -63 OFFCURVE",
"1218 -63 CURVE SMOOTH",
"1190 -63 OFFCURVE",
"1172 -61 OFFCURVE",
"1146 -55 CURVE",
"1146 -182 LINE",
"1169 -189 OFFCURVE",
"1200 -195 OFFCURVE",
"1231 -195 CURVE SMOOTH",
"1376 -195 OFFCURVE",
"1457 -104 OFFCURVE",
"1457 29 CURVE SMOOTH",
"1457 113 OFFCURVE",
"1401 165 OFFCURVE",
"1337 181 CURVE",
"1401 202 OFFCURVE",
"1435 276 OFFCURVE",
"1435 343 CURVE SMOOTH",
"1435 487 OFFCURVE",
"1300 610 OFFCURVE",
"1082 610 CURVE SMOOTH",
"843 610 OFFCURVE",
"666 413 OFFCURVE",
"666 172 CURVE SMOOTH",
"666 154 OFFCURVE",
"667 138 OFFCURVE",
"668 122 CURVE",
"613 122 LINE",
"584 122 OFFCURVE",
"568 123 OFFCURVE",
"531 118 CURVE",
"559 147 OFFCURVE",
"582 194 OFFCURVE",
"582 241 CURVE SMOOTH",
"582 395 OFFCURVE",
"459 495 OFFCURVE",
"314 495 CURVE SMOOTH",
"169 495 OFFCURVE",
"45 395 OFFCURVE",
"45 241 CURVE SMOOTH",
"45 91 OFFCURVE",
"148 -9 OFFCURVE",
"282 -10 CURVE",
"282 125 LINE",
"231 127 OFFCURVE",
"193 174 OFFCURVE",
"193 246 CURVE SMOOTH",
"193 321 OFFCURVE",
"247 373 OFFCURVE",
"314 373 CURVE SMOOTH",
"381 373 OFFCURVE",
"434 326 OFFCURVE",
"434 246 CURVE SMOOTH",
"434 191 OFFCURVE",
"414 152 OFFCURVE",
"382 117 CURVE",
"382 0 LINE",
"680 0 LINE",
"720 -135 OFFCURVE",
"818 -215 OFFCURVE",
"927 -215 CURVE SMOOTH"
);
},
{
closed = 1;
nodes = (
"893 -93 OFFCURVE",
"854 -74 OFFCURVE",
"829 0 CURVE",
"965 0 LINE",
"965 -55 LINE SMOOTH",
"965 -80 OFFCURVE",
"951 -93 OFFCURVE",
"927 -93 CURVE SMOOTH"
);
}
);
width = 1512;
},
{
guideLines = (
{
angle = 90;
position = "{1040, 86}";
}
);
layerId = "9D6DA52E-CD68-4B8E-8511-A7BD80A00452";
name = Light;
paths = (
{
closed = 1;
nodes = (
"919 -195 OFFCURVE",
"956 -132 OFFCURVE",
"956 -24 CURVE SMOOTH",
"956 363 LINE",
"896 363 LINE",
"896 55 LINE",
"668 55 LINE",
"663 85 OFFCURVE",
"663 129 OFFCURVE",
"663 161 CURVE SMOOTH",
"663 383 OFFCURVE",
"818 525 OFFCURVE",
"984 525 CURVE SMOOTH",
"1114 525 OFFCURVE",
"1218 464 OFFCURVE",
"1218 343 CURVE SMOOTH",
"1218 260 OFFCURVE",
"1170 206 OFFCURVE",
"1087 206 CURVE SMOOTH",
"1057 206 LINE",
"1057 146 LINE",
"1090 146 LINE SMOOTH",
"1170 146 OFFCURVE",
"1240 100 OFFCURVE",
"1240 10 CURVE SMOOTH",
"1240 -74 OFFCURVE",
"1189 -127 OFFCURVE",
"1105 -127 CURVE SMOOTH",
"1080 -127 OFFCURVE",
"1052 -124 OFFCURVE",
"1024 -117 CURVE",
"1024 -175 LINE",
"1049 -181 OFFCURVE",
"1079 -185 OFFCURVE",
"1105 -185 CURVE SMOOTH",
"1235 -185 OFFCURVE",
"1305 -107 OFFCURVE",
"1305 10 CURVE SMOOTH",
"1305 103 OFFCURVE",
"1242 160 OFFCURVE",
"1175 176 CURVE",
"1242 199 OFFCURVE",
"1283 260 OFFCURVE",
"1283 343 CURVE SMOOTH",
"1283 482 OFFCURVE",
"1160 580 OFFCURVE",
"984 580 CURVE SMOOTH",
"759 580 OFFCURVE",
"601 393 OFFCURVE",
"601 151 CURVE SMOOTH",
"601 123 OFFCURVE",
"601 81 OFFCURVE",
"606 55 CURVE",
"535 55 LINE",
"506 55 OFFCURVE",
"481 56 OFFCURVE",
"447 51 CURVE",
"480 90 OFFCURVE",
"511 148 OFFCURVE",
"511 228 CURVE SMOOTH",
"511 352 OFFCURVE",
"428 469 OFFCURVE",
"275 469 CURVE SMOOTH",
"121 469 OFFCURVE",
"40 344 OFFCURVE",
"40 227 CURVE SMOOTH",
"40 117 OFFCURVE",
"106 -10 OFFCURVE",
"245 -10 CURVE",
"245 50 LINE",
"183 50 OFFCURVE",
"105 105 OFFCURVE",
"105 227 CURVE SMOOTH",
"105 318 OFFCURVE",
"161 414 OFFCURVE",
"275 414 CURVE SMOOTH",
"386 414 OFFCURVE",
"446 326 OFFCURVE",
"446 227 CURVE SMOOTH",
"446 148 OFFCURVE",
"414 95 OFFCURVE",
"366 52 CURVE",
"366 0 LINE",
"615 0 LINE",
"655 -135 OFFCURVE",
"746 -195 OFFCURVE",
"825 -195 CURVE SMOOTH"
);
},
{
closed = 1;
nodes = (
"772 -137 OFFCURVE",
"704 -78 OFFCURVE",
"681 0 CURVE",
"896 0 LINE",
"896 -55 LINE SMOOTH",
"896 -119 OFFCURVE",
"862 -137 OFFCURVE",
"825 -137 CURVE SMOOTH"
);
}
);
width = 1355;
}
);
unicode = 0D0F;
},
{
glyphname = mlAI;
lastChange = "2015-07-03 10:43:56 +0000";
layers = (
{
components = (
{
name = mlE;
transform = "{1, 0, 0, 1, 785, 0}";
}
);
guideLines = (
{
position = "{415, 278}";
}
);
layerId = "8E067A2A-2289-4446-99CD-66E5BEE6C169";
name = Bold;
paths = (
{
closed = 1;
nodes = (
"239 112 OFFCURVE",
"208 150 OFFCURVE",
"208 189 CURVE SMOOTH",
"208 231 OFFCURVE",
"239 267 OFFCURVE",
"283 267 CURVE SMOOTH",
"328 267 OFFCURVE",
"359 231 OFFCURVE",
"359 189 CURVE SMOOTH",
"359 150 OFFCURVE",
"328 112 OFFCURVE",
"283 112 CURVE SMOOTH"
);
},
{
closed = 1;
nodes = (
"415 -10 OFFCURVE",
"499 86 OFFCURVE",
"499 197 CURVE SMOOTH",
"499 306 OFFCURVE",
"430 389 OFFCURVE",
"310 389 CURVE SMOOTH",
"268 389 OFFCURVE",
"219 365 OFFCURVE",
"199 340 CURVE",
"224 431 OFFCURVE",
"305 488 OFFCURVE",
"401 488 CURVE SMOOTH",
"506 488 OFFCURVE",
"590 417 OFFCURVE",
"590 282 CURVE SMOOTH",
"590 177 OFFCURVE",
"557 90 OFFCURVE",
"495 0 CURVE",
"660 0 LINE",
"712 85 OFFCURVE",
"738 185 OFFCURVE",
"738 282 CURVE SMOOTH",
"738 463 OFFCURVE",
"586 610 OFFCURVE",
"401 610 CURVE SMOOTH",
"186 610 OFFCURVE",
"50 436 OFFCURVE",
"50 263 CURVE SMOOTH",
"50 107 OFFCURVE",
"145 -10 OFFCURVE",
"283 -10 CURVE SMOOTH"
);
}
);
width = 2231;
},
{
components = (
{
name = mlE;
transform = "{1, 0, 0, 1, 712, 0}";
}
);
layerId = "9D6DA52E-CD68-4B8E-8511-A7BD80A00452";
name = Light;
paths = (
{
closed = 1;
nodes = (
"195 45 OFFCURVE",
"133 96 OFFCURVE",
"133 172 CURVE SMOOTH",
"133 248 OFFCURVE",
"188 301 OFFCURVE",
"258 301 CURVE SMOOTH",
"328 301 OFFCURVE",
"380 248 OFFCURVE",
"380 172 CURVE SMOOTH",
"380 96 OFFCURVE",
"332 45 OFFCURVE",
"261 45 CURVE SMOOTH"
);
},
{
closed = 1;
nodes = (
"374 -10 OFFCURVE",
"443 80 OFFCURVE",
"443 172 CURVE SMOOTH",
"443 282 OFFCURVE",
"362 358 OFFCURVE",
"258 358 CURVE SMOOTH",
"200 358 OFFCURVE",
"135 327 OFFCURVE",
"109 275 CURVE",
"133 445 OFFCURVE",
"245 524 OFFCURVE",
"357 524 CURVE SMOOTH",
"469 524 OFFCURVE",
"601 441 OFFCURVE",
"601 279 CURVE SMOOTH",
"601 166 OFFCURVE",
"566 92 OFFCURVE",
"515 0 CURVE",
"587 0 LINE",
"631 85 OFFCURVE",
"664 159 OFFCURVE",
"664 279 CURVE SMOOTH",
"664 436 OFFCURVE",
"539 580 OFFCURVE",
"357 580 CURVE SMOOTH",
"175 580 OFFCURVE",
"50 431 OFFCURVE",
"50 256 CURVE SMOOTH",
"50 99 OFFCURVE",
"144 -10 OFFCURVE",
"259 -10 CURVE SMOOTH"
);
}
);
width = 2030;
},
{
associatedMasterId = "8E067A2A-2289-4446-99CD-66E5BEE6C169";
guideLines = (
{
position = "{415, 278}";
}
);
layerId = "219960D3-8007-4161-93D5-E571C361DBBE";
name = "Bold Apr 13 15, 12:42";
paths = (
{
closed = 1;
nodes = (
"328 112 OFFCURVE",
"359 150 OFFCURVE",
"359 189 CURVE SMOOTH",
"359 231 OFFCURVE",
"328 267 OFFCURVE",
"283 267 CURVE SMOOTH",
"239 267 OFFCURVE",
"208 231 OFFCURVE",
"208 189 CURVE SMOOTH",
"208 150 OFFCURVE",
"239 112 OFFCURVE",
"283 112 CURVE SMOOTH"
);
},
{
closed = 1;
nodes = (
"1741 -93 OFFCURVE",
"1756 -75 OFFCURVE",
"1756 -55 CURVE SMOOTH",
"1756 0 LINE",
"1622 0 LINE",
"1647 -74 OFFCURVE",
"1686 -93 OFFCURVE",
"1720 -93 CURVE SMOOTH"
);
},
{
closed = 1;
nodes = (
"1461 121 LINE",
"1460 137 OFFCURVE",
"1459 154 OFFCURVE",
"1459 172 CURVE SMOOTH",
"1459 433 OFFCURVE",
"1604 610 OFFCURVE",
"1833 610 CURVE SMOOTH",
"2056 610 OFFCURVE",
"2204 444 OFFCURVE",
"2204 179 CURVE SMOOTH",
"2204 2 OFFCURVE",
"2156 -215 OFFCURVE",
"1942 -215 CURVE",
"1942 -80 LINE",
"2020 -80 OFFCURVE",
"2056 -14 OFFCURVE",
"2056 175 CURVE SMOOTH",
"2056 383 OFFCURVE",
"1973 488 OFFCURVE",
"1825 488 CURVE SMOOTH",
"1698 488 OFFCURVE",
"1607 361 OFFCURVE",
"1607 182 CURVE SMOOTH",
"1607 160 OFFCURVE",
"1608 140 OFFCURVE",
"1609 121 CURVE",
"1756 121 LINE",
"1756 403 LINE",
"1886 403 LINE",
"1886 -24 LINE SMOOTH",
"1886 -142 OFFCURVE",
"1826 -215 OFFCURVE",
"1720 -215 CURVE SMOOTH",
"1611 -215 OFFCURVE",
"1513 -135 OFFCURVE",
"1473 0 CURVE",
"1165 0 LINE",
"1165 117 LINE",
"1200 142 OFFCURVE",
"1227 181 OFFCURVE",
"1227 246 CURVE SMOOTH",
"1227 326 OFFCURVE",
"1174 373 OFFCURVE",
"1107 373 CURVE SMOOTH",
"1040 373 OFFCURVE",
"986 321 OFFCURVE",
"986 246 CURVE SMOOTH",
"986 173 OFFCURVE",
"1025 125 OFFCURVE",
"1078 125 CURVE SMOOTH",
"1086 125 OFFCURVE",
"1092 125 OFFCURVE",
"1099 126 CURVE",
"1099 -9 LINE",
"1092 -10 OFFCURVE",
"1086 -10 OFFCURVE",
"1078 -10 CURVE SMOOTH",
"942 -10 OFFCURVE",
"838 90 OFFCURVE",
"838 241 CURVE SMOOTH",
"838 395 OFFCURVE",
"962 495 OFFCURVE",
"1107 495 CURVE SMOOTH",
"1252 495 OFFCURVE",
"1375 395 OFFCURVE",
"1375 241 CURVE SMOOTH",
"1375 194 OFFCURVE",
"1352 147 OFFCURVE",
"1314 118 CURVE",
"1345 123 OFFCURVE",
"1368 122 OFFCURVE",
"1397 122 CURVE"
);
},
{
closed = 1;
nodes = (
"779 87 OFFCURVE",
"695 -10 OFFCURVE",
"549 -10 CURVE SMOOTH",
"541 -10 OFFCURVE",
"535 -10 OFFCURVE",
"528 -9 CURVE",
"528 126 LINE",
"535 125 OFFCURVE",
"541 125 OFFCURVE",
"549 125 CURVE SMOOTH",
"602 125 OFFCURVE",
"631 185 OFFCURVE",
"631 278 CURVE SMOOTH",
"631 406 OFFCURVE",
"531 487 OFFCURVE",
"425 487 CURVE SMOOTH",
"334 487 OFFCURVE",
"226 450 OFFCURVE",
"199 340 CURVE",
"219 365 OFFCURVE",
"268 389 OFFCURVE",
"310 389 CURVE SMOOTH",
"430 389 OFFCURVE",
"499 306 OFFCURVE",
"499 197 CURVE SMOOTH",
"499 86 OFFCURVE",
"415 -10 OFFCURVE",
"283 -10 CURVE SMOOTH",
"145 -10 OFFCURVE",
"50 95 OFFCURVE",
"50 263 CURVE SMOOTH",
"50 450 OFFCURVE",
"207 610 OFFCURVE",
"425 610 CURVE SMOOTH",
"635 610 OFFCURVE",
"779 463 OFFCURVE",
"779 278 CURVE SMOOTH"
);
}
);
width = 2255;
}
);
unicode = 0D10;
},
{
glyphname = mlO;
lastChange = "2015-07-03 10:43:56 +0000";
layers = (
{
guideLines = (
{
position = "{588.5, 176}";
}
);
layerId = "8E067A2A-2289-4446-99CD-66E5BEE6C169";
name = Bold;
paths = (
{
closed = 1;
nodes = (
"774 533 OFFCURVE",
"628 610 OFFCURVE",
"460 610 CURVE SMOOTH",
"203 610 OFFCURVE",
"50 473 OFFCURVE",
"50 240 CURVE SMOOTH",
"50 95 OFFCURVE",
"143 -10 OFFCURVE",
"280 -10 CURVE SMOOTH",
"396 -10 OFFCURVE",
"494 70 OFFCURVE",
"494 189 CURVE SMOOTH",
"494 306 OFFCURVE",
"410 389 OFFCURVE",
"303 389 CURVE SMOOTH",
"241 389 OFFCURVE",
"181 357 OFFCURVE",
"163 310 CURVE",
"185 299 LINE",
"203 430 OFFCURVE",
"297 490 OFFCURVE",
"462 490 CURVE SMOOTH",
"566 490 OFFCURVE",
"631 464 OFFCURVE",
"631 414 CURVE SMOOTH",
"631 377 OFFCURVE",
"612 355 OFFCURVE",
"575 355 CURVE SMOOTH",
"552 355 LINE",
"552 235 LINE",
"585 235 LINE SMOOTH",
"634 235 OFFCURVE",
"665 215 OFFCURVE",
"665 176 CURVE SMOOTH",
"665 138 OFFCURVE",
"635 117 OFFCURVE",
"596 117 CURVE SMOOTH",
"576 117 OFFCURVE",
"558 118 OFFCURVE",
"535 123 CURVE",
"535 -2 LINE",
"557 -8 OFFCURVE",
"590 -10 OFFCURVE",
"610 -10 CURVE SMOOTH",
"726 -10 OFFCURVE",
"806 65 OFFCURVE",
"806 168 CURVE SMOOTH",
"806 231 OFFCURVE",
"759 287 OFFCURVE",
"686 295 CURVE",
"746 310 OFFCURVE",
"774 356 OFFCURVE",
"774 414 CURVE SMOOTH"
);
},
{
closed = 1;
nodes = (
"234 112 OFFCURVE",
"203 150 OFFCURVE",
"203 189 CURVE SMOOTH",
"203 229 OFFCURVE",
"234 267 OFFCURVE",
"278 267 CURVE SMOOTH",
"323 267 OFFCURVE",
"354 229 OFFCURVE",
"354 189 CURVE SMOOTH",
"354 150 OFFCURVE",
"323 112 OFFCURVE",
"278 112 CURVE SMOOTH"
);
}
);
width = 861;
},
{
background = {
paths = (
{
closed = 1;
nodes = (
"676 -10 OFFCURVE",
"746 60 OFFCURVE",
"746 147 CURVE SMOOTH",
"746 234 OFFCURVE",
"676 304 OFFCURVE",
"589 304 CURVE SMOOTH",
"502 304 OFFCURVE",
"432 234 OFFCURVE",
"432 147 CURVE SMOOTH",
"432 60 OFFCURVE",
"502 -10 OFFCURVE",
"589 -10 CURVE SMOOTH"
);
}
);
};
layerId = "9D6DA52E-CD68-4B8E-8511-A7BD80A00452";
name = Light;
paths = (
{
closed = 1;
nodes = (
"714 501 OFFCURVE",
"614 580 OFFCURVE",
"435 580 CURVE SMOOTH",
"210 580 OFFCURVE",
"50 422 OFFCURVE",
"50 220 CURVE SMOOTH",
"50 95 OFFCURVE",
"116 -10 OFFCURVE",
"243 -10 CURVE SMOOTH",
"349 -10 OFFCURVE",
"434 70 OFFCURVE",
"434 169 CURVE SMOOTH",
"434 276 OFFCURVE",
"360 359 OFFCURVE",
"253 359 CURVE SMOOTH",
"196 359 OFFCURVE",
"139 327 OFFCURVE",
"113 279 CURVE",
"119 275 LINE",
"144 431 OFFCURVE",
"275 523 OFFCURVE",
"437 523 CURVE SMOOTH",
"582 523 OFFCURVE",
"649 474 OFFCURVE",
"649 398 CURVE SMOOTH",
"649 351 OFFCURVE",
"627 305 OFFCURVE",
"568 305 CURVE SMOOTH",
"538 305 LINE",
"538 245 LINE",
"571 245 LINE SMOOTH",
"631 245 OFFCURVE",
"681 217 OFFCURVE",
"681 148 CURVE SMOOTH",
"681 93 OFFCURVE",
"640 47 OFFCURVE",
"573 47 CURVE SMOOTH",
"550 47 OFFCURVE",
"528 50 OFFCURVE",
"505 55 CURVE",
"505 -2 LINE",
"528 -7 OFFCURVE",
"550 -10 OFFCURVE",
"573 -10 CURVE SMOOTH",
"684 -10 OFFCURVE",
"746 64 OFFCURVE",
"746 149 CURVE SMOOTH",
"746 217 OFFCURVE",
"707 264 OFFCURVE",
"642 278 CURVE",
"690 301 OFFCURVE",
"714 349 OFFCURVE",
"714 398 CURVE SMOOTH"
);
},
{
closed = 1;
nodes = (
"175 48 OFFCURVE",
"118 105 OFFCURVE",
"118 174 CURVE SMOOTH",
"118 243 OFFCURVE",
"176 302 OFFCURVE",
"243 302 CURVE SMOOTH",
"320 302 OFFCURVE",
"369 243 OFFCURVE",
"369 174 CURVE SMOOTH",
"369 105 OFFCURVE",
"320 48 OFFCURVE",
"243 48 CURVE SMOOTH"
);
}
);
width = 796;
},
{
associatedMasterId = "8E067A2A-2289-4446-99CD-66E5BEE6C169";
guideLines = (
{
position = "{503, 315}";
}
);
layerId = "591F7242-0D96-4CF6-A1C7-0FDC3754A43A";
name = "Bold May 4 15, 16:50";
paths = (
{
closed = 1;
nodes = (
"774 533 OFFCURVE",
"628 610 OFFCURVE",
"460 610 CURVE SMOOTH",
"203 610 OFFCURVE",
"50 473 OFFCURVE",
"50 240 CURVE SMOOTH",
"50 95 OFFCURVE",
"143 -10 OFFCURVE",
"280 -10 CURVE SMOOTH",
"396 -10 OFFCURVE",
"494 70 OFFCURVE",
"494 189 CURVE SMOOTH",
"494 306 OFFCURVE",
"410 389 OFFCURVE",
"303 389 CURVE SMOOTH",
"265 389 OFFCURVE",
"217 375 OFFCURVE",
"195 355 CURVE",
"227 438 OFFCURVE",
"317 490 OFFCURVE",
"462 490 CURVE SMOOTH",
"556 490 OFFCURVE",
"631 464 OFFCURVE",
"631 414 CURVE SMOOTH",
"631 377 OFFCURVE",
"611 355 OFFCURVE",
"571 355 CURVE SMOOTH",
"538 355 LINE",
"538 235 LINE",
"571 235 LINE SMOOTH",
"631 235 OFFCURVE",
"665 215 OFFCURVE",
"665 176 CURVE SMOOTH",
"665 138 OFFCURVE",
"641 114 OFFCURVE",
"602 114 CURVE SMOOTH",
"582 114 OFFCURVE",
"559 117 OFFCURVE",
"541 122 CURVE",
"541 0 LINE",
"564 -7 OFFCURVE",
"598 -13 OFFCURVE",
"631 -13 CURVE SMOOTH",
"735 -13 OFFCURVE",
"806 71 OFFCURVE",
"806 165 CURVE SMOOTH",
"806 228 OFFCURVE",
"767 281 OFFCURVE",
"686 295 CURVE",
"740 300 OFFCURVE",
"774 355 OFFCURVE",
"774 414 CURVE SMOOTH"
);
},
{
closed = 1;
nodes = (
"234 112 OFFCURVE",
"203 150 OFFCURVE",
"203 189 CURVE SMOOTH",
"203 229 OFFCURVE",
"234 267 OFFCURVE",
"278 267 CURVE SMOOTH",
"323 267 OFFCURVE",
"354 229 OFFCURVE",
"354 189 CURVE SMOOTH",
"354 150 OFFCURVE",
"323 112 OFFCURVE",
"278 112 CURVE SMOOTH"
);
}
);
width = 861;
}
);
unicode = 0D12;
},
{
glyphname = mlOO;
lastChange = "2015-07-03 10:43:56 +0000";
layers = (
{
components = (
{
name = mlmAA;
transform = "{1, 0, 0, 1, 837, 0}";
}
);
layerId = "8E067A2A-2289-4446-99CD-66E5BEE6C169";
name = Bold;
paths = (
{
closed = 1;
nodes = (
"774 533 OFFCURVE",
"628 610 OFFCURVE",
"460 610 CURVE SMOOTH",
"203 610 OFFCURVE",
"50 473 OFFCURVE",
"50 240 CURVE SMOOTH",
"50 95 OFFCURVE",
"143 -10 OFFCURVE",
"280 -10 CURVE SMOOTH",
"396 -10 OFFCURVE",
"494 70 OFFCURVE",
"494 189 CURVE SMOOTH",
"494 306 OFFCURVE",
"410 389 OFFCURVE",
"303 389 CURVE SMOOTH",
"241 389 OFFCURVE",
"181 357 OFFCURVE",
"163 310 CURVE",
"185 299 LINE",
"203 430 OFFCURVE",
"297 490 OFFCURVE",
"462 490 CURVE SMOOTH",
"566 490 OFFCURVE",
"631 464 OFFCURVE",
"631 414 CURVE SMOOTH",
"631 377 OFFCURVE",
"612 355 OFFCURVE",
"575 355 CURVE SMOOTH",
"552 355 LINE",
"552 235 LINE",
"585 235 LINE SMOOTH",
"634 235 OFFCURVE",
"665 215 OFFCURVE",
"665 176 CURVE SMOOTH",
"665 138 OFFCURVE",
"635 117 OFFCURVE",
"596 117 CURVE SMOOTH",
"576 117 OFFCURVE",
"558 118 OFFCURVE",
"535 123 CURVE",
"535 -2 LINE",
"557 -8 OFFCURVE",
"590 -10 OFFCURVE",
"610 -10 CURVE SMOOTH",
"726 -10 OFFCURVE",
"806 65 OFFCURVE",
"806 168 CURVE SMOOTH",
"806 231 OFFCURVE",
"759 287 OFFCURVE",
"686 295 CURVE",
"746 310 OFFCURVE",
"774 356 OFFCURVE",
"774 414 CURVE SMOOTH"
);
},
{
closed = 1;
nodes = (
"234 112 OFFCURVE",
"203 150 OFFCURVE",
"203 189 CURVE SMOOTH",
"203 229 OFFCURVE",
"234 267 OFFCURVE",
"278 267 CURVE SMOOTH",
"323 267 OFFCURVE",
"354 229 OFFCURVE",
"354 189 CURVE SMOOTH",
"354 150 OFFCURVE",
"323 112 OFFCURVE",
"278 112 CURVE SMOOTH"
);
}
);
width = 1330;
},
{
components = (
{
name = mlmAA;
transform = "{1, 0, 0, 1, 787, 0}";
}
);
guideLines = (
{
angle = 90;
position = "{975, 412}";
},
{
position = "{975, 285}";
},
{
angle = 90;
position = "{1108, 285}";
}
);
layerId = "9D6DA52E-CD68-4B8E-8511-A7BD80A00452";
name = Light;
paths = (
{
closed = 1;
nodes = (
"714 501 OFFCURVE",
"614 580 OFFCURVE",
"435 580 CURVE SMOOTH",
"210 580 OFFCURVE",
"50 422 OFFCURVE",
"50 220 CURVE SMOOTH",
"50 95 OFFCURVE",
"116 -10 OFFCURVE",
"243 -10 CURVE SMOOTH",
"349 -10 OFFCURVE",
"434 70 OFFCURVE",
"434 169 CURVE SMOOTH",
"434 276 OFFCURVE",
"360 359 OFFCURVE",
"253 359 CURVE SMOOTH",
"196 359 OFFCURVE",
"139 327 OFFCURVE",
"113 279 CURVE",
"119 275 LINE",
"144 431 OFFCURVE",
"275 523 OFFCURVE",
"437 523 CURVE SMOOTH",
"582 523 OFFCURVE",
"649 474 OFFCURVE",
"649 398 CURVE SMOOTH",
"649 351 OFFCURVE",
"627 305 OFFCURVE",
"568 305 CURVE SMOOTH",
"538 305 LINE",
"538 245 LINE",
"571 245 LINE SMOOTH",
"631 245 OFFCURVE",
"681 217 OFFCURVE",
"681 148 CURVE SMOOTH",
"681 93 OFFCURVE",
"640 47 OFFCURVE",
"573 47 CURVE SMOOTH",
"550 47 OFFCURVE",
"528 50 OFFCURVE",
"505 55 CURVE",
"505 -2 LINE",
"528 -7 OFFCURVE",
"550 -10 OFFCURVE",
"573 -10 CURVE SMOOTH",
"684 -10 OFFCURVE",
"746 64 OFFCURVE",
"746 149 CURVE SMOOTH",
"746 217 OFFCURVE",
"707 264 OFFCURVE",
"642 278 CURVE",
"690 301 OFFCURVE",
"714 349 OFFCURVE",
"714 398 CURVE SMOOTH"
);
},
{
closed = 1;
nodes = (
"175 48 OFFCURVE",
"118 105 OFFCURVE",
"118 174 CURVE SMOOTH",
"118 243 OFFCURVE",
"176 302 OFFCURVE",
"243 302 CURVE SMOOTH",
"320 302 OFFCURVE",
"369 243 OFFCURVE",
"369 174 CURVE SMOOTH",
"369 105 OFFCURVE",
"320 48 OFFCURVE",
"243 48 CURVE SMOOTH"
);
}
);
width = 1258;
}
);
unicode = 0D13;
},
{
glyphname = mlAU;
lastChange = "2015-07-03 10:43:56 +0000";
layers = (
{
layerId = "9D6DA52E-CD68-4B8E-8511-A7BD80A00452";
name = Light;
paths = (
{
closed = 1;
nodes = (
"1434 20 OFFCURVE",
"1542 151 OFFCURVE",
"1542 327 CURVE SMOOTH",
"1542 476 OFFCURVE",
"1459 580 OFFCURVE",
"1334 580 CURVE SMOOTH",
"1258 580 OFFCURVE",
"1209 537 OFFCURVE",
"1184 485 CURVE",
"1157 537 OFFCURVE",
"1102 580 OFFCURVE",
"1028 580 CURVE SMOOTH",
"927 580 OFFCURVE",
"842 501 OFFCURVE",
"842 377 CURVE SMOOTH",
"842 345 OFFCURVE",
"850 305 OFFCURVE",
"864 277 CURVE",
"929 277 LINE",
"916 309 OFFCURVE",
"905 340 OFFCURVE",
"905 378 CURVE SMOOTH",
"905 476 OFFCURVE",
"966 523 OFFCURVE",
"1025 523 CURVE SMOOTH",
"1088 523 OFFCURVE",
"1153 477 OFFCURVE",
"1153 386 CURVE SMOOTH",
"1153 334 LINE",
"1217 334 LINE",
"1217 386 LINE SMOOTH",
"1217 463 OFFCURVE",
"1271 523 OFFCURVE",
"1337 523 CURVE SMOOTH",
"1417 523 OFFCURVE",
"1477 464 OFFCURVE",
"1477 327 CURVE SMOOTH",
"1477 194 OFFCURVE",
"1400 79 OFFCURVE",
"1270 79 CURVE SMOOTH",
"1236 79 OFFCURVE",
"1200 87 OFFCURVE",
"1172 95 CURVE",
"1172 37 LINE",
"1202 26 OFFCURVE",
"1238 20 OFFCURVE",
"1271 20 CURVE SMOOTH"
);
},
{
closed = 1;
nodes = (
"714 501 OFFCURVE",
"614 580 OFFCURVE",
"435 580 CURVE SMOOTH",
"210 580 OFFCURVE",
"50 422 OFFCURVE",
"50 220 CURVE SMOOTH",
"50 95 OFFCURVE",
"116 -10 OFFCURVE",
"243 -10 CURVE SMOOTH",
"349 -10 OFFCURVE",
"434 70 OFFCURVE",
"434 169 CURVE SMOOTH",
"434 276 OFFCURVE",
"360 359 OFFCURVE",
"253 359 CURVE SMOOTH",
"196 359 OFFCURVE",
"139 327 OFFCURVE",
"113 279 CURVE",
"119 275 LINE",
"144 431 OFFCURVE",
"275 523 OFFCURVE",
"437 523 CURVE SMOOTH",
"582 523 OFFCURVE",
"649 474 OFFCURVE",
"649 398 CURVE SMOOTH",
"649 351 OFFCURVE",
"627 305 OFFCURVE",
"568 305 CURVE SMOOTH",
"538 305 LINE",
"538 245 LINE",
"571 245 LINE SMOOTH",
"631 245 OFFCURVE",
"681 217 OFFCURVE",
"681 148 CURVE SMOOTH",
"681 93 OFFCURVE",
"640 47 OFFCURVE",
"573 47 CURVE SMOOTH",
"550 47 OFFCURVE",
"528 50 OFFCURVE",
"505 55 CURVE",
"505 -2 LINE",
"528 -7 OFFCURVE",
"550 -10 OFFCURVE",
"573 -10 CURVE SMOOTH",
"684 -10 OFFCURVE",
"746 64 OFFCURVE",
"746 149 CURVE SMOOTH",
"746 217 OFFCURVE",
"707 264 OFFCURVE",
"642 278 CURVE",
"690 301 OFFCURVE",
"714 349 OFFCURVE",
"714 398 CURVE SMOOTH"
);
},
{
closed = 1;
nodes = (
"175 48 OFFCURVE",
"118 105 OFFCURVE",
"118 174 CURVE SMOOTH",
"118 243 OFFCURVE",
"176 302 OFFCURVE",
"243 302 CURVE SMOOTH",
"320 302 OFFCURVE",
"369 243 OFFCURVE",
"369 174 CURVE SMOOTH",
"369 105 OFFCURVE",
"320 48 OFFCURVE",
"243 48 CURVE SMOOTH"
);
}
);
width = 1597;
},
{
associatedMasterId = "8E067A2A-2289-4446-99CD-66E5BEE6C169";
layerId = "4403683B-3587-4368-A47C-71F88EF77C1A";
name = "Bold Apr 21 15, 12:49";
paths = (
{
closed = 1;
nodes = (
"867 468 LINE",
"910 482 OFFCURVE",
"944 488 OFFCURVE",
"995 488 CURVE SMOOTH",
"1088 488 OFFCURVE",
"1144 425 OFFCURVE",
"1144 303 CURVE SMOOTH",
"1144 182 OFFCURVE",
"1097 112 OFFCURVE",
"995 112 CURVE SMOOTH",
"951 112 OFFCURVE",
"908 118 OFFCURVE",
"867 136 CURVE",
"867 6 LINE",
"903 -5 OFFCURVE",
"945 -10 OFFCURVE",
"995 -10 CURVE SMOOTH",
"1147 -10 OFFCURVE",
"1292 100 OFFCURVE",
"1292 303 CURVE SMOOTH",
"1292 501 OFFCURVE",
"1147 610 OFFCURVE",
"995 610 CURVE SMOOTH",
"945 610 OFFCURVE",
"907 607 OFFCURVE",
"867 598 CURVE"
);
},
{
closed = 1;
nodes = (
"774 533 OFFCURVE",
"638 610 OFFCURVE",
"470 610 CURVE SMOOTH",
"223 610 OFFCURVE",
"65 448 OFFCURVE",
"65 235 CURVE SMOOTH",
"65 93 OFFCURVE",
"156 -10 OFFCURVE",
"290 -10 CURVE SMOOTH",
"403 -10 OFFCURVE",
"499 69 OFFCURVE",
"499 185 CURVE SMOOTH",
"499 299 OFFCURVE",
"418 381 OFFCURVE",
"313 381 CURVE SMOOTH",
"275 381 OFFCURVE",
"240 366 OFFCURVE",
"217 338 CURVE",
"249 423 OFFCURVE",
"327 490 OFFCURVE",
"472 490 CURVE SMOOTH",
"576 490 OFFCURVE",
"631 461 OFFCURVE",
"631 414 CURVE SMOOTH",
"631 377 OFFCURVE",
"611 355 OFFCURVE",
"571 355 CURVE SMOOTH",
"538 355 LINE",
"538 235 LINE",
"571 235 LINE SMOOTH",
"631 235 OFFCURVE",
"665 215 OFFCURVE",
"665 176 CURVE SMOOTH",
"665 138 OFFCURVE",
"641 114 OFFCURVE",
"602 114 CURVE SMOOTH",
"582 114 OFFCURVE",
"559 117 OFFCURVE",
"541 122 CURVE",
"541 0 LINE",
"564 -7 OFFCURVE",
"598 -13 OFFCURVE",
"631 -13 CURVE SMOOTH",
"735 -13 OFFCURVE",
"806 71 OFFCURVE",
"806 165 CURVE SMOOTH",
"806 228 OFFCURVE",
"767 283 OFFCURVE",
"686 295 CURVE",
"743 305 OFFCURVE",
"774 355 OFFCURVE",
"774 414 CURVE SMOOTH"
);
},
{
closed = 1;
nodes = (
"246 112 OFFCURVE",
"218 144 OFFCURVE",
"218 185 CURVE SMOOTH",
"218 227 OFFCURVE",
"246 259 OFFCURVE",
"288 259 CURVE SMOOTH",
"330 259 OFFCURVE",
"360 227 OFFCURVE",
"360 185 CURVE SMOOTH",
"360 144 OFFCURVE",
"330 112 OFFCURVE",
"288 112 CURVE SMOOTH"
);
}
);
width = 1347;
},
{
layerId = "8E067A2A-2289-4446-99CD-66E5BEE6C169";
name = Bold;
paths = (
{
closed = 1;
nodes = (
"1478 -10 OFFCURVE",
"1605 132 OFFCURVE",
"1605 338 CURVE SMOOTH",
"1605 486 OFFCURVE",
"1535 610 OFFCURVE",
"1377 610 CURVE SMOOTH",
"1301 610 OFFCURVE",
"1241 563 OFFCURVE",
"1220 515 CURVE",
"1193 563 OFFCURVE",
"1136 610 OFFCURVE",
"1052 610 CURVE SMOOTH",
"911 610 OFFCURVE",
"842 497 OFFCURVE",
"842 381 CURVE SMOOTH",
"842 349 OFFCURVE",
"850 305 OFFCURVE",
"864 277 CURVE",
"1009 277 LINE",
"996 309 OFFCURVE",
"985 344 OFFCURVE",
"985 382 CURVE SMOOTH",
"985 440 OFFCURVE",
"1011 488 OFFCURVE",
"1064 488 CURVE SMOOTH",
"1116 488 OFFCURVE",
"1143 453 OFFCURVE",
"1143 386 CURVE SMOOTH",
"1143 304 LINE",
"1289 304 LINE",
"1289 396 LINE SMOOTH",
"1289 457 OFFCURVE",
"1318 488 OFFCURVE",
"1364 488 CURVE SMOOTH",
"1424 488 OFFCURVE",
"1457 434 OFFCURVE",
"1457 324 CURVE SMOOTH",
"1457 183 OFFCURVE",
"1381 125 OFFCURVE",
"1280 125 CURVE SMOOTH",
"1241 125 OFFCURVE",
"1204 132 OFFCURVE",
"1182 138 CURVE",
"1182 7 LINE",
"1212 -4 OFFCURVE",
"1253 -10 OFFCURVE",
"1286 -10 CURVE SMOOTH"
);
},
{
closed = 1;
nodes = (
"774 533 OFFCURVE",
"628 610 OFFCURVE",
"460 610 CURVE SMOOTH",
"203 610 OFFCURVE",
"50 473 OFFCURVE",
"50 240 CURVE SMOOTH",
"50 95 OFFCURVE",
"143 -10 OFFCURVE",
"280 -10 CURVE SMOOTH",
"396 -10 OFFCURVE",
"494 70 OFFCURVE",
"494 189 CURVE SMOOTH",
"494 306 OFFCURVE",
"410 389 OFFCURVE",
"303 389 CURVE SMOOTH",
"241 389 OFFCURVE",
"181 357 OFFCURVE",
"163 310 CURVE",
"185 299 LINE",
"203 430 OFFCURVE",
"297 490 OFFCURVE",
"462 490 CURVE SMOOTH",
"566 490 OFFCURVE",
"631 464 OFFCURVE",
"631 414 CURVE SMOOTH",
"631 377 OFFCURVE",
"612 355 OFFCURVE",
"575 355 CURVE SMOOTH",
"552 355 LINE",
"552 235 LINE",
"585 235 LINE SMOOTH",
"634 235 OFFCURVE",
"665 215 OFFCURVE",
"665 176 CURVE SMOOTH",
"665 138 OFFCURVE",
"635 117 OFFCURVE",
"596 117 CURVE SMOOTH",
"576 117 OFFCURVE",
"558 118 OFFCURVE",
"535 123 CURVE",
"535 -2 LINE",
"557 -8 OFFCURVE",
"590 -10 OFFCURVE",
"610 -10 CURVE SMOOTH",
"726 -10 OFFCURVE",
"806 65 OFFCURVE",
"806 168 CURVE SMOOTH",
"806 231 OFFCURVE",
"759 287 OFFCURVE",
"686 295 CURVE",
"746 310 OFFCURVE",
"774 356 OFFCURVE",
"774 414 CURVE SMOOTH"
);
},
{
closed = 1;
nodes = (
"234 112 OFFCURVE",
"203 150 OFFCURVE",
"203 189 CURVE SMOOTH",
"203 229 OFFCURVE",
"234 267 OFFCURVE",
"278 267 CURVE SMOOTH",
"323 267 OFFCURVE",
"354 229 OFFCURVE",
"354 189 CURVE SMOOTH",
"354 150 OFFCURVE",
"323 112 OFFCURVE",
"278 112 CURVE SMOOTH"
);
}
);
width = 1650;
}
);
unicode = 0D14;
},
{
glyphname = mlKA;
lastChange = "2015-07-03 10:43:56 +0000";
layers = (
{
guideLines = (
{
angle = 180;
locked = 1;
position = "{801, -10}";
}
);
layerId = "8E067A2A-2289-4446-99CD-66E5BEE6C169";
name = Bold;
paths = (
{
closed = 1;
nodes = (
"342 -10 OFFCURVE",
"394 43 OFFCURVE",
"412 101 CURVE",
"333 192 LINE",
"340 138 OFFCURVE",
"302 104 OFFCURVE",
"263 104 CURVE SMOOTH",
"218 104 OFFCURVE",
"188 135 OFFCURVE",
"188 185 CURVE SMOOTH",
"188 241 OFFCURVE",
"232 264 OFFCURVE",
"293 264 CURVE SMOOTH",
"828 263 LINE SMOOTH",
"904 263 OFFCURVE",
"945 239 OFFCURVE",
"945 185 CURVE SMOOTH",
"945 138 OFFCURVE",
"914 118 OFFCURVE",
"866 118 CURVE",
"866 -8 LINE",
"877 -9 OFFCURVE",
"887 -9 OFFCURVE",
"897 -9 CURVE SMOOTH",
"1001 -9 OFFCURVE",
"1083 64 OFFCURVE",
"1083 185 CURVE SMOOTH",
"1083 314 OFFCURVE",
"972 377 OFFCURVE",
"824 377 CURVE SMOOTH",
"283 377 LINE",
"145 377 OFFCURVE",
"50 306 OFFCURVE",
"50 185 CURVE SMOOTH",
"50 67 OFFCURVE",
"143 -10 OFFCURVE",
"254 -10 CURVE SMOOTH"
);
},
{
closed = 1;
nodes = (
"729 -10 OFFCURVE",
"831 119 OFFCURVE",
"831 300 CURVE SMOOTH",
"831 495 OFFCURVE",
"719 610 OFFCURVE",
"575 610 CURVE SMOOTH",
"429 610 OFFCURVE",
"320 497 OFFCURVE",
"320 300 CURVE SMOOTH",
"320 119 OFFCURVE",
"419 -10 OFFCURVE",
"575 -10 CURVE SMOOTH"
);
},
{
closed = 1;
nodes = (
"505 103 OFFCURVE",
"458 166 OFFCURVE",
"458 300 CURVE SMOOTH",
"458 439 OFFCURVE",
"505 497 OFFCURVE",
"575 497 CURVE SMOOTH",
"646 497 OFFCURVE",
"693 437 OFFCURVE",
"693 300 CURVE SMOOTH",
"693 166 OFFCURVE",
"646 103 OFFCURVE",
"575 103 CURVE SMOOTH"
);
}
);
width = 1133;
},
{
associatedMasterId = "8E067A2A-2289-4446-99CD-66E5BEE6C169";
guideLines = (
{
angle = 180;
locked = 1;
position = "{802, -10}";
}
);
layerId = "5BD9B7E5-8EBE-4CA9-992D-C135B8F378AC";
name = "Bold Mar 21 15, 19:12";
paths = (
{
closed = 1;
nodes = (
"643 489 OFFCURVE",
"690 437 OFFCURVE",
"690 300 CURVE SMOOTH",
"690 166 OFFCURVE",
"643 111 OFFCURVE",
"579 111 CURVE SMOOTH",
"515 111 OFFCURVE",
"468 166 OFFCURVE",
"468 300 CURVE SMOOTH",
"468 439 OFFCURVE",
"515 489 OFFCURVE",
"579 489 CURVE SMOOTH"
);
},
{
closed = 1;
nodes = (
"733 -10 OFFCURVE",
"838 118 OFFCURVE",
"838 300 CURVE SMOOTH",
"838 497 OFFCURVE",
"723 610 OFFCURVE",
"579 610 CURVE SMOOTH",
"433 610 OFFCURVE",
"320 499 OFFCURVE",
"320 300 CURVE SMOOTH",
"320 118 OFFCURVE",
"423 -10 OFFCURVE",
"579 -10 CURVE SMOOTH"
);
},
{
closed = 1;
nodes = (
"351 150 OFFCURVE",
"309 112 OFFCURVE",
"273 112 CURVE SMOOTH",
"231 112 OFFCURVE",
"198 141 OFFCURVE",
"198 186 CURVE SMOOTH",
"198 237 OFFCURVE",
"238 260 OFFCURVE",
"296 260 CURVE SMOOTH",
"835 259 LINE SMOOTH",
"903 259 OFFCURVE",
"942 237 OFFCURVE",
"942 186 CURVE SMOOTH",
"942 141 OFFCURVE",
"918 119 OFFCURVE",
"873 119 CURVE",
"873 -8 LINE",
"884 -9 OFFCURVE",
"894 -9 OFFCURVE",
"904 -9 CURVE SMOOTH",
"1008 -9 OFFCURVE",
"1090 64 OFFCURVE",
"1090 186 CURVE SMOOTH",
"1090 317 OFFCURVE",
"978 381 OFFCURVE",
"839 381 CURVE SMOOTH",
"284 381 LINE",
"145 381 OFFCURVE",
"50 308 OFFCURVE",
"50 186 CURVE SMOOTH",
"50 68 OFFCURVE",
"144 -10 OFFCURVE",
"257 -10 CURVE SMOOTH",
"336 -10 OFFCURVE",
"398 42 OFFCURVE",
"416 101 CURVE",
"351 179 LINE"
);
}
);
width = 1140;
},
{
guideLines = (
{
angle = 90;
position = "{549, 300}";
}
);
layerId = "9D6DA52E-CD68-4B8E-8511-A7BD80A00452";
name = Light;
paths = (
{
closed = 1;
nodes = (
"315 -10 OFFCURVE",
"368 47 OFFCURVE",
"384 101 CURVE",
"342 147 LINE",
"335 93 OFFCURVE",
"291 47 OFFCURVE",
"231 47 CURVE SMOOTH",
"169 47 OFFCURVE",
"115 94 OFFCURVE",
"115 176 CURVE SMOOTH",
"115 266 OFFCURVE",
"186 296 OFFCURVE",
"275 296 CURVE SMOOTH",
"785 295 LINE SMOOTH",
"913 295 OFFCURVE",
"965 251 OFFCURVE",
"965 176 CURVE SMOOTH",
"965 99 OFFCURVE",
"918 52 OFFCURVE",
"813 52 CURVE",
"813 -8 LINE",
"824 -9 OFFCURVE",
"834 -9 OFFCURVE",
"844 -9 CURVE SMOOTH",
"948 -9 OFFCURVE",
"1030 62 OFFCURVE",
"1030 176 CURVE SMOOTH",
"1030 290 OFFCURVE",
"933 351 OFFCURVE",
"789 351 CURVE SMOOTH",
"275 351 LINE",
"143 351 OFFCURVE",
"50 291 OFFCURVE",
"50 176 CURVE SMOOTH",
"50 61 OFFCURVE",
"134 -10 OFFCURVE",
"231 -10 CURVE SMOOTH"
);
},
{
closed = 1;
nodes = (
"704 -10 OFFCURVE",
"778 108 OFFCURVE",
"778 280 CURVE SMOOTH",
"778 467 OFFCURVE",
"694 580 OFFCURVE",
"550 580 CURVE SMOOTH",
"404 580 OFFCURVE",
"320 469 OFFCURVE",
"320 280 CURVE SMOOTH",
"320 108 OFFCURVE",
"394 -10 OFFCURVE",
"550 -10 CURVE SMOOTH"
);
},
{
closed = 1;
nodes = (
"430 45 OFFCURVE",
"385 146 OFFCURVE",
"385 280 CURVE SMOOTH",
"385 419 OFFCURVE",
"430 525 OFFCURVE",
"550 525 CURVE SMOOTH",
"670 525 OFFCURVE",
"713 417 OFFCURVE",
"713 280 CURVE SMOOTH",
"713 146 OFFCURVE",
"670 45 OFFCURVE",
"550 45 CURVE SMOOTH"
);
}
);
width = 1080;
},
{
associatedMasterId = "9D6DA52E-CD68-4B8E-8511-A7BD80A00452";
guideLines = (
{
angle = 90;
position = "{554, 300}";
}
);
layerId = "9EC3ABD7-A7AD-4432-9D7D-D06B0A379728";
name = "Light May 4 15, 17:15";
paths = (
{
closed = 1;
nodes = (
"310 -10 OFFCURVE",
"369 24 OFFCURVE",
"405 83 CURVE",
"368 125 LINE",
"344 81 OFFCURVE",
"301 47 OFFCURVE",
"246 47 CURVE SMOOTH",
"174 47 OFFCURVE",
"120 94 OFFCURVE",
"120 176 CURVE SMOOTH",
"120 266 OFFCURVE",
"191 296 OFFCURVE",
"280 296 CURVE SMOOTH",
"790 295 LINE SMOOTH",
"918 295 OFFCURVE",
"970 251 OFFCURVE",
"970 176 CURVE SMOOTH",
"970 99 OFFCURVE",
"923 52 OFFCURVE",
"818 52 CURVE",
"818 -8 LINE",
"829 -9 OFFCURVE",
"839 -9 OFFCURVE",
"849 -9 CURVE SMOOTH",
"953 -9 OFFCURVE",
"1035 62 OFFCURVE",
"1035 176 CURVE SMOOTH",
"1035 290 OFFCURVE",
"938 351 OFFCURVE",
"794 351 CURVE SMOOTH",
"280 351 LINE",
"148 351 OFFCURVE",
"55 291 OFFCURVE",
"55 176 CURVE SMOOTH",
"55 61 OFFCURVE",
"139 -10 OFFCURVE",
"246 -10 CURVE SMOOTH"
);
},
{
closed = 1;
nodes = (
"709 -10 OFFCURVE",
"783 108 OFFCURVE",
"783 280 CURVE SMOOTH",
"783 467 OFFCURVE",
"699 580 OFFCURVE",
"555 580 CURVE SMOOTH",
"409 580 OFFCURVE",
"325 469 OFFCURVE",
"325 280 CURVE SMOOTH",
"325 108 OFFCURVE",
"399 -10 OFFCURVE",
"555 -10 CURVE SMOOTH"
);
},
{
closed = 1;
nodes = (
"435 45 OFFCURVE",
"390 146 OFFCURVE",
"390 280 CURVE SMOOTH",
"390 419 OFFCURVE",
"435 525 OFFCURVE",
"555 525 CURVE SMOOTH",
"675 525 OFFCURVE",
"718 417 OFFCURVE",
"718 280 CURVE SMOOTH",
"718 146 OFFCURVE",
"675 45 OFFCURVE",
"555 45 CURVE SMOOTH"
);
}
);
width = 1090;
}
);
unicode = 0D15;
},
{
glyphname = mlKHA;
lastChange = "2015-07-03 10:43:56 +0000";
layers = (
{
guideLines = (
{
angle = 90;
position = "{322, 272}";
}
);
layerId = "8E067A2A-2289-4446-99CD-66E5BEE6C169";
name = Bold;
paths = (
{
closed = 1;
nodes = (
"532 488 OFFCURVE",
"613 398 OFFCURVE",
"613 280 CURVE SMOOTH",
"613 186 OFFCURVE",
"559 136 OFFCURVE",
"534 117 CURVE",
"534 0 LINE",
"1010 0 LINE",
"1010 600 LINE",
"864 600 LINE",
"864 122 LINE",
"709 122 LINE",
"734 158 OFFCURVE",
"758 219 OFFCURVE",
"758 282 CURVE SMOOTH",
"758 473 OFFCURVE",
"621 610 OFFCURVE",
"408 610 CURVE SMOOTH",
"204 610 OFFCURVE",
"50 440 OFFCURVE",
"50 263 CURVE SMOOTH",
"50 95 OFFCURVE",
"145 -10 OFFCURVE",
"283 -10 CURVE SMOOTH",
"415 -10 OFFCURVE",
"499 86 OFFCURVE",
"499 197 CURVE SMOOTH",
"499 306 OFFCURVE",
"422 389 OFFCURVE",
"310 389 CURVE SMOOTH",
"268 389 OFFCURVE",
"225 371 OFFCURVE",
"199 340 CURVE",
"231 432 OFFCURVE",
"311 488 OFFCURVE",
"408 488 CURVE SMOOTH"
);
},
{
closed = 1;
nodes = (
"239 112 OFFCURVE",
"208 150 OFFCURVE",
"208 189 CURVE SMOOTH",
"208 231 OFFCURVE",
"239 267 OFFCURVE",
"283 267 CURVE SMOOTH",
"328 267 OFFCURVE",
"359 231 OFFCURVE",
"359 189 CURVE SMOOTH",
"359 150 OFFCURVE",
"328 112 OFFCURVE",
"283 112 CURVE SMOOTH"
);
}
);
width = 1080;
},
{
associatedMasterId = "8E067A2A-2289-4446-99CD-66E5BEE6C169";
guideLines = (
{
angle = 90;
position = "{311.5, 271.5}";
}
);
layerId = "A986B696-F15E-4352-BD57-7B83BCC7231C";
name = "Bold Mar 20 15, 13:55";
paths = (
{
closed = 1;
nodes = (
"503 487 OFFCURVE",
"583 398 OFFCURVE",
"583 280 CURVE SMOOTH",
"583 186 OFFCURVE",
"529 136 OFFCURVE",
"504 117 CURVE",
"504 0 LINE",
"980 0 LINE",
"980 600 LINE",
"834 600 LINE",
"834 122 LINE",
"679 122 LINE",
"704 158 OFFCURVE",
"728 219 OFFCURVE",
"728 282 CURVE SMOOTH",
"728 473 OFFCURVE",
"596 609 OFFCURVE",
"386 609 CURVE SMOOTH",
"182 609 OFFCURVE",
"40 440 OFFCURVE",
"40 263 CURVE SMOOTH",
"40 95 OFFCURVE",
"135 -10 OFFCURVE",
"273 -10 CURVE SMOOTH",
"405 -10 OFFCURVE",
"489 86 OFFCURVE",
"489 197 CURVE SMOOTH",
"489 306 OFFCURVE",
"420 389 OFFCURVE",
"300 389 CURVE SMOOTH",
"258 389 OFFCURVE",
"219 373 OFFCURVE",
"194 355 CURVE",
"222 433 OFFCURVE",
"299 487 OFFCURVE",
"386 487 CURVE SMOOTH"
);
},
{
closed = 1;
nodes = (
"229 112 OFFCURVE",
"198 150 OFFCURVE",
"198 189 CURVE SMOOTH",
"198 231 OFFCURVE",
"229 267 OFFCURVE",
"273 267 CURVE SMOOTH",
"318 267 OFFCURVE",
"349 231 OFFCURVE",
"349 189 CURVE SMOOTH",
"349 150 OFFCURVE",
"318 112 OFFCURVE",
"273 112 CURVE SMOOTH"
);
}
);
width = 1029;
},
{
associatedMasterId = "9D6DA52E-CD68-4B8E-8511-A7BD80A00452";
layerId = "C80D3B0C-53F4-4243-A59E-9EEFEE5175DF";
name = "Light Apr 14 15, 14:24";
paths = (
{
closed = 1;
nodes = (
"205 45 OFFCURVE",
"143 121 OFFCURVE",
"143 199 CURVE SMOOTH",
"143 282 OFFCURVE",
"205 354 OFFCURVE",
"293 354 CURVE SMOOTH",
"382 354 OFFCURVE",
"444 282 OFFCURVE",
"444 199 CURVE SMOOTH",
"444 121 OFFCURVE",
"382 45 OFFCURVE",
"293 45 CURVE SMOOTH"
);
},
{
closed = 1;
nodes = (
"564 554 OFFCURVE",
"663 439 OFFCURVE",
"663 280 CURVE SMOOTH",
"663 186 OFFCURVE",
"610 104 OFFCURVE",
"540 60 CURVE",
"540 0 LINE",
"940 0 LINE",
"940 600 LINE",
"875 600 LINE",
"875 60 LINE",
"634 60 LINE",
"701 125 OFFCURVE",
"728 199 OFFCURVE",
"728 282 CURVE SMOOTH",
"728 473 OFFCURVE",
"602 609 OFFCURVE",
"406 609 CURVE SMOOTH",
"201 609 OFFCURVE",
"70 444 OFFCURVE",
"70 273 CURVE SMOOTH",
"70 106 OFFCURVE",
"155 -10 OFFCURVE",
"293 -10 CURVE SMOOTH",
"425 -10 OFFCURVE",
"506 96 OFFCURVE",
"506 207 CURVE SMOOTH",
"506 316 OFFCURVE",
"413 409 OFFCURVE",
"303 409 CURVE SMOOTH",
"244 409 OFFCURVE",
"172 381 OFFCURVE",
"132 321 CURVE",
"159 469 OFFCURVE",
"286 554 OFFCURVE",
"406 554 CURVE SMOOTH"
);
}
);
width = 1020;
},
{
associatedMasterId = "9D6DA52E-CD68-4B8E-8511-A7BD80A00452";
layerId = "6B2A96F5-B5B2-400E-A5D1-255901590CE4";
name = "Light Apr 15 15, 14:50";
paths = (
{
closed = 1;
nodes = (
"385 -11 OFFCURVE",
"473 76 OFFCURVE",
"473 184 CURVE SMOOTH",
"473 291 OFFCURVE",
"385 378 OFFCURVE",
"278 378 CURVE SMOOTH",
"171 378 OFFCURVE",
"83 291 OFFCURVE",
"83 184 CURVE SMOOTH",
"83 76 OFFCURVE",
"171 -11 OFFCURVE",
"278 -11 CURVE SMOOTH"
);
},
{
closed = 1;
nodes = (
"354 45 OFFCURVE",
"417 107 OFFCURVE",
"417 184 CURVE SMOOTH",
"417 260 OFFCURVE",
"354 322 OFFCURVE",
"278 322 CURVE SMOOTH",
"202 322 OFFCURVE",
"139 260 OFFCURVE",
"139 184 CURVE SMOOTH",
"139 107 OFFCURVE",
"202 45 OFFCURVE",
"278 45 CURVE SMOOTH"
);
}
);
width = 1020;
},
{
guideLines = (
{
angle = 90;
position = "{253, 183}";
}
);
layerId = "9D6DA52E-CD68-4B8E-8511-A7BD80A00452";
name = Light;
paths = (
{
closed = 1;
nodes = (
"500 522 OFFCURVE",
"599 429 OFFCURVE",
"599 280 CURVE SMOOTH",
"599 196 OFFCURVE",
"562 112 OFFCURVE",
"478 60 CURVE",
"478 0 LINE",
"906 0 LINE",
"906 580 LINE",
"846 580 LINE",
"846 60 LINE",
"570 60 LINE",
"630 112 OFFCURVE",
"666 189 OFFCURVE",
"666 282 CURVE SMOOTH",
"666 449 OFFCURVE",
"547 580 OFFCURVE",
"362 580 CURVE SMOOTH",
"177 580 OFFCURVE",
"50 423 OFFCURVE",
"50 240 CURVE SMOOTH",
"50 73 OFFCURVE",
"141 -10 OFFCURVE",
"246 -10 CURVE SMOOTH",
"361 -10 OFFCURVE",
"430 80 OFFCURVE",
"430 172 CURVE SMOOTH",
"430 282 OFFCURVE",
"349 358 OFFCURVE",
"245 358 CURVE SMOOTH",
"187 358 OFFCURVE",
"132 327 OFFCURVE",
"106 275 CURVE",
"131 430 OFFCURVE",
"240 522 OFFCURVE",
"362 522 CURVE SMOOTH"
);
},
{
closed = 1;
nodes = (
"180 45 OFFCURVE",
"118 96 OFFCURVE",
"118 172 CURVE SMOOTH",
"118 248 OFFCURVE",
"173 301 OFFCURVE",
"243 301 CURVE SMOOTH",
"313 301 OFFCURVE",
"365 248 OFFCURVE",
"365 172 CURVE SMOOTH",
"365 96 OFFCURVE",
"317 45 OFFCURVE",
"246 45 CURVE SMOOTH"
);
}
);
width = 996;
visible = 1;
}
);
unicode = 0D16;
},
{
glyphname = mlGA;
lastChange = "2015-07-03 10:43:56 +0000";
layers = (
{
associatedMasterId = "8E067A2A-2289-4446-99CD-66E5BEE6C169";
guideLines = (
{
position = "{459, 300}";
},
{
angle = 90;
position = "{618, 300}";
}
);
layerId = "223AFC3E-2A41-4648-B34E-C1D949EB605D";
name = "Bold Mar 20 15, 13:21";
paths = (
{
closed = 1;
nodes = (
"434 -10 OFFCURVE",
"536 68 OFFCURVE",
"536 238 CURVE SMOOTH",
"536 362 LINE SMOOTH",
"536 447 OFFCURVE",
"574 488 OFFCURVE",
"618 488 CURVE SMOOTH",
"678 488 OFFCURVE",
"718 428 OFFCURVE",
"718 300 CURVE SMOOTH",
"718 191 OFFCURVE",
"668 80 OFFCURVE",
"630 0 CURVE",
"777 0 LINE",
"821 74 OFFCURVE",
"866 183 OFFCURVE",
"866 300 CURVE SMOOTH",
"866 497 OFFCURVE",
"776 610 OFFCURVE",
"618 610 CURVE SMOOTH",
"481 610 OFFCURVE",
"389 515 OFFCURVE",
"389 357 CURVE SMOOTH",
"389 226 LINE",
"389 152 OFFCURVE",
"350 112 OFFCURVE",
"298 112 CURVE SMOOTH",
"239 112 OFFCURVE",
"198 168 OFFCURVE",
"198 300 CURVE SMOOTH",
"198 409 OFFCURVE",
"248 520 OFFCURVE",
"286 600 CURVE",
"139 600 LINE",
"95 526 OFFCURVE",
"50 417 OFFCURVE",
"50 300 CURVE SMOOTH",
"50 104 OFFCURVE",
"143 -10 OFFCURVE",
"298 -10 CURVE SMOOTH"
);
}
);
width = 916;
},
{
guideLines = (
{
position = "{464, 300}";
},
{
angle = 90;
position = "{623, 300}";
}
);
layerId = "8E067A2A-2289-4446-99CD-66E5BEE6C169";
name = Bold;
paths = (
{
closed = 1;
nodes = (
"429 -10 OFFCURVE",
"541 68 OFFCURVE",
"541 238 CURVE SMOOTH",
"541 362 LINE SMOOTH",
"541 447 OFFCURVE",
"574 488 OFFCURVE",
"633 488 CURVE SMOOTH",
"692 488 OFFCURVE",
"733 428 OFFCURVE",
"733 300 CURVE SMOOTH",
"733 171 OFFCURVE",
"687 135 OFFCURVE",
"619 135 CURVE",
"619 0 LINE",
"843 0 OFFCURVE",
"881 183 OFFCURVE",
"881 300 CURVE SMOOTH",
"881 497 OFFCURVE",
"791 610 OFFCURVE",
"633 610 CURVE SMOOTH",
"496 610 OFFCURVE",
"394 515 OFFCURVE",
"394 357 CURVE SMOOTH",
"394 233 LINE SMOOTH",
"394 148 OFFCURVE",
"358 112 OFFCURVE",
"299 112 CURVE SMOOTH",
"240 112 OFFCURVE",
"193 168 OFFCURVE",
"193 300 CURVE SMOOTH",
"193 429 OFFCURVE",
"239 465 OFFCURVE",
"307 465 CURVE",
"307 600 LINE",
"93 600 OFFCURVE",
"45 417 OFFCURVE",
"45 300 CURVE SMOOTH",
"45 104 OFFCURVE",
"138 -10 OFFCURVE",
"293 -10 CURVE SMOOTH"
);
}
);
width = 926;
},
{
layerId = "9D6DA52E-CD68-4B8E-8511-A7BD80A00452";
name = Light;
paths = (
{
closed = 1;
nodes = (
"410 -10 OFFCURVE",
"468 60 OFFCURVE",
"468 218 CURVE SMOOTH",
"468 342 LINE SMOOTH",
"468 457 OFFCURVE",
"523 525 OFFCURVE",
"608 525 CURVE SMOOTH",
"713 525 OFFCURVE",
"766 417 OFFCURVE",
"766 275 CURVE SMOOTH",
"766 126 OFFCURVE",
"707 50 OFFCURVE",
"569 50 CURVE",
"569 -10 LINE",
"783 -10 OFFCURVE",
"831 148 OFFCURVE",
"831 275 CURVE SMOOTH",
"831 471 OFFCURVE",
"743 580 OFFCURVE",
"608 580 CURVE SMOOTH",
"481 580 OFFCURVE",
"408 485 OFFCURVE",
"408 337 CURVE SMOOTH",
"408 213 LINE SMOOTH",
"408 100 OFFCURVE",
"367 45 OFFCURVE",
"283 45 CURVE SMOOTH",
"178 45 OFFCURVE",
"120 143 OFFCURVE",
"120 285 CURVE SMOOTH",
"120 434 OFFCURVE",
"179 520 OFFCURVE",
"317 520 CURVE",
"317 580 LINE",
"103 580 OFFCURVE",
"55 412 OFFCURVE",
"55 285 CURVE SMOOTH",
"55 89 OFFCURVE",
"158 -10 OFFCURVE",
"283 -10 CURVE SMOOTH"
);
}
);
width = 886;
},
{
associatedMasterId = "9D6DA52E-CD68-4B8E-8511-A7BD80A00452";
layerId = "482D3515-74D0-4306-83BC-97601E0E188A";
name = "Light Apr 9 15, 17:43";
paths = (
{
closed = 0;
nodes = (
"291 45 LINE",
"186 45 OFFCURVE",
"118 158 OFFCURVE",
"118 300 CURVE SMOOTH",
"118 429 OFFCURVE",
"177 540 OFFCURVE",
"315 540 CURVE",
"315 600 LINE",
"101 600 OFFCURVE",
"53 417 OFFCURVE",
"53 300 CURVE SMOOTH",
"53 104 OFFCURVE",
"156 -10 OFFCURVE",
"291 -10 CURVE SMOOTH"
);
}
);
width = 916;
}
);
unicode = 0D17;
},
{
glyphname = mlGHA;
lastChange = "2015-07-03 10:43:56 +0000";
layers = (
{
guideLines = (
{
position = "{143, 416}";
},
{
angle = 90;
position = "{226, 388}";
}
);
layerId = "9D6DA52E-CD68-4B8E-8511-A7BD80A00452";
name = Light;
paths = (
{
closed = 1;
nodes = (
"196 212 LINE",
"106 217 OFFCURVE",
"40 289 OFFCURVE",
"40 383 CURVE SMOOTH",
"40 481 OFFCURVE",
"108 570 OFFCURVE",
"224 570 CURVE SMOOTH",
"332 570 OFFCURVE",
"407 490 OFFCURVE",
"407 387 CURVE SMOOTH",
"407 344 OFFCURVE",
"387 296 OFFCURVE",
"364 271 CURVE",
"388 274 OFFCURVE",
"420 274 OFFCURVE",
"442 274 CURVE",
"852 274 LINE",
"852 339 LINE",
"852 445 OFFCURVE",
"813 525 OFFCURVE",
"707 525 CURVE SMOOTH",
"601 525 OFFCURVE",
"557 445 OFFCURVE",
"557 339 CURVE",
"557 55 LINE",
"1084 55 LINE",
"1084 580 LINE",
"1144 580 LINE",
"1144 0 LINE",
"497 0 LINE",
"497 339 LINE",
"497 487 OFFCURVE",
"563 580 OFFCURVE",
"707 580 CURVE SMOOTH",
"848 580 OFFCURVE",
"912 487 OFFCURVE",
"912 339 CURVE",
"912 219 LINE",
"288 219 LINE",
"288 272 LINE",
"323 302 OFFCURVE",
"342 341 OFFCURVE",
"342 383 CURVE SMOOTH",
"342 456 OFFCURVE",
"301 515 OFFCURVE",
"224 515 CURVE SMOOTH",
"144 515 OFFCURVE",
"105 456 OFFCURVE",
"105 383 CURVE SMOOTH",
"105 316 OFFCURVE",
"145 277 OFFCURVE",
"196 272 CURVE"
);
}
);
width = 1234;
},
{
associatedMasterId = "8E067A2A-2289-4446-99CD-66E5BEE6C169";
guideLines = (
{
position = "{268, 341}";
},
{
position = "{263, 467}";
}
);
layerId = "D528C3CD-C8BD-45EE-BE67-333A47FC2BE7";
name = "Bold Apr 14 15, 14:31";
paths = (
{
closed = 1;
nodes = (
"917 341 LINE",
"917 369 LINE",
"917 445 OFFCURVE",
"877 488 OFFCURVE",
"811 488 CURVE SMOOTH",
"745 488 OFFCURVE",
"705 445 OFFCURVE",
"705 369 CURVE",
"705 121 LINE",
"1144 121 LINE",
"1144 600 LINE",
"1290 600 LINE",
"1290 0 LINE",
"559 0 LINE",
"559 369 LINE",
"559 517 OFFCURVE",
"657 610 OFFCURVE",
"811 610 CURVE SMOOTH",
"962 610 OFFCURVE",
"1058 517 OFFCURVE",
"1058 369 CURVE",
"1058 224 LINE",
"312 224 LINE",
"312 335 LINE",
"344 355 OFFCURVE",
"361 379 OFFCURVE",
"361 414 CURVE SMOOTH",
"361 467 OFFCURVE",
"324 505 OFFCURVE",
"271 505 CURVE SMOOTH",
"217 505 OFFCURVE",
"182 467 OFFCURVE",
"182 414 CURVE SMOOTH",
"182 362 OFFCURVE",
"209 328 OFFCURVE",
"247 328 CURVE SMOOTH",
"253 328 OFFCURVE",
"257 328 OFFCURVE",
"261 329 CURVE",
"261 217 LINE",
"256 217 OFFCURVE",
"252 217 OFFCURVE",
"245 217 CURVE SMOOTH",
"140 217 OFFCURVE",
"60 293 OFFCURVE",
"60 410 CURVE SMOOTH",
"60 530 OFFCURVE",
"158 610 OFFCURVE",
"271 610 CURVE SMOOTH",
"392 610 OFFCURVE",
"482 530 OFFCURVE",
"482 420 CURVE SMOOTH",
"482 388 OFFCURVE",
"467 360 OFFCURVE",
"441 338 CURVE",
"465 341 OFFCURVE",
"477 341 OFFCURVE",
"499 341 CURVE"
);
},
{
closed = 0;
nodes = (
"-570 224 LINE",
"-570 324 LINE",
"-543 350 OFFCURVE",
"-530 380 OFFCURVE",
"-530 417 CURVE SMOOTH",
"-530 475 OFFCURVE",
"-574 508 OFFCURVE",
"-619 508 CURVE SMOOTH",
"-664 508 OFFCURVE",
"-702 471 OFFCURVE",
"-702 417 CURVE SMOOTH",
"-702 366 OFFCURVE",
"-674 331 OFFCURVE",
"-636 331 CURVE SMOOTH",
"-630 331 OFFCURVE",
"-627 331 OFFCURVE",
"-621 332 CURVE",
"-622 216 LINE",
"-628 215 OFFCURVE",
"-632 215 OFFCURVE",
"-638 215 CURVE SMOOTH",
"-745 215 OFFCURVE",
"-827 294 OFFCURVE",
"-827 413 CURVE SMOOTH",
"-827 530 OFFCURVE",
"-729 614 OFFCURVE",
"-619 614 CURVE SMOOTH",
"-508 614 OFFCURVE",
"-404 535 OFFCURVE",
"-404 422 CURVE SMOOTH",
"-404 384 OFFCURVE",
"-422 353 OFFCURVE",
"-440 338 CURVE",
"-412 343 OFFCURVE",
"-392 341 OFFCURVE",
"-370 341 CURVE"
);
}
);
width = 1340;
},
{
guideLines = (
{
position = "{239, 341}";
}
);
layerId = "8E067A2A-2289-4446-99CD-66E5BEE6C169";
name = Bold;
paths = (
{
closed = 1;
nodes = (
"221 207 LINE",
"119 209 OFFCURVE",
"40 285 OFFCURVE",
"40 400 CURVE SMOOTH",
"40 515 OFFCURVE",
"136 600 OFFCURVE",
"254 600 CURVE SMOOTH",
"371 600 OFFCURVE",
"466 520 OFFCURVE",
"466 412 CURVE SMOOTH",
"466 381 OFFCURVE",
"454 347 OFFCURVE",
"434 328 CURVE",
"458 331 OFFCURVE",
"485 331 OFFCURVE",
"507 331 CURVE",
"888 331 LINE",
"888 369 LINE",
"888 445 OFFCURVE",
"848 488 OFFCURVE",
"782 488 CURVE SMOOTH",
"716 488 OFFCURVE",
"676 445 OFFCURVE",
"676 369 CURVE",
"676 121 LINE",
"1115 121 LINE",
"1115 600 LINE",
"1261 600 LINE",
"1261 0 LINE",
"530 0 LINE",
"530 369 LINE",
"530 517 OFFCURVE",
"628 610 OFFCURVE",
"782 610 CURVE SMOOTH",
"933 610 OFFCURVE",
"1029 517 OFFCURVE",
"1029 369 CURVE",
"1029 214 LINE",
"303 214 LINE",
"303 317 LINE",
"328 334 OFFCURVE",
"345 366 OFFCURVE",
"345 408 CURVE SMOOTH",
"345 456 OFFCURVE",
"308 494 OFFCURVE",
"255 494 CURVE SMOOTH",
"201 494 OFFCURVE",
"165 455 OFFCURVE",
"165 404 CURVE SMOOTH",
"165 355 OFFCURVE",
"189 326 OFFCURVE",
"221 322 CURVE"
);
}
);
width = 1331;
visible = 1;
}
);
unicode = 0D18;
},
{
glyphname = mlNGA;
lastChange = "2015-07-03 10:43:56 +0000";
layers = (
{
background = {
paths = (
{
closed = 0;
nodes = (
"802 490 LINE SMOOTH",
"906 490 OFFCURVE",
"971 464 OFFCURVE",
"971 414 CURVE SMOOTH",
"971 377 OFFCURVE",
"952 355 OFFCURVE",
"915 355 CURVE SMOOTH",
"892 355 LINE",
"892 235 LINE",
"925 235 LINE SMOOTH",
"974 235 OFFCURVE",
"1005 215 OFFCURVE",
"1005 176 CURVE SMOOTH",
"1005 138 OFFCURVE",
"975 117 OFFCURVE",
"936 117 CURVE SMOOTH",
"916 117 OFFCURVE",
"898 118 OFFCURVE",
"875 123 CURVE",
"875 -2 LINE",
"897 -8 OFFCURVE",
"930 -10 OFFCURVE",
"950 -10 CURVE SMOOTH",
"1066 -10 OFFCURVE",
"1146 65 OFFCURVE",
"1146 168 CURVE SMOOTH",
"1146 231 OFFCURVE",
"1099 287 OFFCURVE",
"1026 295 CURVE",
"1086 310 OFFCURVE",
"1114 356 OFFCURVE",
"1114 414 CURVE SMOOTH",
"1114 533 OFFCURVE",
"968 610 OFFCURVE",
"800 610 CURVE SMOOTH"
);
}
);
};
guideLines = (
{
position = "{886, 179}";
}
);
layerId = "8E067A2A-2289-4446-99CD-66E5BEE6C169";
name = Bold;
paths = (
{
closed = 1;
nodes = (
"398 -10 OFFCURVE",
"484 69 OFFCURVE",
"484 185 CURVE SMOOTH",
"484 299 OFFCURVE",
"403 381 OFFCURVE",
"298 381 CURVE SMOOTH",
"260 381 OFFCURVE",
"225 366 OFFCURVE",
"202 338 CURVE",
"227 429 OFFCURVE",
"291 488 OFFCURVE",
"385 488 CURVE SMOOTH",
"485 488 OFFCURVE",
"574 424 OFFCURVE",
"574 272 CURVE",
"574 0 LINE",
"720 0 LINE",
"720 272 LINE",
"720 424 OFFCURVE",
"802 488 OFFCURVE",
"889 488 CURVE SMOOTH",
"936 488 OFFCURVE",
"968 469 OFFCURVE",
"968 431 CURVE SMOOTH",
"968 393 OFFCURVE",
"936 365 OFFCURVE",
"864 365 CURVE SMOOTH",
"843 365 LINE",
"843 243 LINE",
"874 243 LINE SMOOTH",
"964 243 OFFCURVE",
"1003 221 OFFCURVE",
"1003 179 CURVE SMOOTH",
"1003 137 OFFCURVE",
"964 115 OFFCURVE",
"898 115 CURVE SMOOTH",
"863 115 OFFCURVE",
"831 118 OFFCURVE",
"803 123 CURVE",
"803 -1 LINE",
"833 -7 OFFCURVE",
"866 -10 OFFCURVE",
"898 -10 CURVE SMOOTH",
"1047 -10 OFFCURVE",
"1151 36 OFFCURVE",
"1151 174 CURVE SMOOTH",
"1151 251 OFFCURVE",
"1091 299 OFFCURVE",
"1014 308 CURVE",
"1077 319 OFFCURVE",
"1116 374 OFFCURVE",
"1116 442 CURVE SMOOTH",
"1116 552 OFFCURVE",
"999 610 OFFCURVE",
"889 610 CURVE SMOOTH",
"773 610 OFFCURVE",
"686 541 OFFCURVE",
"647 454 CURVE",
"604 536 OFFCURVE",
"505 610 OFFCURVE",
"385 610 CURVE SMOOTH",
"161 610 OFFCURVE",
"50 420 OFFCURVE",
"50 243 CURVE SMOOTH",
"50 91 OFFCURVE",
"141 -10 OFFCURVE",
"275 -10 CURVE SMOOTH"
);
},
{
closed = 1;
nodes = (
"231 112 OFFCURVE",
"203 144 OFFCURVE",
"203 185 CURVE SMOOTH",
"203 227 OFFCURVE",
"231 259 OFFCURVE",
"273 259 CURVE SMOOTH",
"315 259 OFFCURVE",
"345 227 OFFCURVE",
"345 185 CURVE SMOOTH",
"345 144 OFFCURVE",
"315 112 OFFCURVE",
"273 112 CURVE SMOOTH"
);
}
);
width = 1206;
},
{
layerId = "9D6DA52E-CD68-4B8E-8511-A7BD80A00452";
name = Light;
paths = (
{
closed = 1;
nodes = (
"366 -10 OFFCURVE",
"435 80 OFFCURVE",
"435 172 CURVE SMOOTH",
"435 282 OFFCURVE",
"354 358 OFFCURVE",
"250 358 CURVE SMOOTH",
"192 358 OFFCURVE",
"137 327 OFFCURVE",
"111 275 CURVE",
"135 434 OFFCURVE",
"238 524 OFFCURVE",
"360 524 CURVE SMOOTH",
"475 524 OFFCURVE",
"580 446 OFFCURVE",
"580 282 CURVE",
"580 0 LINE",
"640 0 LINE",
"640 282 LINE",
"640 446 OFFCURVE",
"747 523 OFFCURVE",
"846 523 CURVE SMOOTH",
"932 523 OFFCURVE",
"984 488 OFFCURVE",
"984 421 CURVE SMOOTH",
"984 351 OFFCURVE",
"929 313 OFFCURVE",
"857 313 CURVE SMOOTH",
"826 313 LINE",
"826 253 LINE",
"867 253 LINE SMOOTH",
"957 253 OFFCURVE",
"1019 227 OFFCURVE",
"1019 156 CURVE SMOOTH",
"1019 85 OFFCURVE",
"957 49 OFFCURVE",
"868 49 CURVE SMOOTH",
"835 49 OFFCURVE",
"808 53 OFFCURVE",
"786 58 CURVE",
"786 -2 LINE",
"808 -7 OFFCURVE",
"835 -10 OFFCURVE",
"868 -10 CURVE SMOOTH",
"992 -10 OFFCURVE",
"1084 43 OFFCURVE",
"1084 156 CURVE SMOOTH",
"1084 233 OFFCURVE",
"1028 277 OFFCURVE",
"947 288 CURVE",
"1010 299 OFFCURVE",
"1049 354 OFFCURVE",
"1049 422 CURVE SMOOTH",
"1049 526 OFFCURVE",
"960 580 OFFCURVE",
"846 580 CURVE SMOOTH",
"732 580 OFFCURVE",
"644 506 OFFCURVE",
"610 424 CURVE",
"567 506 OFFCURVE",
"485 580 OFFCURVE",
"360 580 CURVE SMOOTH",
"165 580 OFFCURVE",
"55 417 OFFCURVE",
"55 256 CURVE SMOOTH",
"55 89 OFFCURVE",
"136 -10 OFFCURVE",
"251 -10 CURVE SMOOTH"
);
},
{
closed = 1;
nodes = (
"185 45 OFFCURVE",
"123 96 OFFCURVE",
"123 172 CURVE SMOOTH",
"123 248 OFFCURVE",
"178 301 OFFCURVE",
"248 301 CURVE SMOOTH",
"318 301 OFFCURVE",
"370 248 OFFCURVE",
"370 172 CURVE SMOOTH",
"370 96 OFFCURVE",
"322 45 OFFCURVE",
"251 45 CURVE SMOOTH"
);
}
);
width = 1134;
}
);
unicode = 0D19;
},
{
glyphname = mlCA;
lastChange = "2015-07-03 10:43:56 +0000";
layers = (
{
layerId = "8E067A2A-2289-4446-99CD-66E5BEE6C169";
name = Bold;
paths = (
{
closed = 1;
nodes = (
"277 218 LINE",
"265 242 OFFCURVE",
"255 267 OFFCURVE",
"255 304 CURVE SMOOTH",
"255 351 OFFCURVE",
"279 391 OFFCURVE",
"337 391 CURVE SMOOTH",
"390 391 OFFCURVE",
"423 351 OFFCURVE",
"423 290 CURVE SMOOTH",
"423 203 OFFCURVE",
"374 122 OFFCURVE",
"203 122 CURVE SMOOTH",
"0 122 LINE",
"0 0 LINE",
"844 0 LINE",
"844 600 LINE",
"698 600 LINE",
"698 122 LINE",
"478 122 LINE",
"523 149 OFFCURVE",
"571 208 OFFCURVE",
"571 298 CURVE SMOOTH",
"571 415 OFFCURVE",
"474 513 OFFCURVE",
"337 513 CURVE SMOOTH",
"200 513 OFFCURVE",
"112 417 OFFCURVE",
"112 306 CURVE SMOOTH",
"112 279 OFFCURVE",
"119 243 OFFCURVE",
"129 218 CURVE"
);
}
);
width = 914;
},
{
guideLines = (
{
angle = 90;
position = "{302, 297}";
}
);
layerId = "9D6DA52E-CD68-4B8E-8511-A7BD80A00452";
name = Light;
paths = (
{
closed = 1;
nodes = (
"208 168 LINE",
"196 192 OFFCURVE",
"187 219 OFFCURVE",
"187 254 CURVE SMOOTH",
"187 336 OFFCURVE",
"231 410 OFFCURVE",
"318 410 CURVE SMOOTH",
"401 410 OFFCURVE",
"446 345 OFFCURVE",
"446 260 CURVE SMOOTH",
"446 170 OFFCURVE",
"368 55 OFFCURVE",
"203 55 CURVE SMOOTH",
"10 55 LINE",
"10 0 LINE",
"784 0 LINE",
"784 580 LINE",
"724 580 LINE",
"724 55 LINE",
"392 55 LINE",
"460 94 OFFCURVE",
"511 180 OFFCURVE",
"511 260 CURVE SMOOTH",
"511 379 OFFCURVE",
"435 466 OFFCURVE",
"318 466 CURVE SMOOTH",
"196 466 OFFCURVE",
"122 367 OFFCURVE",
"122 256 CURVE SMOOTH",
"122 229 OFFCURVE",
"130 193 OFFCURVE",
"140 168 CURVE"
);
}
);
width = 874;
}
);
unicode = 0D1A;
},
{
glyphname = mlCHA;
lastChange = "2015-07-03 10:43:56 +0000";
layers = (
{
guideLines = (
{
position = "{1110, 282}";
}
);
layerId = "8E067A2A-2289-4446-99CD-66E5BEE6C169";
name = Bold;
paths = (
{
closed = 1;
nodes = (
"1225 -10 OFFCURVE",
"1319 78 OFFCURVE",
"1319 270 CURVE SMOOTH",
"1319 469 OFFCURVE",
"1172 610 OFFCURVE",
"972 610 CURVE SMOOTH",
"772 610 OFFCURVE",
"630 463 OFFCURVE",
"630 282 CURVE SMOOTH",
"630 219 OFFCURVE",
"654 158 OFFCURVE",
"679 122 CURVE",
"478 122 LINE",
"523 149 OFFCURVE",
"571 208 OFFCURVE",
"571 298 CURVE SMOOTH",
"571 415 OFFCURVE",
"474 513 OFFCURVE",
"337 513 CURVE SMOOTH",
"200 513 OFFCURVE",
"112 417 OFFCURVE",
"112 306 CURVE SMOOTH",
"112 279 OFFCURVE",
"119 243 OFFCURVE",
"129 218 CURVE",
"277 218 LINE",
"265 242 OFFCURVE",
"255 267 OFFCURVE",
"255 304 CURVE SMOOTH",
"255 351 OFFCURVE",
"279 391 OFFCURVE",
"337 391 CURVE SMOOTH",
"390 391 OFFCURVE",
"423 351 OFFCURVE",
"423 290 CURVE SMOOTH",
"423 203 OFFCURVE",
"374 122 OFFCURVE",
"203 122 CURVE",
"0 122 LINE",
"0 0 LINE",
"854 0 LINE",
"854 117 LINE",
"829 136 OFFCURVE",
"775 186 OFFCURVE",
"775 280 CURVE SMOOTH",
"775 407 OFFCURVE",
"863 487 OFFCURVE",
"973 487 CURVE SMOOTH",
"982 487 OFFCURVE",
"994 487 OFFCURVE",
"1002 486 CURVE",
"943 438 OFFCURVE",
"902 340 OFFCURVE",
"902 260 CURVE SMOOTH",
"902 78 OFFCURVE",
"995 -10 OFFCURVE",
"1110 -10 CURVE SMOOTH"
);
},
{
closed = 1;
nodes = (
"1075 112 OFFCURVE",
"1050 149 OFFCURVE",
"1050 260 CURVE SMOOTH",
"1050 342 OFFCURVE",
"1071 409 OFFCURVE",
"1111 456 CURVE",
"1151 411 OFFCURVE",
"1171 350 OFFCURVE",
"1171 270 CURVE SMOOTH",
"1171 149 OFFCURVE",
"1145 112 OFFCURVE",
"1110 112 CURVE SMOOTH"
);
}
);
width = 1364;
},
{
guideLines = (
{
angle = 90;
position = "{1063, 253}";
}
);
layerId = "9D6DA52E-CD68-4B8E-8511-A7BD80A00452";
name = Light;
paths = (
{
closed = 1;
nodes = (
"1193 -10 OFFCURVE",
"1245 115 OFFCURVE",
"1245 237 CURVE SMOOTH",
"1245 429 OFFCURVE",
"1119 580 OFFCURVE",
"933 580 CURVE SMOOTH",
"763 580 OFFCURVE",
"630 443 OFFCURVE",
"630 282 CURVE SMOOTH",
"630 149 OFFCURVE",
"686 92 OFFCURVE",
"718 55 CURVE",
"392 55 LINE",
"460 94 OFFCURVE",
"511 180 OFFCURVE",
"511 260 CURVE SMOOTH",
"511 379 OFFCURVE",
"435 466 OFFCURVE",
"318 466 CURVE SMOOTH",
"196 466 OFFCURVE",
"122 367 OFFCURVE",
"122 256 CURVE SMOOTH",
"122 229 OFFCURVE",
"130 193 OFFCURVE",
"140 168 CURVE",
"208 168 LINE",
"196 192 OFFCURVE",
"187 219 OFFCURVE",
"187 254 CURVE SMOOTH",
"187 336 OFFCURVE",
"231 410 OFFCURVE",
"318 410 CURVE SMOOTH",
"401 410 OFFCURVE",
"446 345 OFFCURVE",
"446 260 CURVE SMOOTH",
"446 170 OFFCURVE",
"368 55 OFFCURVE",
"203 55 CURVE SMOOTH",
"10 55 LINE",
"10 0 LINE",
"797 0 LINE",
"797 54 LINE",
"746 104 OFFCURVE",
"695 168 OFFCURVE",
"695 282 CURVE SMOOTH",
"695 412 OFFCURVE",
"803 525 OFFCURVE",
"933 525 CURVE SMOOTH",
"955 525 OFFCURVE",
"981 522 OFFCURVE",
"1003 514 CURVE",
"953 475 OFFCURVE",
"881 374 OFFCURVE",
"881 237 CURVE SMOOTH",
"881 115 OFFCURVE",
"933 -10 OFFCURVE",
"1063 -10 CURVE SMOOTH"
);
},
{
closed = 1;
nodes = (
"988 47 OFFCURVE",
"946 128 OFFCURVE",
"946 237 CURVE SMOOTH",
"946 353 OFFCURVE",
"1008 449 OFFCURVE",
"1061 492 CURVE",
"1120 449 OFFCURVE",
"1181 363 OFFCURVE",
"1181 237 CURVE SMOOTH",
"1181 129 OFFCURVE",
"1138 47 OFFCURVE",
"1063 47 CURVE SMOOTH"
);
}
);
width = 1300;
},
{
associatedMasterId = "8E067A2A-2289-4446-99CD-66E5BEE6C169";
guideLines = (
{
position = "{1165, 282}";
}
);
layerId = "83978E11-6E90-4A4F-8C6E-1671766CFD6B";
name = "Bold May 4 15, 18:05";
paths = (
{
closed = 0;
nodes = (
"1028 491 LINE",
"1034 491 OFFCURVE",
"1041 491 OFFCURVE",
"1047 490 CURVE",
"986 441 OFFCURVE",
"955 359 OFFCURVE",
"955 271 CURVE SMOOTH",
"955 99 OFFCURVE",
"1030 -10 OFFCURVE",
"1165 -10 CURVE SMOOTH",
"1290 -10 OFFCURVE",
"1374 89 OFFCURVE",
"1374 271 CURVE SMOOTH",
"1374 490 OFFCURVE",
"1203 610 OFFCURVE",
"1027 610 CURVE"
);
},
{
closed = 1;
nodes = (
"1119 112 OFFCURVE",
"1103 163 OFFCURVE",
"1103 271 CURVE SMOOTH",
"1103 343 OFFCURVE",
"1121 405 OFFCURVE",
"1165 451 CURVE",
"1213 401 OFFCURVE",
"1226 343 OFFCURVE",
"1226 271 CURVE SMOOTH",
"1226 153 OFFCURVE",
"1207 112 OFFCURVE",
"1165 112 CURVE SMOOTH"
);
},
{
closed = 0;
nodes = (
"1027 610 LINE",
"817 610 OFFCURVE",
"685 473 OFFCURVE",
"685 282 CURVE SMOOTH",
"685 219 OFFCURVE",
"709 158 OFFCURVE",
"734 122 CURVE",
"533 122 LINE",
"578 149 OFFCURVE",
"626 208 OFFCURVE",
"626 298 CURVE SMOOTH",
"626 415 OFFCURVE",
"529 513 OFFCURVE",
"392 513 CURVE SMOOTH",
"255 513 OFFCURVE",
"167 417 OFFCURVE",
"167 306 CURVE SMOOTH",
"167 279 OFFCURVE",
"174 243 OFFCURVE",
"184 218 CURVE",
"332 218 LINE",
"320 242 OFFCURVE",
"310 267 OFFCURVE",
"310 304 CURVE SMOOTH",
"310 351 OFFCURVE",
"334 391 OFFCURVE",
"392 391 CURVE SMOOTH",
"445 391 OFFCURVE",
"478 351 OFFCURVE",
"478 290 CURVE SMOOTH",
"478 203 OFFCURVE",
"429 122 OFFCURVE",
"258 122 CURVE",
"55 122 LINE",
"55 0 LINE",
"909 0 LINE",
"909 117 LINE",
"884 136 OFFCURVE",
"830 186 OFFCURVE",
"830 280 CURVE SMOOTH",
"830 407 OFFCURVE",
"918 491 OFFCURVE",
"1028 491 CURVE"
);
}
);
width = 1419;
},
{
associatedMasterId = "9D6DA52E-CD68-4B8E-8511-A7BD80A00452";
guideLines = (
{
angle = 90;
position = "{1103, 253}";
}
);
layerId = "7280673B-6AC3-4093-8560-F625BDD224C2";
name = "Light May 4 15, 18:17";
paths = (
{
closed = 1;
nodes = (
"992 527 OFFCURVE",
"1017 523 OFFCURVE",
"1042 514 CURVE",
"994 473 OFFCURVE",
"924 374 OFFCURVE",
"924 253 CURVE SMOOTH",
"924 131 OFFCURVE",
"969 -10 OFFCURVE",
"1104 -10 CURVE SMOOTH",
"1239 -10 OFFCURVE",
"1284 121 OFFCURVE",
"1284 253 CURVE SMOOTH",
"1284 435 OFFCURVE",
"1148 580 OFFCURVE",
"972 580 CURVE SMOOTH",
"802 580 OFFCURVE",
"670 443 OFFCURVE",
"670 282 CURVE SMOOTH",
"670 149 OFFCURVE",
"726 92 OFFCURVE",
"758 55 CURVE",
"432 55 LINE",
"500 94 OFFCURVE",
"551 180 OFFCURVE",
"551 260 CURVE SMOOTH",
"551 379 OFFCURVE",
"475 466 OFFCURVE",
"358 466 CURVE SMOOTH",
"236 466 OFFCURVE",
"162 367 OFFCURVE",
"162 256 CURVE SMOOTH",
"162 229 OFFCURVE",
"170 193 OFFCURVE",
"180 168 CURVE",
"248 168 LINE",
"236 192 OFFCURVE",
"227 219 OFFCURVE",
"227 254 CURVE SMOOTH",
"227 336 OFFCURVE",
"271 410 OFFCURVE",
"358 410 CURVE SMOOTH",
"441 410 OFFCURVE",
"486 345 OFFCURVE",
"486 260 CURVE SMOOTH",
"486 170 OFFCURVE",
"408 55 OFFCURVE",
"243 55 CURVE SMOOTH",
"50 55 LINE",
"50 0 LINE",
"837 0 LINE",
"837 54 LINE",
"786 104 OFFCURVE",
"735 168 OFFCURVE",
"735 282 CURVE SMOOTH",
"735 422 OFFCURVE",
"844 527 OFFCURVE",
"968 527 CURVE SMOOTH"
);
},
{
closed = 1;
nodes = (
"1028 47 OFFCURVE",
"989 144 OFFCURVE",
"989 253 CURVE SMOOTH",
"989 354 OFFCURVE",
"1050 449 OFFCURVE",
"1100 492 CURVE",
"1162 452 OFFCURVE",
"1220 365 OFFCURVE",
"1220 253 CURVE SMOOTH",
"1220 135 OFFCURVE",
"1184 47 OFFCURVE",
"1104 47 CURVE SMOOTH"
);
}
);
width = 1329;
visible = 1;
}
);
unicode = 0D1B;
},
{
glyphname = mlJA;
lastChange = "2015-07-03 10:43:56 +0000";
layers = (
{
layerId = "8E067A2A-2289-4446-99CD-66E5BEE6C169";
name = Bold;
paths = (
{
closed = 1;
nodes = (
"337 -70 OFFCURVE",
"403 -23 OFFCURVE",
"430 6 CURVE",
"460 -36 OFFCURVE",
"519 -68 OFFCURVE",
"585 -68 CURVE SMOOTH",
"696 -68 OFFCURVE",
"784 9 OFFCURVE",
"784 112 CURVE SMOOTH",
"784 165 OFFCURVE",
"756 213 OFFCURVE",
"709 238 CURVE",
"745 268 OFFCURVE",
"785 329 OFFCURVE",
"785 401 CURVE SMOOTH",
"785 524 OFFCURVE",
"695 610 OFFCURVE",
"580 610 CURVE SMOOTH",
"508 610 OFFCURVE",
"449 569 OFFCURVE",
"414 511 CURVE",
"381 569 OFFCURVE",
"317 610 OFFCURVE",
"232 610 CURVE SMOOTH",
"129 610 OFFCURVE",
"47 544 OFFCURVE",
"47 442 CURVE SMOOTH",
"47 347 OFFCURVE",
"125 284 OFFCURVE",
"224 284 CURVE SMOOTH",
"230 284 OFFCURVE",
"242 284 OFFCURVE",
"248 285 CURVE",
"248 388 LINE",
"243 387 OFFCURVE",
"233 386 OFFCURVE",
"228 386 CURVE SMOOTH",
"196 386 OFFCURVE",
"172 415 OFFCURVE",
"172 443 CURVE SMOOTH",
"172 476 OFFCURVE",
"202 502 OFFCURVE",
"240 502 CURVE SMOOTH",
"309 502 OFFCURVE",
"358 451 OFFCURVE",
"358 357 CURVE SMOOTH",
"358 306 LINE",
"480 306 LINE",
"480 372 LINE SMOOTH",
"480 456 OFFCURVE",
"530 488 OFFCURVE",
"569 488 CURVE SMOOTH",
"612 488 OFFCURVE",
"648 457 OFFCURVE",
"648 400 CURVE SMOOTH",
"648 335 OFFCURVE",
"603 264 OFFCURVE",
"470 264 CURVE SMOOTH",
"264 264 LINE SMOOTH",
"124 264 OFFCURVE",
"45 204 OFFCURVE",
"45 101 CURVE SMOOTH",
"45 15 OFFCURVE",
"108 -70 OFFCURVE",
"249 -70 CURVE SMOOTH"
);
},
{
closed = 1;
nodes = (
"212 52 OFFCURVE",
"185 77 OFFCURVE",
"185 106 CURVE SMOOTH",
"185 130 OFFCURVE",
"197 151 OFFCURVE",
"246 151 CURVE SMOOTH",
"452 151 LINE",
"401 88 OFFCURVE",
"338 52 OFFCURVE",
"264 52 CURVE SMOOTH"
);
},
{
closed = 1;
nodes = (
"547 47 OFFCURVE",
"521 79 OFFCURVE",
"521 110 CURVE SMOOTH",
"521 146 OFFCURVE",
"547 175 OFFCURVE",
"583 175 CURVE SMOOTH",
"620 175 OFFCURVE",
"647 146 OFFCURVE",
"647 110 CURVE SMOOTH",
"647 79 OFFCURVE",
"620 47 OFFCURVE",
"583 47 CURVE SMOOTH"
);
}
);
width = 835;
},
{
layerId = "9D6DA52E-CD68-4B8E-8511-A7BD80A00452";
name = Light;
paths = (
{
closed = 1;
nodes = (
"318 -66 OFFCURVE",
"374 -12 OFFCURVE",
"400 32 CURVE",
"421 -17 OFFCURVE",
"475 -68 OFFCURVE",
"556 -68 CURVE SMOOTH",
"647 -68 OFFCURVE",
"730 -1 OFFCURVE",
"730 92 CURVE SMOOTH",
"730 165 OFFCURVE",
"690 218 OFFCURVE",
"631 242 CURVE",
"688 270 OFFCURVE",
"720 331 OFFCURVE",
"720 403 CURVE SMOOTH",
"720 505 OFFCURVE",
"648 580 OFFCURVE",
"539 580 CURVE SMOOTH",
"463 580 OFFCURVE",
"410 542 OFFCURVE",
"381 481 CURVE",
"355 542 OFFCURVE",
"300 580 OFFCURVE",
"219 580 CURVE SMOOTH",
"115 580 OFFCURVE",
"52 509 OFFCURVE",
"52 434 CURVE SMOOTH",
"52 331 OFFCURVE",
"130 289 OFFCURVE",
"229 289 CURVE SMOOTH",
"235 289 OFFCURVE",
"247 289 OFFCURVE",
"253 290 CURVE",
"253 349 LINE",
"244 348 OFFCURVE",
"238 348 OFFCURVE",
"233 348 CURVE SMOOTH",
"161 348 OFFCURVE",
"117 369 OFFCURVE",
"117 435 CURVE SMOOTH",
"117 489 OFFCURVE",
"161 525 OFFCURVE",
"219 525 CURVE SMOOTH",
"305 525 OFFCURVE",
"353 466 OFFCURVE",
"353 392 CURVE SMOOTH",
"353 316 LINE",
"413 316 LINE",
"413 392 LINE SMOOTH",
"413 466 OFFCURVE",
"465 525 OFFCURVE",
"539 525 CURVE SMOOTH",
"611 525 OFFCURVE",
"655 478 OFFCURVE",
"655 402 CURVE SMOOTH",
"655 297 OFFCURVE",
"558 244 OFFCURVE",
"425 244 CURVE SMOOTH",
"233 244 LINE SMOOTH",
"118 244 OFFCURVE",
"50 184 OFFCURVE",
"50 91 CURVE SMOOTH",
"50 9 OFFCURVE",
"122 -66 OFFCURVE",
"230 -66 CURVE SMOOTH"
);
},
{
closed = 1;
nodes = (
"165 -6 OFFCURVE",
"113 39 OFFCURVE",
"113 91 CURVE SMOOTH",
"113 155 OFFCURVE",
"153 189 OFFCURVE",
"235 189 CURVE SMOOTH",
"407 189 LINE",
"368 52 OFFCURVE",
"306 -6 OFFCURVE",
"230 -6 CURVE SMOOTH"
);
},
{
closed = 1;
nodes = (
"493 -12 OFFCURVE",
"444 37 OFFCURVE",
"444 98 CURVE SMOOTH",
"444 158 OFFCURVE",
"493 207 OFFCURVE",
"553 207 CURVE SMOOTH",
"613 207 OFFCURVE",
"665 158 OFFCURVE",
"665 98 CURVE SMOOTH",
"665 34 OFFCURVE",
"617 -12 OFFCURVE",
"553 -12 CURVE SMOOTH"
);
}
);
width = 795;
}
);
unicode = 0D1C;
},
{
glyphname = mlJHA;
lastChange = "2015-07-03 10:43:56 +0000";
layers = (
{
guideLines = (
{
position = "{560, 498}";
}
);
layerId = "8E067A2A-2289-4446-99CD-66E5BEE6C169";
name = Bold;
paths = (
{
closed = 1;
nodes = (
"1143 -11 OFFCURVE",
"1202 29 OFFCURVE",
"1228 82 CURVE",
"1259 23 OFFCURVE",
"1322 -11 OFFCURVE",
"1397 -11 CURVE SMOOTH",
"1528 -11 OFFCURVE",
"1653 103 OFFCURVE",
"1653 299 CURVE SMOOTH",
"1653 480 OFFCURVE",
"1557 600 OFFCURVE",
"1390 600 CURVE",
"1390 465 LINE",
"1458 465 OFFCURVE",
"1504 429 OFFCURVE",
"1504 300 CURVE SMOOTH",
"1504 168 OFFCURVE",
"1448 112 OFFCURVE",
"1390 112 CURVE SMOOTH",
"1333 112 OFFCURVE",
"1299 143 OFFCURVE",
"1299 228 CURVE SMOOTH",
"1299 600 LINE",
"1153 600 LINE",
"1153 228 LINE SMOOTH",
"1153 143 OFFCURVE",
"1123 112 OFFCURVE",
"1078 112 CURVE SMOOTH",
"1033 112 OFFCURVE",
"1003 147 OFFCURVE",
"1003 228 CURVE SMOOTH",
"1003 321 LINE SMOOTH",
"1003 526 OFFCURVE",
"854 610 OFFCURVE",
"697 610 CURVE SMOOTH",
"638 610 OFFCURVE",
"580 594 OFFCURVE",
"535 568 CURVE",
"498 588 OFFCURVE",
"450 610 OFFCURVE",
"361 610 CURVE",
"178 610 OFFCURVE",
"45 471 OFFCURVE",
"45 290 CURVE SMOOTH",
"45 112 OFFCURVE",
"150 -10 OFFCURVE",
"315 -10 CURVE",
"315 125 LINE",
"237 125 OFFCURVE",
"193 188 OFFCURVE",
"193 290 CURVE SMOOTH",
"193 408 OFFCURVE",
"266 498 OFFCURVE",
"370 498 CURVE SMOOTH",
"396 498 OFFCURVE",
"409 496 OFFCURVE",
"426 493 CURVE",
"365 433 OFFCURVE",
"339 348 OFFCURVE",
"339 260 CURVE SMOOTH",
"339 78 OFFCURVE",
"434 -10 OFFCURVE",
"549 -10 CURVE SMOOTH",
"664 -10 OFFCURVE",
"758 78 OFFCURVE",
"758 270 CURVE SMOOTH",
"758 359 OFFCURVE",
"729 438 OFFCURVE",
"670 493 CURVE",
"684 495 OFFCURVE",
"697 496 OFFCURVE",
"709 496 CURVE SMOOTH",
"816 496 OFFCURVE",
"857 414 OFFCURVE",
"857 321 CURVE SMOOTH",
"857 228 LINE SMOOTH",
"857 83 OFFCURVE",
"933 -11 OFFCURVE",
"1068 -11 CURVE SMOOTH"
);
},
{
closed = 1;
nodes = (
"514 112 OFFCURVE",
"488 149 OFFCURVE",
"488 270 CURVE SMOOTH",
"488 350 OFFCURVE",
"508 411 OFFCURVE",
"548 456 CURVE",
"588 409 OFFCURVE",
"609 342 OFFCURVE",
"609 260 CURVE SMOOTH",
"609 149 OFFCURVE",
"584 112 OFFCURVE",
"549 112 CURVE SMOOTH"
);
}
);
width = 1698;
},
{
guideLines = (
{
angle = 90;
position = "{519, 271}";
}
);
layerId = "9D6DA52E-CD68-4B8E-8511-A7BD80A00452";
name = Light;
paths = (
{
closed = 1;
nodes = (
"1111 -11 OFFCURVE",
"1164 28 OFFCURVE",
"1188 88 CURVE",
"1219 21 OFFCURVE",
"1292 -11 OFFCURVE",
"1357 -11 CURVE SMOOTH",
"1488 -11 OFFCURVE",
"1583 88 OFFCURVE",
"1583 284 CURVE SMOOTH",
"1583 465 OFFCURVE",
"1496 580 OFFCURVE",
"1330 580 CURVE",
"1330 520 LINE",
"1472 520 OFFCURVE",
"1518 426 OFFCURVE",
"1518 285 CURVE SMOOTH",
"1518 133 OFFCURVE",
"1455 49 OFFCURVE",
"1357 49 CURVE SMOOTH",
"1280 49 OFFCURVE",
"1217 107 OFFCURVE",
"1217 218 CURVE SMOOTH",
"1217 580 LINE",
"1157 580 LINE",
"1157 218 LINE SMOOTH",
"1157 103 OFFCURVE",
"1113 49 OFFCURVE",
"1044 49 CURVE SMOOTH",
"969 49 OFFCURVE",
"925 107 OFFCURVE",
"925 218 CURVE SMOOTH",
"925 301 LINE SMOOTH",
"925 506 OFFCURVE",
"794 580 OFFCURVE",
"667 580 CURVE SMOOTH",
"608 580 OFFCURVE",
"558 568 OFFCURVE",
"514 544 CURVE",
"474 563 OFFCURVE",
"435 580 OFFCURVE",
"356 580 CURVE SMOOTH",
"193 580 OFFCURVE",
"55 445 OFFCURVE",
"55 280 CURVE SMOOTH",
"55 102 OFFCURVE",
"150 -10 OFFCURVE",
"295 -10 CURVE",
"295 50 LINE",
"187 50 OFFCURVE",
"120 148 OFFCURVE",
"120 280 CURVE SMOOTH",
"120 412 OFFCURVE",
"222 525 OFFCURVE",
"356 525 CURVE SMOOTH",
"400 525 OFFCURVE",
"425 519 OFFCURVE",
"458 509 CURVE",
"393 456 OFFCURVE",
"339 345 OFFCURVE",
"339 237 CURVE SMOOTH",
"339 75 OFFCURVE",
"414 -10 OFFCURVE",
"519 -10 CURVE SMOOTH",
"624 -10 OFFCURVE",
"698 75 OFFCURVE",
"698 237 CURVE SMOOTH",
"698 345 OFFCURVE",
"647 455 OFFCURVE",
"574 509 CURVE",
"602 519 OFFCURVE",
"625 525 OFFCURVE",
"667 525 CURVE SMOOTH",
"804 525 OFFCURVE",
"865 424 OFFCURVE",
"865 301 CURVE SMOOTH",
"865 218 LINE SMOOTH",
"865 83 OFFCURVE",
"919 -11 OFFCURVE",
"1044 -11 CURVE SMOOTH"
);
},
{
closed = 1;
nodes = (
"444 47 OFFCURVE",
"401 129 OFFCURVE",
"401 237 CURVE SMOOTH",
"401 353 OFFCURVE",
"462 449 OFFCURVE",
"521 492 CURVE",
"574 449 OFFCURVE",
"636 353 OFFCURVE",
"636 237 CURVE SMOOTH",
"636 128 OFFCURVE",
"594 47 OFFCURVE",
"519 47 CURVE SMOOTH"
);
}
);
width = 1638;
},
{
associatedMasterId = "8E067A2A-2289-4446-99CD-66E5BEE6C169";
guideLines = (
{
position = "{565, 498}";
}
);
layerId = "5B1D6E9F-0D24-4EBE-A25A-3DE421BC09A0";
name = "Bold May 4 15, 18:25";
paths = (
{
closed = 1;
nodes = (
"1148 -11 OFFCURVE",
"1207 29 OFFCURVE",
"1233 82 CURVE",
"1264 23 OFFCURVE",
"1327 -11 OFFCURVE",
"1402 -11 CURVE SMOOTH",
"1533 -11 OFFCURVE",
"1658 103 OFFCURVE",
"1658 299 CURVE SMOOTH",
"1658 480 OFFCURVE",
"1562 600 OFFCURVE",
"1395 600 CURVE",
"1395 465 LINE",
"1463 465 OFFCURVE",
"1509 429 OFFCURVE",
"1509 300 CURVE SMOOTH",
"1509 168 OFFCURVE",
"1453 112 OFFCURVE",
"1395 112 CURVE SMOOTH",
"1338 112 OFFCURVE",
"1304 143 OFFCURVE",
"1304 228 CURVE SMOOTH",
"1304 600 LINE",
"1158 600 LINE",
"1158 228 LINE SMOOTH",
"1158 143 OFFCURVE",
"1128 112 OFFCURVE",
"1083 112 CURVE SMOOTH",
"1038 112 OFFCURVE",
"1008 147 OFFCURVE",
"1008 228 CURVE SMOOTH",
"1008 321 LINE SMOOTH",
"1008 526 OFFCURVE",
"859 610 OFFCURVE",
"702 610 CURVE SMOOTH",
"643 610 OFFCURVE",
"585 594 OFFCURVE",
"540 568 CURVE",
"503 588 OFFCURVE",
"455 610 OFFCURVE",
"366 610 CURVE",
"183 610 OFFCURVE",
"50 471 OFFCURVE",
"50 290 CURVE SMOOTH",
"50 112 OFFCURVE",
"155 -10 OFFCURVE",
"320 -10 CURVE",
"320 125 LINE",
"242 125 OFFCURVE",
"198 188 OFFCURVE",
"198 290 CURVE SMOOTH",
"198 408 OFFCURVE",
"271 498 OFFCURVE",
"375 498 CURVE SMOOTH",
"401 498 OFFCURVE",
"414 496 OFFCURVE",
"431 493 CURVE",
"370 433 OFFCURVE",
"344 348 OFFCURVE",
"344 260 CURVE SMOOTH",
"344 71 OFFCURVE",
"439 -10 OFFCURVE",
"554 -10 CURVE SMOOTH",
"669 -10 OFFCURVE",
"763 78 OFFCURVE",
"763 270 CURVE SMOOTH",
"763 359 OFFCURVE",
"734 438 OFFCURVE",
"675 493 CURVE",
"689 495 OFFCURVE",
"702 496 OFFCURVE",
"714 496 CURVE SMOOTH",
"821 496 OFFCURVE",
"862 414 OFFCURVE",
"862 321 CURVE SMOOTH",
"862 228 LINE SMOOTH",
"862 83 OFFCURVE",
"938 -11 OFFCURVE",
"1073 -11 CURVE SMOOTH"
);
},
{
closed = 1;
nodes = (
"521 112 OFFCURVE",
"495 149 OFFCURVE",
"495 270 CURVE SMOOTH",
"495 350 OFFCURVE",
"515 411 OFFCURVE",
"555 456 CURVE",
"595 409 OFFCURVE",
"616 322 OFFCURVE",
"616 260 CURVE SMOOTH",
"616 149 OFFCURVE",
"591 112 OFFCURVE",
"556 112 CURVE SMOOTH"
);
}
);
width = 1708;
visible = 1;
}
);
unicode = 0D1D;
},
{
glyphname = mlNYA;
lastChange = "2015-07-03 10:43:56 +0000";
layers = (
{
guideLines = (
{
angle = 90;
position = "{647, 312}";
},
{
position = "{1039, 491}";
}
);
layerId = "8E067A2A-2289-4446-99CD-66E5BEE6C169";
name = Bold;
paths = (
{
closed = 1;
nodes = (
"398 -10 OFFCURVE",
"484 69 OFFCURVE",
"484 185 CURVE SMOOTH",
"484 299 OFFCURVE",
"403 381 OFFCURVE",
"298 381 CURVE SMOOTH",
"260 381 OFFCURVE",
"220 366 OFFCURVE",
"197 338 CURVE",
"222 429 OFFCURVE",
"291 488 OFFCURVE",
"385 488 CURVE SMOOTH",
"485 488 OFFCURVE",
"574 424 OFFCURVE",
"574 302 CURVE",
"574 0 LINE",
"720 0 LINE",
"720 312 LINE",
"720 412 OFFCURVE",
"784 492 OFFCURVE",
"890 492 CURVE SMOOTH",
"902 492 OFFCURVE",
"913 491 OFFCURVE",
"925 491 CURVE",
"873 446 OFFCURVE",
"826 358 OFFCURVE",
"826 260 CURVE SMOOTH",
"826 71 OFFCURVE",
"921 -10 OFFCURVE",
"1036 -10 CURVE SMOOTH",
"1151 -10 OFFCURVE",
"1245 78 OFFCURVE",
"1245 270 CURVE SMOOTH",
"1245 359 OFFCURVE",
"1204 439 OFFCURVE",
"1161 487 CURVE",
"1179 490 OFFCURVE",
"1194 491 OFFCURVE",
"1214 491 CURVE SMOOTH",
"1317 491 OFFCURVE",
"1389 411 OFFCURVE",
"1389 290 CURVE SMOOTH",
"1389 171 OFFCURVE",
"1342 125 OFFCURVE",
"1274 125 CURVE",
"1274 -10 LINE",
"1441 -10 OFFCURVE",
"1537 110 OFFCURVE",
"1537 291 CURVE SMOOTH",
"1537 474 OFFCURVE",
"1391 610 OFFCURVE",
"1204 610 CURVE SMOOTH",
"1149 610 OFFCURVE",
"1092 594 OFFCURVE",
"1055 574 CURVE",
"1011 596 OFFCURVE",
"960 610 OFFCURVE",
"890 610 CURVE SMOOTH",
"777 610 OFFCURVE",
"679 537 OFFCURVE",
"646 461 CURVE",
"604 537 OFFCURVE",
"505 610 OFFCURVE",
"385 610 CURVE SMOOTH",
"161 610 OFFCURVE",
"50 420 OFFCURVE",
"50 243 CURVE SMOOTH",
"50 91 OFFCURVE",
"141 -10 OFFCURVE",
"275 -10 CURVE SMOOTH"
);
},
{
closed = 1;
nodes = (
"231 112 OFFCURVE",
"203 144 OFFCURVE",
"203 185 CURVE SMOOTH",
"203 227 OFFCURVE",
"231 259 OFFCURVE",
"273 259 CURVE SMOOTH",
"315 259 OFFCURVE",
"345 227 OFFCURVE",
"345 185 CURVE SMOOTH",
"345 144 OFFCURVE",
"315 112 OFFCURVE",
"273 112 CURVE SMOOTH"
);
},
{
closed = 1;
nodes = (
"1003 112 OFFCURVE",
"977 149 OFFCURVE",
"977 270 CURVE SMOOTH",
"977 350 OFFCURVE",
"997 411 OFFCURVE",
"1037 456 CURVE",
"1077 409 OFFCURVE",
"1098 342 OFFCURVE",
"1098 260 CURVE SMOOTH",
"1098 149 OFFCURVE",
"1073 112 OFFCURVE",
"1038 112 CURVE SMOOTH"
);
}
);
width = 1582;
},
{
guideLines = (
{
angle = 90;
position = "{1015, 237}";
}
);
layerId = "9D6DA52E-CD68-4B8E-8511-A7BD80A00452";
name = Light;
paths = (
{
closed = 1;
nodes = (
"366 -10 OFFCURVE",
"435 80 OFFCURVE",
"435 172 CURVE SMOOTH",
"435 282 OFFCURVE",
"354 358 OFFCURVE",
"250 358 CURVE SMOOTH",
"192 358 OFFCURVE",
"137 327 OFFCURVE",
"111 275 CURVE",
"135 434 OFFCURVE",
"245 524 OFFCURVE",
"367 524 CURVE SMOOTH",
"477 524 OFFCURVE",
"596 424 OFFCURVE",
"596 292 CURVE",
"596 0 LINE",
"656 0 LINE",
"656 292 LINE",
"656 409 OFFCURVE",
"738 525 OFFCURVE",
"865 525 CURVE SMOOTH",
"898 525 OFFCURVE",
"923 518 OFFCURVE",
"946 509 CURVE",
"870 455 OFFCURVE",
"821 347 OFFCURVE",
"821 239 CURVE SMOOTH",
"821 77 OFFCURVE",
"895 -10 OFFCURVE",
"1000 -10 CURVE SMOOTH",
"1105 -10 OFFCURVE",
"1180 77 OFFCURVE",
"1180 241 CURVE SMOOTH",
"1180 347 OFFCURVE",
"1126 456 OFFCURVE",
"1061 509 CURVE",
"1090 519 OFFCURVE",
"1114 525 OFFCURVE",
"1158 525 CURVE SMOOTH",
"1292 525 OFFCURVE",
"1394 412 OFFCURVE",
"1394 280 CURVE SMOOTH",
"1394 148 OFFCURVE",
"1327 50 OFFCURVE",
"1219 50 CURVE",
"1219 -10 LINE",
"1364 -10 OFFCURVE",
"1459 102 OFFCURVE",
"1459 280 CURVE SMOOTH",
"1459 445 OFFCURVE",
"1321 580 OFFCURVE",
"1158 580 CURVE SMOOTH",
"1086 580 OFFCURVE",
"1045 563 OFFCURVE",
"1005 544 CURVE",
"961 565 OFFCURVE",
"924 580 OFFCURVE",
"865 580 CURVE SMOOTH",
"769 580 OFFCURVE",
"672 522 OFFCURVE",
"626 414 CURVE",
"587 506 OFFCURVE",
"487 580 OFFCURVE",
"367 580 CURVE SMOOTH",
"172 580 OFFCURVE",
"55 417 OFFCURVE",
"55 256 CURVE SMOOTH",
"55 89 OFFCURVE",
"136 -10 OFFCURVE",
"251 -10 CURVE SMOOTH"
);
},
{
closed = 1;
nodes = (
"185 45 OFFCURVE",
"123 96 OFFCURVE",
"123 172 CURVE SMOOTH",
"123 248 OFFCURVE",
"178 301 OFFCURVE",
"248 301 CURVE SMOOTH",
"318 301 OFFCURVE",
"370 248 OFFCURVE",
"370 172 CURVE SMOOTH",
"370 96 OFFCURVE",
"322 45 OFFCURVE",
"251 45 CURVE SMOOTH"
);
},
{
closed = 1;
nodes = (
"925 47 OFFCURVE",
"883 128 OFFCURVE",
"883 237 CURVE SMOOTH",
"883 353 OFFCURVE",
"946 449 OFFCURVE",
"1000 492 CURVE",
"1059 449 OFFCURVE",
"1118 353 OFFCURVE",
"1118 237 CURVE SMOOTH",
"1118 129 OFFCURVE",
"1075 47 OFFCURVE",
"1000 47 CURVE SMOOTH"
);
}
);
width = 1514;
}
);
unicode = 0D1E;
},
{
glyphname = mlTTA;
lastChange = "2015-07-03 10:43:56 +0000";
layers = (
{
guideLines = (
{
angle = -15.9472;
position = "{373, 347}";
},
{
angle = -15.9472;
position = "{241, 241}";
}
);
layerId = "8E067A2A-2289-4446-99CD-66E5BEE6C169";
name = Bold;
paths = (
{
closed = 1;
nodes = (
"52 17 LINE",
"107 1 OFFCURVE",
"165 -10 OFFCURVE",
"228 -10 CURVE SMOOTH",
"415 -10 OFFCURVE",
"526 53 OFFCURVE",
"526 176 CURVE SMOOTH",
"526 298 OFFCURVE",
"436 331 OFFCURVE",
"329 361 CURVE SMOOTH",
"254 382 OFFCURVE",
"188 390 OFFCURVE",
"188 434 CURVE SMOOTH",
"188 471 OFFCURVE",
"222 488 OFFCURVE",
"294 488 CURVE SMOOTH",
"366 488 OFFCURVE",
"426 469 OFFCURVE",
"485 450 CURVE",
"485 576 LINE",
"434 594 OFFCURVE",
"375 610 OFFCURVE",
"294 610 CURVE SMOOTH",
"143 610 OFFCURVE",
"40 535 OFFCURVE",
"40 434 CURVE SMOOTH",
"40 322 OFFCURVE",
"100 281 OFFCURVE",
"219 247 CURVE SMOOTH",
"306 222 OFFCURVE",
"378 230 OFFCURVE",
"378 176 CURVE SMOOTH",
"378 135 OFFCURVE",
"329 112 OFFCURVE",
"228 112 CURVE SMOOTH",
"159 112 OFFCURVE",
"97 132 OFFCURVE",
"52 144 CURVE"
);
}
);
width = 566;
},
{
guideLines = (
{
angle = -16.2121;
position = "{305, 324}";
},
{
angle = -16.2121;
position = "{295, 263}";
}
);
layerId = "9D6DA52E-CD68-4B8E-8511-A7BD80A00452";
name = Light;
paths = (
{
closed = 1;
nodes = (
"57 24 LINE",
"108 5 OFFCURVE",
"170 -10 OFFCURVE",
"233 -10 CURVE SMOOTH",
"410 -10 OFFCURVE",
"491 68 OFFCURVE",
"491 158 CURVE SMOOTH",
"491 270 OFFCURVE",
"399 297 OFFCURVE",
"305 324 CURVE SMOOTH",
"208 352 OFFCURVE",
"110 368 OFFCURVE",
"110 451 CURVE SMOOTH",
"110 520 OFFCURVE",
"176 553 OFFCURVE",
"269 553 CURVE SMOOTH",
"337 553 OFFCURVE",
"390 536 OFFCURVE",
"450 511 CURVE",
"450 571 LINE",
"398 592 OFFCURVE",
"340 610 OFFCURVE",
"269 610 CURVE SMOOTH",
"134 610 OFFCURVE",
"45 541 OFFCURVE",
"45 451 CURVE SMOOTH",
"45 362 OFFCURVE",
"119 314 OFFCURVE",
"202 290 CURVE SMOOTH",
"315 257 OFFCURVE",
"426 248 OFFCURVE",
"426 158 CURVE SMOOTH",
"426 82 OFFCURVE",
"340 47 OFFCURVE",
"233 47 CURVE SMOOTH",
"157 47 OFFCURVE",
"96 70 OFFCURVE",
"57 85 CURVE"
);
}
);
width = 536;
}
);
unicode = 0D1F;
},
{
glyphname = mlTTHA;
lastChange = "2015-08-06 18:28:37 +0000";
layers = (
{
layerId = "8E067A2A-2289-4446-99CD-66E5BEE6C169";
name = Bold;
paths = (
{
closed = 1;
nodes = (
"496 -11 OFFCURVE",
"607 119 OFFCURVE",
"607 299 CURVE SMOOTH",
"607 480 OFFCURVE",
"496 610 OFFCURVE",
"322 610 CURVE SMOOTH",
"147 610 OFFCURVE",
"35 479 OFFCURVE",
"35 299 CURVE SMOOTH",
"35 118 OFFCURVE",
"147 -11 OFFCURVE",
"321 -11 CURVE SMOOTH"
);
},
{
closed = 1;
nodes = (
"234 111 OFFCURVE",
"183 189 OFFCURVE",
"183 299 CURVE SMOOTH",
"183 400 OFFCURVE",
"226 488 OFFCURVE",
"321 488 CURVE SMOOTH",
"408 488 OFFCURVE",
"460 409 OFFCURVE",
"460 299 CURVE SMOOTH",
"460 189 OFFCURVE",
"415 111 OFFCURVE",
"321 111 CURVE SMOOTH"
);
}
);
width = 642;
},
{
guideLines = (
{
position = "{301, 285}";
}
);
layerId = "9D6DA52E-CD68-4B8E-8511-A7BD80A00452";
name = Light;
paths = (
{
closed = 1;
nodes = (
"471 -11 OFFCURVE",
"557 123 OFFCURVE",
"557 285 CURVE SMOOTH",
"557 455 OFFCURVE",
"471 580 OFFCURVE",
"302 580 CURVE SMOOTH",
"132 580 OFFCURVE",
"45 455 OFFCURVE",
"45 285 CURVE SMOOTH",
"45 123 OFFCURVE",
"132 -11 OFFCURVE",
"301 -11 CURVE SMOOTH"
);
},
{
closed = 1;
nodes = (
"179 44 OFFCURVE",
"110 154 OFFCURVE",
"110 285 CURVE SMOOTH",
"110 416 OFFCURVE",
"171 525 OFFCURVE",
"301 525 CURVE SMOOTH",
"423 525 OFFCURVE",
"492 416 OFFCURVE",
"492 285 CURVE SMOOTH",
"492 154 OFFCURVE",
"430 44 OFFCURVE",
"301 44 CURVE SMOOTH"
);
}
);
width = 602;
}
);
unicode = 0D20;
},
{
glyphname = mlDDA;
lastChange = "2015-07-03 10:43:56 +0000";
layers = (
{
guideLines = (
{
angle = 90;
position = "{629, 243}";
}
);
layerId = "8E067A2A-2289-4446-99CD-66E5BEE6C169";
name = Bold;
paths = (
{
closed = 1;
nodes = (
"703 -10 OFFCURVE",
"758 35 OFFCURVE",
"788 93 CURVE",
"814 35 OFFCURVE",
"885 -10 OFFCURVE",
"969 -10 CURVE SMOOTH",
"1124 -10 OFFCURVE",
"1222 104 OFFCURVE",
"1222 300 CURVE SMOOTH",
"1222 417 OFFCURVE",
"1174 600 OFFCURVE",
"960 600 CURVE",
"960 465 LINE",
"1028 465 OFFCURVE",
"1074 429 OFFCURVE",
"1074 300 CURVE SMOOTH",
"1074 168 OFFCURVE",
"1028 112 OFFCURVE",
"969 112 CURVE SMOOTH",
"906 112 OFFCURVE",
"862 153 OFFCURVE",
"862 248 CURVE SMOOTH",
"862 600 LINE",
"716 600 LINE",
"716 248 LINE SMOOTH",
"716 153 OFFCURVE",
"684 112 OFFCURVE",
"628 112 CURVE SMOOTH",
"573 112 OFFCURVE",
"541 152 OFFCURVE",
"541 238 CURVE",
"541 362 LINE SMOOTH",
"541 532 OFFCURVE",
"429 610 OFFCURVE",
"293 610 CURVE SMOOTH",
"138 610 OFFCURVE",
"45 496 OFFCURVE",
"45 300 CURVE SMOOTH",
"45 183 OFFCURVE",
"93 0 OFFCURVE",
"307 0 CURVE",
"307 135 LINE",
"239 135 OFFCURVE",
"193 171 OFFCURVE",
"193 300 CURVE SMOOTH",
"193 432 OFFCURVE",
"240 488 OFFCURVE",
"299 488 CURVE SMOOTH",
"358 488 OFFCURVE",
"394 452 OFFCURVE",
"394 367 CURVE SMOOTH",
"394 243 LINE",
"394 85 OFFCURVE",
"492 -10 OFFCURVE",
"619 -10 CURVE SMOOTH"
);
}
);
width = 1267;
},
{
layerId = "9D6DA52E-CD68-4B8E-8511-A7BD80A00452";
name = Light;
paths = (
{
closed = 1;
nodes = (
"677 -10 OFFCURVE",
"728 40 OFFCURVE",
"751 101 CURVE",
"778 37 OFFCURVE",
"851 -10 OFFCURVE",
"927 -10 CURVE SMOOTH",
"1062 -10 OFFCURVE",
"1155 84 OFFCURVE",
"1155 280 CURVE SMOOTH",
"1155 397 OFFCURVE",
"1117 580 OFFCURVE",
"903 580 CURVE",
"903 520 LINE",
"1041 520 OFFCURVE",
"1090 409 OFFCURVE",
"1090 280 CURVE SMOOTH",
"1090 138 OFFCURVE",
"1032 45 OFFCURVE",
"927 45 CURVE SMOOTH",
"853 45 OFFCURVE",
"781 116 OFFCURVE",
"781 211 CURVE",
"781 580 LINE",
"721 580 LINE",
"721 211 LINE",
"721 116 OFFCURVE",
"673 45 OFFCURVE",
"602 45 CURVE SMOOTH",
"537 45 OFFCURVE",
"488 95 OFFCURVE",
"488 228 CURVE",
"488 332 LINE SMOOTH",
"488 497 OFFCURVE",
"405 580 OFFCURVE",
"279 580 CURVE SMOOTH",
"139 580 OFFCURVE",
"55 466 OFFCURVE",
"55 270 CURVE SMOOTH",
"55 133 OFFCURVE",
"113 0 OFFCURVE",
"307 0 CURVE",
"307 60 LINE",
"199 60 OFFCURVE",
"120 111 OFFCURVE",
"120 270 CURVE SMOOTH",
"120 442 OFFCURVE",
"185 525 OFFCURVE",
"279 525 CURVE SMOOTH",
"358 525 OFFCURVE",
"427 466 OFFCURVE",
"427 337 CURVE SMOOTH",
"427 228 LINE",
"427 90 OFFCURVE",
"476 -10 OFFCURVE",
"599 -10 CURVE SMOOTH"
);
}
);
width = 1210;
}
);
unicode = 0D21;
},
{
glyphname = mlDDHA;
lastChange = "2015-07-03 10:43:56 +0000";
layers = (
{
guideLines = (
{
angle = 90;
position = "{749, 248}";
},
{
angle = 90;
position = "{611, 263}";
}
);
layerId = "8E067A2A-2289-4446-99CD-66E5BEE6C169";
name = Bold;
paths = (
{
closed = 1;
nodes = (
"687 -10 OFFCURVE",
"747 39 OFFCURVE",
"770 120 CURVE",
"814 39 OFFCURVE",
"896 -10 OFFCURVE",
"1016 -10 CURVE SMOOTH",
"1240 -10 OFFCURVE",
"1351 180 OFFCURVE",
"1351 357 CURVE SMOOTH",
"1351 509 OFFCURVE",
"1260 610 OFFCURVE",
"1126 610 CURVE SMOOTH",
"1003 610 OFFCURVE",
"917 531 OFFCURVE",
"917 415 CURVE SMOOTH",
"917 301 OFFCURVE",
"998 219 OFFCURVE",
"1103 219 CURVE SMOOTH",
"1141 219 OFFCURVE",
"1176 234 OFFCURVE",
"1199 262 CURVE",
"1174 171 OFFCURVE",
"1110 112 OFFCURVE",
"1016 112 CURVE SMOOTH",
"916 112 OFFCURVE",
"827 166 OFFCURVE",
"827 298 CURVE",
"827 600 LINE",
"681 600 LINE",
"681 288 LINE",
"681 153 OFFCURVE",
"659 112 OFFCURVE",
"611 112 CURVE SMOOTH",
"556 112 OFFCURVE",
"541 162 OFFCURVE",
"541 238 CURVE",
"541 362 LINE SMOOTH",
"541 532 OFFCURVE",
"429 610 OFFCURVE",
"293 610 CURVE SMOOTH",
"138 610 OFFCURVE",
"45 496 OFFCURVE",
"45 300 CURVE SMOOTH",
"45 183 OFFCURVE",
"93 0 OFFCURVE",
"307 0 CURVE",
"307 135 LINE",
"239 135 OFFCURVE",
"193 171 OFFCURVE",
"193 300 CURVE SMOOTH",
"193 432 OFFCURVE",
"240 488 OFFCURVE",
"299 488 CURVE SMOOTH",
"358 488 OFFCURVE",
"394 452 OFFCURVE",
"394 367 CURVE SMOOTH",
"394 237 LINE",
"394 79 OFFCURVE",
"477 -10 OFFCURVE",
"599 -10 CURVE SMOOTH"
);
},
{
closed = 1;
nodes = (
"1086 341 OFFCURVE",
"1056 373 OFFCURVE",
"1056 415 CURVE SMOOTH",
"1056 456 OFFCURVE",
"1086 488 OFFCURVE",
"1128 488 CURVE SMOOTH",
"1170 488 OFFCURVE",
"1198 456 OFFCURVE",
"1198 415 CURVE SMOOTH",
"1198 373 OFFCURVE",
"1170 341 OFFCURVE",
"1128 341 CURVE SMOOTH"
);
}
);
width = 1401;
},
{
guideLines = (
{
angle = 90;
position = "{755, 240}";
}
);
layerId = "9D6DA52E-CD68-4B8E-8511-A7BD80A00452";
name = Light;
paths = (
{
closed = 1;
nodes = (
"684 -10 OFFCURVE",
"732 38 OFFCURVE",
"758 120 CURVE",
"799 33 OFFCURVE",
"888 -10 OFFCURVE",
"978 -10 CURVE SMOOTH",
"1173 -10 OFFCURVE",
"1292 146 OFFCURVE",
"1292 337 CURVE SMOOTH",
"1292 484 OFFCURVE",
"1211 580 OFFCURVE",
"1096 580 CURVE SMOOTH",
"981 580 OFFCURVE",
"912 490 OFFCURVE",
"912 398 CURVE SMOOTH",
"912 288 OFFCURVE",
"993 212 OFFCURVE",
"1097 212 CURVE SMOOTH",
"1155 212 OFFCURVE",
"1210 243 OFFCURVE",
"1236 295 CURVE",
"1212 136 OFFCURVE",
"1100 48 OFFCURVE",
"978 48 CURVE SMOOTH",
"868 48 OFFCURVE",
"782 129 OFFCURVE",
"782 241 CURVE",
"782 580 LINE",
"722 580 LINE",
"722 211 LINE",
"722 116 OFFCURVE",
"673 45 OFFCURVE",
"602 45 CURVE SMOOTH",
"537 45 OFFCURVE",
"488 95 OFFCURVE",
"488 228 CURVE SMOOTH",
"488 332 LINE SMOOTH",
"488 497 OFFCURVE",
"405 580 OFFCURVE",
"279 580 CURVE SMOOTH",
"139 580 OFFCURVE",
"55 466 OFFCURVE",
"55 270 CURVE SMOOTH",
"55 133 OFFCURVE",
"113 0 OFFCURVE",
"307 0 CURVE",
"307 60 LINE",
"199 60 OFFCURVE",
"120 111 OFFCURVE",
"120 270 CURVE SMOOTH",
"120 442 OFFCURVE",
"185 525 OFFCURVE",
"279 525 CURVE SMOOTH",
"358 525 OFFCURVE",
"427 466 OFFCURVE",
"427 337 CURVE SMOOTH",
"428 228 LINE SMOOTH",
"428 90 OFFCURVE",
"476 -10 OFFCURVE",
"599 -10 CURVE SMOOTH"
);
},
{
closed = 1;
nodes = (
"1029 269 OFFCURVE",
"975 324 OFFCURVE",
"975 398 CURVE SMOOTH",
"975 472 OFFCURVE",
"1025 525 OFFCURVE",
"1096 525 CURVE SMOOTH",
"1162 525 OFFCURVE",
"1224 474 OFFCURVE",
"1224 398 CURVE SMOOTH",
"1224 322 OFFCURVE",
"1169 269 OFFCURVE",
"1099 269 CURVE SMOOTH"
);
}
);
width = 1347;
},
{
associatedMasterId = "8E067A2A-2289-4446-99CD-66E5BEE6C169";
guideLines = (
{
angle = 90;
position = "{754, 248}";
},
{
angle = 90;
position = "{616, 263}";
}
);
layerId = "26E31A27-07F1-4D2E-AE51-64E81A67E9BF";
name = "Bold Apr 14 15, 12:44";
paths = (
{
closed = 0;
nodes = (
"760 139 LINE",
"802 63 OFFCURVE",
"901 -10 OFFCURVE",
"1021 -10 CURVE SMOOTH",
"1245 -10 OFFCURVE",
"1356 180 OFFCURVE",
"1356 357 CURVE SMOOTH",
"1356 509 OFFCURVE",
"1265 610 OFFCURVE",
"1131 610 CURVE SMOOTH",
"1008 610 OFFCURVE",
"922 531 OFFCURVE",
"922 415 CURVE SMOOTH",
"922 301 OFFCURVE",
"1003 219 OFFCURVE",
"1108 219 CURVE SMOOTH",
"1146 219 OFFCURVE",
"1181 234 OFFCURVE",
"1204 262 CURVE",
"1179 171 OFFCURVE",
"1115 112 OFFCURVE",
"1021 112 CURVE SMOOTH",
"921 112 OFFCURVE",
"832 166 OFFCURVE",
"832 298 CURVE",
"832 600 LINE",
"686 600 LINE",
"686 288 LINE",
"686 153 OFFCURVE",
"664 112 OFFCURVE",
"616 112 CURVE SMOOTH",
"561 112 OFFCURVE",
"546 162 OFFCURVE",
"546 238 CURVE",
"546 362 LINE SMOOTH",
"546 532 OFFCURVE",
"434 610 OFFCURVE",
"298 610 CURVE SMOOTH",
"143 610 OFFCURVE",
"50 496 OFFCURVE",
"50 300 CURVE SMOOTH",
"50 183 OFFCURVE",
"98 0 OFFCURVE",
"312 0 CURVE",
"312 135 LINE",
"244 135 OFFCURVE",
"198 171 OFFCURVE",
"198 300 CURVE SMOOTH",
"198 432 OFFCURVE",
"245 488 OFFCURVE",
"304 488 CURVE SMOOTH",
"363 488 OFFCURVE",
"399 452 OFFCURVE",
"399 367 CURVE SMOOTH",
"399 237 LINE",
"399 79 OFFCURVE",
"482 -10 OFFCURVE",
"604 -10 CURVE SMOOTH",
"692 -10 OFFCURVE",
"752 39 OFFCURVE",
"775 120 CURVE"
);
},
{
closed = 1;
nodes = (
"1175 488 OFFCURVE",
"1203 456 OFFCURVE",
"1203 415 CURVE SMOOTH",
"1203 373 OFFCURVE",
"1175 341 OFFCURVE",
"1133 341 CURVE SMOOTH",
"1091 341 OFFCURVE",
"1061 373 OFFCURVE",
"1061 415 CURVE SMOOTH",
"1061 456 OFFCURVE",
"1091 488 OFFCURVE",
"1133 488 CURVE SMOOTH"
);
}
);
width = 1436;
visible = 1;
}
);
unicode = 0D22;
},
{
glyphname = mlNNA;
lastChange = "2015-07-03 10:43:56 +0000";
layers = (
{
layerId = "8E067A2A-2289-4446-99CD-66E5BEE6C169";
name = Bold;
paths = (
{
closed = 1;
nodes = (
"415 -10 OFFCURVE",
"499 86 OFFCURVE",
"499 197 CURVE SMOOTH",
"499 306 OFFCURVE",
"430 389 OFFCURVE",
"310 389 CURVE SMOOTH",
"268 389 OFFCURVE",
"219 365 OFFCURVE",
"199 340 CURVE",
"224 431 OFFCURVE",
"298 488 OFFCURVE",
"385 488 CURVE SMOOTH",
"490 488 OFFCURVE",
"590 433 OFFCURVE",
"590 302 CURVE",
"590 0 LINE",
"736 0 LINE",
"736 352 LINE",
"736 447 OFFCURVE",
"774 488 OFFCURVE",
"829 488 CURVE SMOOTH",
"884 488 OFFCURVE",
"924 447 OFFCURVE",
"924 352 CURVE SMOOTH",
"924 0 LINE",
"1070 0 LINE",
"1070 352 LINE",
"1070 448 OFFCURVE",
"1115 488 OFFCURVE",
"1174 488 CURVE SMOOTH",
"1233 488 OFFCURVE",
"1282 432 OFFCURVE",
"1282 300 CURVE SMOOTH",
"1282 171 OFFCURVE",
"1236 135 OFFCURVE",
"1168 135 CURVE",
"1168 0 LINE",
"1382 0 OFFCURVE",
"1430 183 OFFCURVE",
"1430 300 CURVE SMOOTH",
"1430 496 OFFCURVE",
"1332 610 OFFCURVE",
"1177 610 CURVE SMOOTH",
"1103 610 OFFCURVE",
"1035 574 OFFCURVE",
"997 497 CURVE",
"975 555 OFFCURVE",
"914 610 OFFCURVE",
"829 610 CURVE SMOOTH",
"744 610 OFFCURVE",
"680 559 OFFCURVE",
"654 497 CURVE",
"593 572 OFFCURVE",
"490 610 OFFCURVE",
"385 610 CURVE SMOOTH",
"181 610 OFFCURVE",
"50 440 OFFCURVE",
"50 263 CURVE SMOOTH",
"50 95 OFFCURVE",
"145 -10 OFFCURVE",
"283 -10 CURVE SMOOTH"
);
},
{
closed = 1;
nodes = (
"239 112 OFFCURVE",
"208 150 OFFCURVE",
"208 189 CURVE SMOOTH",
"208 231 OFFCURVE",
"239 267 OFFCURVE",
"283 267 CURVE SMOOTH",
"328 267 OFFCURVE",
"359 231 OFFCURVE",
"359 189 CURVE SMOOTH",
"359 150 OFFCURVE",
"328 112 OFFCURVE",
"283 112 CURVE SMOOTH"
);
}
);
width = 1475;
},
{
guideLines = (
{
angle = 90;
position = "{253, 199}";
},
{
angle = 90;
position = "{627, 369}";
},
{
angle = 90;
position = "{354, 332}";
},
{
angle = 90;
position = "{775, 314}";
}
);
layerId = "9D6DA52E-CD68-4B8E-8511-A7BD80A00452";
name = Light;
paths = (
{
closed = 1;
nodes = (
"366 -10 OFFCURVE",
"435 80 OFFCURVE",
"435 172 CURVE SMOOTH",
"435 282 OFFCURVE",
"354 358 OFFCURVE",
"250 358 CURVE SMOOTH",
"192 358 OFFCURVE",
"137 327 OFFCURVE",
"111 275 CURVE",
"135 434 OFFCURVE",
"247 522 OFFCURVE",
"369 522 CURVE SMOOTH",
"484 522 OFFCURVE",
"587 439 OFFCURVE",
"587 312 CURVE SMOOTH",
"587 0 LINE",
"647 0 LINE",
"647 312 LINE SMOOTH",
"647 457 OFFCURVE",
"700 525 OFFCURVE",
"775 525 CURVE SMOOTH",
"850 525 OFFCURVE",
"903 440 OFFCURVE",
"903 315 CURVE SMOOTH",
"903 0 LINE",
"963 0 LINE",
"963 315 LINE SMOOTH",
"963 440 OFFCURVE",
"1015 525 OFFCURVE",
"1108 525 CURVE SMOOTH",
"1205 525 OFFCURVE",
"1261 422 OFFCURVE",
"1261 280 CURVE SMOOTH",
"1261 151 OFFCURVE",
"1202 60 OFFCURVE",
"1074 60 CURVE",
"1074 0 LINE",
"1278 0 OFFCURVE",
"1326 163 OFFCURVE",
"1326 280 CURVE SMOOTH",
"1326 476 OFFCURVE",
"1235 580 OFFCURVE",
"1108 580 CURVE SMOOTH",
"1019 580 OFFCURVE",
"953 519 OFFCURVE",
"932 447 CURVE",
"910 519 OFFCURVE",
"860 580 OFFCURVE",
"775 580 CURVE SMOOTH",
"700 580 OFFCURVE",
"637 531 OFFCURVE",
"612 447 CURVE",
"568 531 OFFCURVE",
"474 580 OFFCURVE",
"369 580 CURVE SMOOTH",
"174 580 OFFCURVE",
"55 424 OFFCURVE",
"55 233 CURVE SMOOTH",
"55 86 OFFCURVE",
"136 -10 OFFCURVE",
"251 -10 CURVE SMOOTH"
);
},
{
closed = 1;
nodes = (
"185 45 OFFCURVE",
"123 96 OFFCURVE",
"123 172 CURVE SMOOTH",
"123 248 OFFCURVE",
"178 301 OFFCURVE",
"248 301 CURVE SMOOTH",
"318 301 OFFCURVE",
"372 246 OFFCURVE",
"372 172 CURVE SMOOTH",
"372 98 OFFCURVE",
"322 45 OFFCURVE",
"251 45 CURVE SMOOTH"
);
}
);
width = 1381;
}
);
unicode = 0D23;
},
{
glyphname = mlTA;
lastChange = "2015-07-03 10:43:56 +0000";
layers = (
{
layerId = "8E067A2A-2289-4446-99CD-66E5BEE6C169";
name = Bold;
paths = (
{
closed = 1;
nodes = (
"308 125 LINE",
"240 125 OFFCURVE",
"194 171 OFFCURVE",
"194 290 CURVE SMOOTH",
"194 411 OFFCURVE",
"265 491 OFFCURVE",
"368 491 CURVE SMOOTH",
"381 491 OFFCURVE",
"401 490 OFFCURVE",
"420 487 CURVE",
"372 444 OFFCURVE",
"328 358 OFFCURVE",
"328 260 CURVE SMOOTH",
"328 71 OFFCURVE",
"423 -10 OFFCURVE",
"538 -10 CURVE SMOOTH",
"653 -10 OFFCURVE",
"747 78 OFFCURVE",
"747 270 CURVE SMOOTH",
"747 359 OFFCURVE",
"710 442 OFFCURVE",
"663 487 CURVE",
"680 490 OFFCURVE",
"693 491 OFFCURVE",
"706 491 CURVE SMOOTH",
"809 491 OFFCURVE",
"880 411 OFFCURVE",
"880 290 CURVE SMOOTH",
"880 171 OFFCURVE",
"834 125 OFFCURVE",
"766 125 CURVE",
"766 -10 LINE",
"933 -10 OFFCURVE",
"1029 110 OFFCURVE",
"1029 291 CURVE SMOOTH",
"1029 474 OFFCURVE",
"893 610 OFFCURVE",
"706 610 CURVE SMOOTH",
"656 610 OFFCURVE",
"601 597 OFFCURVE",
"557 574 CURVE",
"513 596 OFFCURVE",
"451 610 OFFCURVE",
"378 610 CURVE SMOOTH",
"191 610 OFFCURVE",
"45 474 OFFCURVE",
"45 291 CURVE SMOOTH",
"45 110 OFFCURVE",
"141 -10 OFFCURVE",
"308 -10 CURVE"
);
},
{
closed = 1;
nodes = (
"505 112 OFFCURVE",
"479 149 OFFCURVE",
"479 270 CURVE SMOOTH",
"479 350 OFFCURVE",
"499 411 OFFCURVE",
"539 456 CURVE",
"579 409 OFFCURVE",
"600 342 OFFCURVE",
"600 260 CURVE SMOOTH",
"600 149 OFFCURVE",
"575 112 OFFCURVE",
"540 112 CURVE SMOOTH"
);
}
);
width = 1074;
},
{
layerId = "9D6DA52E-CD68-4B8E-8511-A7BD80A00452";
name = Light;
paths = (
{
closed = 1;
nodes = (
"285 47 LINE",
"182 47 OFFCURVE",
"120 133 OFFCURVE",
"120 265 CURVE SMOOTH",
"120 423 OFFCURVE",
"227 525 OFFCURVE",
"351 525 CURVE SMOOTH",
"390 525 OFFCURVE",
"416 519 OFFCURVE",
"441 509 CURVE",
"376 456 OFFCURVE",
"319 359 OFFCURVE",
"319 241 CURVE SMOOTH",
"319 82 OFFCURVE",
"396 -10 OFFCURVE",
"501 -10 CURVE SMOOTH",
"606 -10 OFFCURVE",
"684 82 OFFCURVE",
"684 241 CURVE SMOOTH",
"684 359 OFFCURVE",
"630 456 OFFCURVE",
"555 509 CURVE",
"577 518 OFFCURVE",
"598 525 OFFCURVE",
"640 525 CURVE SMOOTH",
"764 525 OFFCURVE",
"879 423 OFFCURVE",
"879 265 CURVE SMOOTH",
"879 133 OFFCURVE",
"817 47 OFFCURVE",
"714 47 CURVE",
"714 -10 LINE",
"864 -10 OFFCURVE",
"944 107 OFFCURVE",
"944 265 CURVE SMOOTH",
"944 446 OFFCURVE",
"813 580 OFFCURVE",
"640 580 CURVE SMOOTH",
"581 580 OFFCURVE",
"541 565 OFFCURVE",
"497 544 CURVE",
"458 565 OFFCURVE",
"409 580 OFFCURVE",
"349 580 CURVE SMOOTH",
"176 580 OFFCURVE",
"55 446 OFFCURVE",
"55 265 CURVE SMOOTH",
"55 107 OFFCURVE",
"135 -10 OFFCURVE",
"285 -10 CURVE"
);
},
{
closed = 1;
nodes = (
"426 47 OFFCURVE",
"384 128 OFFCURVE",
"384 237 CURVE SMOOTH",
"384 353 OFFCURVE",
"448 449 OFFCURVE",
"501 492 CURVE",
"560 449 OFFCURVE",
"619 353 OFFCURVE",
"619 237 CURVE SMOOTH",
"619 129 OFFCURVE",
"576 47 OFFCURVE",
"501 47 CURVE SMOOTH"
);
}
);
width = 999;
}
);
unicode = 0D24;
},
{
glyphname = mlTHA;
lastChange = "2015-07-03 10:43:56 +0000";
layers = (
{
layerId = "8E067A2A-2289-4446-99CD-66E5BEE6C169";
name = Bold;
paths = (
{
closed = 1;
nodes = (
"715 348 LINE SMOOTH",
"715 444 OFFCURVE",
"685 488 OFFCURVE",
"619 488 CURVE SMOOTH",
"553 488 OFFCURVE",
"523 444 OFFCURVE",
"523 348 CURVE SMOOTH",
"523 121 LINE",
"715 121 LINE"
);
},
{
closed = 1;
nodes = (
"216 121 LINE",
"382 121 LINE",
"382 348 LINE SMOOTH",
"382 516 OFFCURVE",
"468 610 OFFCURVE",
"619 610 CURVE SMOOTH",
"773 610 OFFCURVE",
"861 516 OFFCURVE",
"861 348 CURVE SMOOTH",
"861 0 LINE",
"70 0 LINE",
"70 600 LINE",
"216 600 LINE"
);
}
);
width = 931;
},
{
layerId = "9D6DA52E-CD68-4B8E-8511-A7BD80A00452";
name = Light;
paths = (
{
closed = 1;
nodes = (
"761 323 LINE",
"761 483 OFFCURVE",
"685 524 OFFCURVE",
"609 524 CURVE SMOOTH",
"533 524 OFFCURVE",
"462 483 OFFCURVE",
"462 323 CURVE",
"462 55 LINE",
"761 55 LINE"
);
},
{
closed = 1;
nodes = (
"150 55 LINE",
"402 55 LINE",
"402 323 LINE",
"402 481 OFFCURVE",
"468 580 OFFCURVE",
"609 580 CURVE SMOOTH",
"753 580 OFFCURVE",
"821 481 OFFCURVE",
"821 323 CURVE",
"821 0 LINE",
"90 0 LINE",
"90 580 LINE",
"150 580 LINE"
);
}
);
width = 911;
}
);
unicode = 0D25;
},
{
glyphname = mlDA;
lastChange = "2015-07-03 10:43:56 +0000";
layers = (
{
guideLines = (
{
position = "{445, 178}";
},
{
position = "{417, 427}";
}
);
layerId = "8E067A2A-2289-4446-99CD-66E5BEE6C169";
name = Bold;
paths = (
{
closed = 1;
nodes = (
"622 -10 OFFCURVE",
"716 60 OFFCURVE",
"716 178 CURVE SMOOTH",
"716 251 OFFCURVE",
"660 297 OFFCURVE",
"579 308 CURVE",
"642 319 OFFCURVE",
"681 359 OFFCURVE",
"681 427 CURVE SMOOTH",
"681 528 OFFCURVE",
"594 610 OFFCURVE",
"410 610 CURVE SMOOTH",
"174 610 OFFCURVE",
"55 434 OFFCURVE",
"55 270 CURVE SMOOTH",
"55 173 OFFCURVE",
"81 85 OFFCURVE",
"133 0 CURVE",
"298 0 LINE",
"236 90 OFFCURVE",
"203 165 OFFCURVE",
"203 270 CURVE SMOOTH",
"203 390 OFFCURVE",
"285 488 OFFCURVE",
"410 488 CURVE SMOOTH",
"498 488 OFFCURVE",
"533 467 OFFCURVE",
"533 427 CURVE SMOOTH",
"533 384 OFFCURVE",
"501 365 OFFCURVE",
"429 365 CURVE SMOOTH",
"398 365 LINE",
"398 243 LINE",
"439 243 LINE SMOOTH",
"529 243 OFFCURVE",
"568 220 OFFCURVE",
"568 178 CURVE SMOOTH",
"568 130 OFFCURVE",
"529 112 OFFCURVE",
"457 112 CURVE SMOOTH",
"428 112 OFFCURVE",
"394 116 OFFCURVE",
"368 123 CURVE",
"368 -1 LINE",
"398 -7 OFFCURVE",
"428 -10 OFFCURVE",
"463 -10 CURVE SMOOTH"
);
}
);
width = 761;
},
{
layerId = "9D6DA52E-CD68-4B8E-8511-A7BD80A00452";
name = Light;
paths = (
{
closed = 1;
nodes = (
"565 -10 OFFCURVE",
"636 63 OFFCURVE",
"636 158 CURVE SMOOTH",
"636 240 OFFCURVE",
"580 287 OFFCURVE",
"499 298 CURVE",
"562 309 OFFCURVE",
"601 349 OFFCURVE",
"601 417 CURVE SMOOTH",
"601 514 OFFCURVE",
"522 580 OFFCURVE",
"368 580 CURVE SMOOTH",
"188 580 OFFCURVE",
"55 434 OFFCURVE",
"55 260 CURVE SMOOTH",
"55 163 OFFCURVE",
"81 85 OFFCURVE",
"133 0 CURVE",
"205 0 LINE",
"147 88 OFFCURVE",
"120 164 OFFCURVE",
"120 260 CURVE SMOOTH",
"120 430 OFFCURVE",
"249 522 OFFCURVE",
"368 522 CURVE SMOOTH",
"473 522 OFFCURVE",
"536 486 OFFCURVE",
"536 417 CURVE SMOOTH",
"536 354 OFFCURVE",
"481 325 OFFCURVE",
"399 325 CURVE SMOOTH",
"378 325 LINE",
"378 265 LINE",
"419 265 LINE SMOOTH",
"509 265 OFFCURVE",
"571 226 OFFCURVE",
"571 158 CURVE SMOOTH",
"571 83 OFFCURVE",
"505 47 OFFCURVE",
"423 47 CURVE SMOOTH",
"394 47 OFFCURVE",
"354 52 OFFCURVE",
"328 59 CURVE",
"328 -1 LINE",
"358 -7 OFFCURVE",
"388 -10 OFFCURVE",
"423 -10 CURVE SMOOTH"
);
}
);
width = 696;
},
{
associatedMasterId = "8E067A2A-2289-4446-99CD-66E5BEE6C169";
guideLines = (
{
position = "{459.5, 177.5}";
},
{
position = "{431.5, 426.5}";
}
);
layerId = "4359A09E-2217-48BF-A22A-D19EFA029DB3";
name = "Bold Apr 17 15, 12:00";
paths = (
{
closed = 1;
nodes = (
"383 -1 LINE",
"413 -7 OFFCURVE",
"443 -10 OFFCURVE",
"478 -10 CURVE SMOOTH",
"637 -10 OFFCURVE",
"731 60 OFFCURVE",
"731 178 CURVE SMOOTH",
"731 255 OFFCURVE",
"675 297 OFFCURVE",
"594 308 CURVE",
"657 319 OFFCURVE",
"696 359 OFFCURVE",
"696 427 CURVE SMOOTH",
"696 528 OFFCURVE",
"597 610 OFFCURVE",
"413 610 CURVE SMOOTH",
"167 610 OFFCURVE",
"50 444 OFFCURVE",
"50 280 CURVE SMOOTH",
"50 153 OFFCURVE",
"104 -10 OFFCURVE",
"312 -10 CURVE",
"312 125 LINE",
"254 125 OFFCURVE",
"198 164 OFFCURVE",
"198 280 CURVE SMOOTH",
"198 410 OFFCURVE",
"288 488 OFFCURVE",
"413 488 CURVE SMOOTH",
"501 488 OFFCURVE",
"548 466 OFFCURVE",
"548 427 CURVE SMOOTH",
"548 384 OFFCURVE",
"516 365 OFFCURVE",
"444 365 CURVE SMOOTH",
"413 365 LINE",
"413 243 LINE",
"454 243 LINE SMOOTH",
"544 243 OFFCURVE",
"583 220 OFFCURVE",
"583 178 CURVE SMOOTH",
"583 130 OFFCURVE",
"548 112 OFFCURVE",
"472 112 CURVE SMOOTH",
"443 112 OFFCURVE",
"409 118 OFFCURVE",
"383 125 CURVE"
);
}
);
width = 781;
}
);
unicode = 0D26;
},
{
glyphname = mlDHA;
lastChange = "2015-07-03 10:43:56 +0000";
layers = (
{
layerId = "8E067A2A-2289-4446-99CD-66E5BEE6C169";
name = Bold;
paths = (
{
closed = 1;
nodes = (
"387 -10 OFFCURVE",
"449 24 OFFCURVE",
"480 83 CURVE",
"508 24 OFFCURVE",
"582 -10 OFFCURVE",
"656 -10 CURVE SMOOTH",
"811 -10 OFFCURVE",
"914 104 OFFCURVE",
"914 300 CURVE SMOOTH",
"914 417 OFFCURVE",
"866 600 OFFCURVE",
"652 600 CURVE",
"652 465 LINE",
"720 465 OFFCURVE",
"766 429 OFFCURVE",
"766 300 CURVE SMOOTH",
"766 168 OFFCURVE",
"715 112 OFFCURVE",
"656 112 CURVE SMOOTH",
"593 112 OFFCURVE",
"554 153 OFFCURVE",
"554 248 CURVE SMOOTH",
"554 600 LINE",
"408 600 LINE",
"408 248 LINE SMOOTH",
"408 153 OFFCURVE",
"368 112 OFFCURVE",
"305 112 CURVE SMOOTH",
"246 112 OFFCURVE",
"193 168 OFFCURVE",
"193 300 CURVE SMOOTH",
"193 429 OFFCURVE",
"239 465 OFFCURVE",
"307 465 CURVE",
"307 600 LINE",
"93 600 OFFCURVE",
"45 417 OFFCURVE",
"45 300 CURVE SMOOTH",
"45 104 OFFCURVE",
"148 -10 OFFCURVE",
"303 -10 CURVE SMOOTH"
);
}
);
width = 959;
},
{
background = {
paths = (
{
closed = 0;
nodes = (
"638 -12 LINE SMOOTH",
"812 -12 OFFCURVE",
"915 109 OFFCURVE",
"915 292 CURVE SMOOTH",
"915 457 OFFCURVE",
"826 598 OFFCURVE",
"678 598 CURVE",
"678 533 LINE",
"768 533 OFFCURVE",
"850 449 OFFCURVE",
"850 292 CURVE SMOOTH",
"850 125 OFFCURVE",
"752 43 OFFCURVE",
"638 43 CURVE SMOOTH"
);
}
);
};
layerId = "9D6DA52E-CD68-4B8E-8511-A7BD80A00452";
name = Light;
paths = (
{
closed = 1;
nodes = (
"392 -10 OFFCURVE",
"449 37 OFFCURVE",
"478 101 CURVE",
"505 37 OFFCURVE",
"565 -10 OFFCURVE",
"654 -10 CURVE SMOOTH",
"799 -10 OFFCURVE",
"902 84 OFFCURVE",
"902 280 CURVE SMOOTH",
"902 397 OFFCURVE",
"844 580 OFFCURVE",
"630 580 CURVE",
"630 520 LINE",
"768 520 OFFCURVE",
"837 419 OFFCURVE",
"837 280 CURVE SMOOTH",
"837 138 OFFCURVE",
"769 45 OFFCURVE",
"654 45 CURVE SMOOTH",
"571 45 OFFCURVE",
"509 116 OFFCURVE",
"509 211 CURVE SMOOTH",
"509 580 LINE",
"449 580 LINE",
"449 211 LINE SMOOTH",
"449 116 OFFCURVE",
"386 45 OFFCURVE",
"303 45 CURVE SMOOTH",
"198 45 OFFCURVE",
"120 138 OFFCURVE",
"120 280 CURVE SMOOTH",
"120 419 OFFCURVE",
"189 520 OFFCURVE",
"327 520 CURVE",
"327 580 LINE",
"113 580 OFFCURVE",
"55 397 OFFCURVE",
"55 280 CURVE SMOOTH",
"55 84 OFFCURVE",
"168 -10 OFFCURVE",
"303 -10 CURVE SMOOTH"
);
}
);
width = 957;
}
);
unicode = 0D27;
},
{
glyphname = mlNA;
lastChange = "2015-07-03 10:43:56 +0000";
layers = (
{
layerId = "8E067A2A-2289-4446-99CD-66E5BEE6C169";
name = Bold;
paths = (
{
closed = 1;
nodes = (
"148 610 OFFCURVE",
"45 496 OFFCURVE",
"45 300 CURVE SMOOTH",
"45 183 OFFCURVE",
"93 0 OFFCURVE",
"307 0 CURVE",
"307 135 LINE",
"239 135 OFFCURVE",
"193 171 OFFCURVE",
"193 300 CURVE SMOOTH",
"193 432 OFFCURVE",
"246 488 OFFCURVE",
"305 488 CURVE SMOOTH",
"368 488 OFFCURVE",
"408 447 OFFCURVE",
"408 352 CURVE SMOOTH",
"408 0 LINE",
"554 0 LINE",
"554 352 LINE SMOOTH",
"554 447 OFFCURVE",
"593 488 OFFCURVE",
"656 488 CURVE SMOOTH",
"715 488 OFFCURVE",
"766 432 OFFCURVE",
"766 300 CURVE SMOOTH",
"766 171 OFFCURVE",
"720 135 OFFCURVE",
"652 135 CURVE",
"652 0 LINE",
"866 0 OFFCURVE",
"914 183 OFFCURVE",
"914 300 CURVE SMOOTH",
"914 496 OFFCURVE",
"811 610 OFFCURVE",
"656 610 CURVE SMOOTH",
"582 610 OFFCURVE",
"508 576 OFFCURVE",
"480 517 CURVE",
"449 576 OFFCURVE",
"387 610 OFFCURVE",
"303 610 CURVE SMOOTH"
);
}
);
width = 959;
},
{
layerId = "9D6DA52E-CD68-4B8E-8511-A7BD80A00452";
name = Light;
paths = (
{
closed = 1;
nodes = (
"168 580 OFFCURVE",
"55 486 OFFCURVE",
"55 290 CURVE SMOOTH",
"55 173 OFFCURVE",
"113 -10 OFFCURVE",
"327 -10 CURVE",
"327 50 LINE",
"189 50 OFFCURVE",
"120 151 OFFCURVE",
"120 290 CURVE SMOOTH",
"120 432 OFFCURVE",
"198 525 OFFCURVE",
"303 525 CURVE SMOOTH",
"386 525 OFFCURVE",
"449 454 OFFCURVE",
"449 359 CURVE SMOOTH",
"449 -10 LINE",
"509 -10 LINE",
"509 359 LINE SMOOTH",
"509 454 OFFCURVE",
"571 525 OFFCURVE",
"654 525 CURVE SMOOTH",
"769 525 OFFCURVE",
"837 432 OFFCURVE",
"837 290 CURVE SMOOTH",
"837 151 OFFCURVE",
"768 50 OFFCURVE",
"630 50 CURVE",
"630 -10 LINE",
"844 -10 OFFCURVE",
"902 173 OFFCURVE",
"902 290 CURVE SMOOTH",
"902 486 OFFCURVE",
"799 580 OFFCURVE",
"654 580 CURVE SMOOTH",
"565 580 OFFCURVE",
"505 533 OFFCURVE",
"478 469 CURVE",
"449 533 OFFCURVE",
"392 580 OFFCURVE",
"303 580 CURVE SMOOTH"
);
}
);
width = 957;
}
);
unicode = 0D28;
},
{
glyphname = mlNNNA;
lastChange = "2015-07-03 10:43:56 +0000";
layers = (
{
guideLines = (
{
angle = 90;
position = "{726, 210}";
}
);
layerId = "8E067A2A-2289-4446-99CD-66E5BEE6C169";
name = Bold;
paths = (
{
closed = 1;
nodes = (
"397 -10 OFFCURVE",
"493 70 OFFCURVE",
"493 189 CURVE SMOOTH",
"493 306 OFFCURVE",
"411 391 OFFCURVE",
"304 391 CURVE SMOOTH",
"256 391 OFFCURVE",
"211 368 OFFCURVE",
"189 339 CURVE",
"200 428 OFFCURVE",
"292 492 OFFCURVE",
"382 492 CURVE SMOOTH",
"497 492 OFFCURVE",
"584 399 OFFCURVE",
"584 267 CURVE SMOOTH",
"584 0 LINE",
"726 0 LINE",
"726 342 LINE",
"726 437 OFFCURVE",
"770 478 OFFCURVE",
"833 478 CURVE SMOOTH",
"892 478 OFFCURVE",
"938 422 OFFCURVE",
"938 290 CURVE SMOOTH",
"938 161 OFFCURVE",
"892 125 OFFCURVE",
"824 125 CURVE",
"824 -10 LINE",
"1038 -10 OFFCURVE",
"1086 173 OFFCURVE",
"1086 290 CURVE SMOOTH",
"1086 486 OFFCURVE",
"988 600 OFFCURVE",
"833 600 CURVE SMOOTH",
"749 600 OFFCURVE",
"673 554 OFFCURVE",
"642 484 CURVE",
"581 567 OFFCURVE",
"480 609 OFFCURVE",
"383 609 CURVE SMOOTH",
"196 609 OFFCURVE",
"50 469 OFFCURVE",
"50 276 CURVE SMOOTH",
"50 111 OFFCURVE",
"144 -10 OFFCURVE",
"281 -10 CURVE SMOOTH"
);
},
{
closed = 1;
nodes = (
"230 111 OFFCURVE",
"198 150 OFFCURVE",
"198 191 CURVE SMOOTH",
"198 232 OFFCURVE",
"230 271 OFFCURVE",
"276 271 CURVE SMOOTH",
"322 271 OFFCURVE",
"354 232 OFFCURVE",
"354 191 CURVE SMOOTH",
"354 150 OFFCURVE",
"322 111 OFFCURVE",
"276 111 CURVE SMOOTH"
);
}
);
width = 1131;
},
{
guideLines = (
{
angle = 90;
position = "{606, 319}";
}
);
layerId = "9D6DA52E-CD68-4B8E-8511-A7BD80A00452";
name = Light;
paths = (
{
closed = 1;
nodes = (
"366 -10 OFFCURVE",
"435 80 OFFCURVE",
"435 172 CURVE SMOOTH",
"435 282 OFFCURVE",
"354 358 OFFCURVE",
"250 358 CURVE SMOOTH",
"192 358 OFFCURVE",
"137 327 OFFCURVE",
"111 275 CURVE",
"135 434 OFFCURVE",
"245 524 OFFCURVE",
"367 524 CURVE SMOOTH",
"477 524 OFFCURVE",
"576 449 OFFCURVE",
"576 319 CURVE",
"576 0 LINE",
"636 0 LINE",
"636 319 LINE",
"633 444 OFFCURVE",
"703 525 OFFCURVE",
"793 525 CURVE SMOOTH",
"898 525 OFFCURVE",
"956 422 OFFCURVE",
"956 280 CURVE SMOOTH",
"956 151 OFFCURVE",
"897 60 OFFCURVE",
"779 60 CURVE",
"779 0 LINE",
"973 0 OFFCURVE",
"1021 163 OFFCURVE",
"1021 280 CURVE SMOOTH",
"1021 476 OFFCURVE",
"928 580 OFFCURVE",
"793 580 CURVE SMOOTH",
"712 580 OFFCURVE",
"633 528 OFFCURVE",
"606 437 CURVE",
"571 518 OFFCURVE",
"487 580 OFFCURVE",
"367 580 CURVE SMOOTH",
"172 580 OFFCURVE",
"55 417 OFFCURVE",
"55 256 CURVE SMOOTH",
"55 89 OFFCURVE",
"136 -10 OFFCURVE",
"251 -10 CURVE SMOOTH"
);
},
{
closed = 1;
nodes = (
"185 45 OFFCURVE",
"123 96 OFFCURVE",
"123 172 CURVE SMOOTH",
"123 248 OFFCURVE",
"178 301 OFFCURVE",
"248 301 CURVE SMOOTH",
"318 301 OFFCURVE",
"370 248 OFFCURVE",
"370 172 CURVE SMOOTH",
"370 96 OFFCURVE",
"322 45 OFFCURVE",
"251 45 CURVE SMOOTH"
);
}
);
width = 1076;
}
);
unicode = 0D29;
},
{
glyphname = mlPA;
lastChange = "2015-07-03 10:43:56 +0000";
layers = (
{
guideLines = (
{
position = "{476, 89}";
}
);
layerId = "8E067A2A-2289-4446-99CD-66E5BEE6C169";
name = Bold;
paths = (
{
closed = 1;
nodes = (
"278 125 LINE",
"225 130 OFFCURVE",
"193 176 OFFCURVE",
"193 246 CURVE SMOOTH",
"193 321 OFFCURVE",
"250 373 OFFCURVE",
"318 373 CURVE SMOOTH",
"386 373 OFFCURVE",
"444 326 OFFCURVE",
"444 246 CURVE SMOOTH",
"444 181 OFFCURVE",
"417 142 OFFCURVE",
"382 117 CURVE",
"382 0 LINE",
"860 0 LINE",
"860 600 LINE",
"719 600 LINE",
"719 122 LINE",
"624 122 LINE",
"595 122 OFFCURVE",
"575 123 OFFCURVE",
"541 118 CURVE",
"570 147 OFFCURVE",
"592 199 OFFCURVE",
"592 251 CURVE SMOOTH",
"592 395 OFFCURVE",
"463 495 OFFCURVE",
"318 495 CURVE SMOOTH",
"173 495 OFFCURVE",
"45 388 OFFCURVE",
"45 241 CURVE SMOOTH",
"45 93 OFFCURVE",
"145 -6 OFFCURVE",
"278 -10 CURVE"
);
}
);
width = 930;
},
{
layerId = "9D6DA52E-CD68-4B8E-8511-A7BD80A00452";
name = Light;
paths = (
{
closed = 1;
nodes = (
"245 50 LINE",
"183 50 OFFCURVE",
"105 105 OFFCURVE",
"105 227 CURVE SMOOTH",
"105 318 OFFCURVE",
"161 414 OFFCURVE",
"275 414 CURVE SMOOTH",
"386 414 OFFCURVE",
"446 326 OFFCURVE",
"446 227 CURVE SMOOTH",
"446 148 OFFCURVE",
"414 95 OFFCURVE",
"366 52 CURVE",
"366 0 LINE",
"824 0 LINE",
"824 580 LINE",
"764 580 LINE",
"764 55 LINE",
"535 55 LINE",
"506 55 OFFCURVE",
"481 56 OFFCURVE",
"447 51 CURVE",
"480 90 OFFCURVE",
"511 148 OFFCURVE",
"511 228 CURVE SMOOTH",
"511 352 OFFCURVE",
"428 469 OFFCURVE",
"275 469 CURVE SMOOTH",
"121 469 OFFCURVE",
"40 344 OFFCURVE",
"40 227 CURVE SMOOTH",
"40 117 OFFCURVE",
"106 -10 OFFCURVE",
"245 -10 CURVE"
);
}
);
width = 916;
}
);
unicode = 0D2A;
},
{
glyphname = mlPHA;
lastChange = "2015-07-03 10:43:56 +0000";
layers = (
{
layerId = "8E067A2A-2289-4446-99CD-66E5BEE6C169";
name = Bold;
paths = (
{
closed = 1;
nodes = (
"278 125 LINE",
"225 130 OFFCURVE",
"193 176 OFFCURVE",
"193 246 CURVE SMOOTH",
"193 321 OFFCURVE",
"250 373 OFFCURVE",
"318 373 CURVE SMOOTH",
"386 373 OFFCURVE",
"444 326 OFFCURVE",
"444 246 CURVE SMOOTH",
"444 181 OFFCURVE",
"417 142 OFFCURVE",
"382 117 CURVE",
"382 0 LINE",
"1179 0 LINE",
"1179 349 LINE",
"1179 517 OFFCURVE",
"1091 610 OFFCURVE",
"937 610 CURVE SMOOTH",
"786 610 OFFCURVE",
"700 517 OFFCURVE",
"700 349 CURVE",
"700 122 LINE",
"624 122 LINE",
"595 122 OFFCURVE",
"575 123 OFFCURVE",
"541 118 CURVE",
"570 147 OFFCURVE",
"592 199 OFFCURVE",
"592 251 CURVE SMOOTH",
"592 395 OFFCURVE",
"463 495 OFFCURVE",
"318 495 CURVE SMOOTH",
"173 495 OFFCURVE",
"45 388 OFFCURVE",
"45 241 CURVE SMOOTH",
"45 93 OFFCURVE",
"145 -6 OFFCURVE",
"278 -10 CURVE"
);
},
{
closed = 1;
nodes = (
"845 349 LINE",
"845 445 OFFCURVE",
"871 488 OFFCURVE",
"937 488 CURVE SMOOTH",
"1003 488 OFFCURVE",
"1033 445 OFFCURVE",
"1033 349 CURVE SMOOTH",
"1033 121 LINE",
"845 121 LINE"
);
}
);
width = 1249;
},
{
guideLines = (
{
position = "{386, 65}";
},
{
position = "{250, 241}";
}
);
layerId = "9D6DA52E-CD68-4B8E-8511-A7BD80A00452";
name = Light;
paths = (
{
closed = 1;
nodes = (
"245 50 LINE",
"183 50 OFFCURVE",
"105 105 OFFCURVE",
"105 227 CURVE SMOOTH",
"105 318 OFFCURVE",
"161 414 OFFCURVE",
"275 414 CURVE SMOOTH",
"386 414 OFFCURVE",
"446 326 OFFCURVE",
"446 227 CURVE SMOOTH",
"446 148 OFFCURVE",
"414 95 OFFCURVE",
"366 52 CURVE",
"366 0 LINE",
"1083 0 LINE",
"1083 349 LINE",
"1083 497 OFFCURVE",
"1006 580 OFFCURVE",
"871 580 CURVE SMOOTH",
"740 580 OFFCURVE",
"664 497 OFFCURVE",
"664 349 CURVE",
"664 55 LINE",
"535 55 LINE",
"506 55 OFFCURVE",
"481 56 OFFCURVE",
"447 51 CURVE",
"480 90 OFFCURVE",
"511 148 OFFCURVE",
"511 228 CURVE SMOOTH",
"511 352 OFFCURVE",
"428 469 OFFCURVE",
"275 469 CURVE SMOOTH",
"121 469 OFFCURVE",
"40 344 OFFCURVE",
"40 227 CURVE SMOOTH",
"40 117 OFFCURVE",
"106 -10 OFFCURVE",
"245 -10 CURVE"
);
},
{
closed = 1;
nodes = (
"724 349 LINE",
"724 462 OFFCURVE",
"787 523 OFFCURVE",
"871 523 CURVE SMOOTH",
"955 523 OFFCURVE",
"1023 462 OFFCURVE",
"1023 349 CURVE",
"1023 55 LINE",
"724 55 LINE"
);
}
);
width = 1173;
}
);
unicode = 0D2B;
},
{
glyphname = mlBA;
lastChange = "2015-07-03 10:43:56 +0000";
layers = (
{
guideLines = (
{
angle = 90;
position = "{861, 305}";
},
{
angle = 90;
position = "{663, 302}";
}
);
layerId = "8E067A2A-2289-4446-99CD-66E5BEE6C169";
name = Bold;
paths = (
{
closed = 1;
nodes = (
"938 204 OFFCURVE",
"904 143 OFFCURVE",
"859 117 CURVE",
"859 0 LINE",
"1377 0 LINE",
"1377 600 LINE",
"1231 600 LINE",
"1231 122 LINE",
"1034 122 LINE",
"1059 158 OFFCURVE",
"1086 237 OFFCURVE",
"1086 300 CURVE SMOOTH",
"1086 486 OFFCURVE",
"988 600 OFFCURVE",
"833 600 CURVE SMOOTH",
"749 600 OFFCURVE",
"673 554 OFFCURVE",
"642 484 CURVE",
"581 567 OFFCURVE",
"480 609 OFFCURVE",
"383 609 CURVE SMOOTH",
"196 609 OFFCURVE",
"50 469 OFFCURVE",
"50 276 CURVE SMOOTH",
"50 111 OFFCURVE",
"144 -10 OFFCURVE",
"281 -10 CURVE SMOOTH",
"397 -10 OFFCURVE",
"493 70 OFFCURVE",
"493 189 CURVE SMOOTH",
"493 306 OFFCURVE",
"411 391 OFFCURVE",
"304 391 CURVE SMOOTH",
"256 391 OFFCURVE",
"211 368 OFFCURVE",
"189 339 CURVE",
"200 428 OFFCURVE",
"292 492 OFFCURVE",
"382 492 CURVE SMOOTH",
"497 492 OFFCURVE",
"584 399 OFFCURVE",
"584 267 CURVE SMOOTH",
"584 0 LINE",
"726 0 LINE",
"726 342 LINE",
"726 437 OFFCURVE",
"770 478 OFFCURVE",
"833 478 CURVE SMOOTH",
"892 478 OFFCURVE",
"938 420 OFFCURVE",
"938 298 CURVE SMOOTH"
);
},
{
closed = 1;
nodes = (
"230 111 OFFCURVE",
"198 150 OFFCURVE",
"198 191 CURVE SMOOTH",
"198 232 OFFCURVE",
"230 271 OFFCURVE",
"276 271 CURVE SMOOTH",
"322 271 OFFCURVE",
"354 232 OFFCURVE",
"354 191 CURVE SMOOTH",
"354 150 OFFCURVE",
"322 111 OFFCURVE",
"276 111 CURVE SMOOTH"
);
}
);
width = 1447;
},
{
guideLines = (
{
angle = 90;
position = "{612, 352}";
}
);
layerId = "9D6DA52E-CD68-4B8E-8511-A7BD80A00452";
name = Light;
paths = (
{
closed = 1;
nodes = (
"956 184 OFFCURVE",
"904 98 OFFCURVE",
"844 55 CURVE",
"844 0 LINE",
"1310 0 LINE",
"1310 580 LINE",
"1250 580 LINE",
"1250 55 LINE",
"928 55 LINE",
"982 107 OFFCURVE",
"1021 200 OFFCURVE",
"1021 290 CURVE SMOOTH",
"1021 476 OFFCURVE",
"928 580 OFFCURVE",
"793 580 CURVE SMOOTH",
"712 580 OFFCURVE",
"633 528 OFFCURVE",
"606 427 CURVE",
"561 518 OFFCURVE",
"487 580 OFFCURVE",
"367 580 CURVE SMOOTH",
"172 580 OFFCURVE",
"55 417 OFFCURVE",
"55 256 CURVE SMOOTH",
"55 89 OFFCURVE",
"136 -10 OFFCURVE",
"251 -10 CURVE SMOOTH",
"366 -10 OFFCURVE",
"435 80 OFFCURVE",
"435 172 CURVE SMOOTH",
"435 282 OFFCURVE",
"354 358 OFFCURVE",
"250 358 CURVE SMOOTH",
"192 358 OFFCURVE",
"137 327 OFFCURVE",
"111 275 CURVE",
"135 434 OFFCURVE",
"245 524 OFFCURVE",
"367 524 CURVE SMOOTH",
"477 524 OFFCURVE",
"576 449 OFFCURVE",
"576 319 CURVE",
"576 0 LINE",
"636 0 LINE",
"636 319 LINE",
"633 444 OFFCURVE",
"703 525 OFFCURVE",
"793 525 CURVE SMOOTH",
"898 525 OFFCURVE",
"956 420 OFFCURVE",
"956 288 CURVE SMOOTH"
);
},
{
closed = 1;
nodes = (
"185 45 OFFCURVE",
"123 96 OFFCURVE",
"123 172 CURVE SMOOTH",
"123 248 OFFCURVE",
"178 301 OFFCURVE",
"248 301 CURVE SMOOTH",
"318 301 OFFCURVE",
"370 248 OFFCURVE",
"370 172 CURVE SMOOTH",
"370 96 OFFCURVE",
"322 45 OFFCURVE",
"251 45 CURVE SMOOTH"
);
}
);
width = 1400;
},
{
associatedMasterId = "8E067A2A-2289-4446-99CD-66E5BEE6C169";
guideLines = (
{
angle = 90;
position = "{861, 305}";
},
{
angle = 90;
position = "{663, 302}";
}
);
layerId = "21832872-D8A3-4253-AB36-03E50B155AD9";
name = "Bold May 4 15, 19:21";
paths = (
{
closed = 0;
nodes = (
"938 298 LINE",
"938 204 OFFCURVE",
"904 143 OFFCURVE",
"859 117 CURVE",
"859 0 LINE",
"1377 0 LINE",
"1377 600 LINE",
"1231 600 LINE",
"1231 122 LINE",
"1034 122 LINE",
"1059 158 OFFCURVE",
"1086 237 OFFCURVE",
"1086 300 CURVE"
);
},
{
closed = 1;
nodes = (
"230 111 OFFCURVE",
"198 150 OFFCURVE",
"198 191 CURVE SMOOTH",
"198 232 OFFCURVE",
"230 271 OFFCURVE",
"276 271 CURVE SMOOTH",
"322 271 OFFCURVE",
"354 232 OFFCURVE",
"354 191 CURVE SMOOTH",
"354 150 OFFCURVE",
"322 111 OFFCURVE",
"276 111 CURVE SMOOTH"
);
},
{
closed = 0;
nodes = (
"1086 290 LINE",
"1086 486 OFFCURVE",
"988 600 OFFCURVE",
"833 600 CURVE SMOOTH",
"749 600 OFFCURVE",
"673 554 OFFCURVE",
"642 484 CURVE",
"581 567 OFFCURVE",
"480 609 OFFCURVE",
"383 609 CURVE SMOOTH",
"196 609 OFFCURVE",
"50 469 OFFCURVE",
"50 276 CURVE SMOOTH",
"50 111 OFFCURVE",
"144 -10 OFFCURVE",
"281 -10 CURVE SMOOTH",
"397 -10 OFFCURVE",
"493 70 OFFCURVE",
"493 189 CURVE SMOOTH",
"493 306 OFFCURVE",
"411 391 OFFCURVE",
"304 391 CURVE SMOOTH",
"256 391 OFFCURVE",
"211 368 OFFCURVE",
"189 339 CURVE",
"200 428 OFFCURVE",
"292 492 OFFCURVE",
"382 492 CURVE SMOOTH",
"497 492 OFFCURVE",
"584 399 OFFCURVE",
"584 267 CURVE SMOOTH",
"584 0 LINE",
"726 0 LINE",
"726 342 LINE",
"726 437 OFFCURVE",
"770 478 OFFCURVE",
"833 478 CURVE SMOOTH",
"892 478 OFFCURVE",
"938 422 OFFCURVE",
"938 290 CURVE"
);
}
);
width = 1474;
},
{
associatedMasterId = "9D6DA52E-CD68-4B8E-8511-A7BD80A00452";
guideLines = (
{
angle = 90;
position = "{622.5, 352}";
}
);
layerId = "4B36F3F4-BA84-40F3-8E5F-CD8FE89C0339";
name = "Light May 4 15, 19:23";
paths = (
{
closed = 0;
nodes = (
"967 288 LINE",
"967 184 OFFCURVE",
"915 98 OFFCURVE",
"855 55 CURVE",
"855 0 LINE",
"1323 0 LINE",
"1323 580 LINE",
"1258 580 LINE",
"1258 55 LINE",
"939 55 LINE",
"993 107 OFFCURVE",
"1032 200 OFFCURVE",
"1032 290 CURVE"
);
},
{
closed = 1;
nodes = (
"196 45 OFFCURVE",
"134 96 OFFCURVE",
"134 172 CURVE SMOOTH",
"134 248 OFFCURVE",
"189 301 OFFCURVE",
"259 301 CURVE SMOOTH",
"329 301 OFFCURVE",
"381 248 OFFCURVE",
"381 172 CURVE SMOOTH",
"381 96 OFFCURVE",
"333 45 OFFCURVE",
"262 45 CURVE SMOOTH"
);
},
{
closed = 0;
nodes = (
"1032 280 LINE",
"1032 476 OFFCURVE",
"939 580 OFFCURVE",
"804 580 CURVE SMOOTH",
"723 580 OFFCURVE",
"644 528 OFFCURVE",
"617 427 CURVE",
"572 518 OFFCURVE",
"498 580 OFFCURVE",
"378 580 CURVE SMOOTH",
"183 580 OFFCURVE",
"66 417 OFFCURVE",
"66 256 CURVE SMOOTH",
"66 89 OFFCURVE",
"147 -10 OFFCURVE",
"262 -10 CURVE SMOOTH",
"377 -10 OFFCURVE",
"446 80 OFFCURVE",
"446 172 CURVE SMOOTH",
"446 282 OFFCURVE",
"365 358 OFFCURVE",
"261 358 CURVE SMOOTH",
"203 358 OFFCURVE",
"148 327 OFFCURVE",
"122 275 CURVE",
"146 434 OFFCURVE",
"256 524 OFFCURVE",
"378 524 CURVE SMOOTH",
"488 524 OFFCURVE",
"584 449 OFFCURVE",
"584 319 CURVE",
"584 0 LINE",
"649 0 LINE",
"649 319 LINE",
"646 444 OFFCURVE",
"714 525 OFFCURVE",
"804 525 CURVE SMOOTH",
"909 525 OFFCURVE",
"967 422 OFFCURVE",
"967 280 CURVE"
);
}
);
width = 1414;
visible = 1;
}
);
unicode = 0D2C;
},
{
glyphname = mlBHA;
lastChange = "2015-07-03 10:43:56 +0000";
layers = (
{
layerId = "8E067A2A-2289-4446-99CD-66E5BEE6C169";
name = Bold;
paths = (
{
closed = 1;
nodes = (
"279 13 LINE",
"314 -2 OFFCURVE",
"380 -15 OFFCURVE",
"436 -15 CURVE SMOOTH",
"575 -15 OFFCURVE",
"665 26 OFFCURVE",
"665 130 CURVE SMOOTH",
"665 223 OFFCURVE",
"594 257 OFFCURVE",
"495 257 CURVE SMOOTH",
"423 257 OFFCURVE",
"406 264 OFFCURVE",
"406 281 CURVE SMOOTH",
"406 293 OFFCURVE",
"414 300 OFFCURVE",
"434 300 CURVE SMOOTH",
"450 300 OFFCURVE",
"474 298 OFFCURVE",
"493 298 CURVE SMOOTH",
"587 298 OFFCURVE",
"649 350 OFFCURVE",
"649 445 CURVE SMOOTH",
"649 537 OFFCURVE",
"534 610 OFFCURVE",
"382 610 CURVE SMOOTH",
"199 610 OFFCURVE",
"70 504 OFFCURVE",
"70 323 CURVE SMOOTH",
"70 0 LINE",
"216 0 LINE",
"216 323 LINE SMOOTH",
"216 435 OFFCURVE",
"284 488 OFFCURVE",
"382 488 CURVE SMOOTH",
"469 488 OFFCURVE",
"513 470 OFFCURVE",
"513 445 CURVE SMOOTH",
"513 422 OFFCURVE",
"498 412 OFFCURVE",
"470 412 CURVE SMOOTH",
"452 412 OFFCURVE",
"433 414 OFFCURVE",
"418 414 CURVE SMOOTH",
"343 414 OFFCURVE",
"274 368 OFFCURVE",
"274 284 CURVE SMOOTH",
"274 175 OFFCURVE",
"361 146 OFFCURVE",
"463 146 CURVE SMOOTH",
"502 146 OFFCURVE",
"533 148 OFFCURVE",
"533 124 CURVE SMOOTH",
"533 108 OFFCURVE",
"516 101 OFFCURVE",
"436 101 CURVE SMOOTH",
"387 101 OFFCURVE",
"323 117 OFFCURVE",
"279 135 CURVE"
);
}
);
width = 710;
},
{
guideLines = (
{
position = "{472, 286}";
}
);
layerId = "9D6DA52E-CD68-4B8E-8511-A7BD80A00452";
name = Light;
paths = (
{
closed = 1;
nodes = (
"277 13 LINE",
"312 -2 OFFCURVE",
"378 -15 OFFCURVE",
"424 -15 CURVE SMOOTH",
"553 -15 OFFCURVE",
"623 32 OFFCURVE",
"623 106 CURVE SMOOTH",
"623 184 OFFCURVE",
"558 215 OFFCURVE",
"463 215 CURVE SMOOTH",
"361 215 OFFCURVE",
"327 239 OFFCURVE",
"327 281 CURVE SMOOTH",
"327 321 OFFCURVE",
"358 340 OFFCURVE",
"412 340 CURVE SMOOTH",
"428 340 OFFCURVE",
"452 338 OFFCURVE",
"471 338 CURVE SMOOTH",
"565 338 OFFCURVE",
"601 394 OFFCURVE",
"601 450 CURVE SMOOTH",
"601 523 OFFCURVE",
"527 580 OFFCURVE",
"380 580 CURVE SMOOTH",
"207 580 OFFCURVE",
"90 474 OFFCURVE",
"90 293 CURVE SMOOTH",
"90 0 LINE",
"150 0 LINE",
"150 293 LINE SMOOTH",
"150 438 OFFCURVE",
"242 525 OFFCURVE",
"380 525 CURVE SMOOTH",
"489 525 OFFCURVE",
"536 491 OFFCURVE",
"536 453 CURVE SMOOTH",
"536 411 OFFCURVE",
"511 392 OFFCURVE",
"448 392 CURVE SMOOTH",
"430 392 OFFCURVE",
"411 394 OFFCURVE",
"396 394 CURVE SMOOTH",
"325 394 OFFCURVE",
"262 349 OFFCURVE",
"262 281 CURVE SMOOTH",
"262 209 OFFCURVE",
"325 158 OFFCURVE",
"431 158 CURVE SMOOTH",
"517 158 OFFCURVE",
"558 152 OFFCURVE",
"558 106 CURVE SMOOTH",
"558 60 OFFCURVE",
"510 42 OFFCURVE",
"424 42 CURVE SMOOTH",
"378 42 OFFCURVE",
"321 56 OFFCURVE",
"277 74 CURVE"
);
}
);
width = 668;
}
);
unicode = 0D2D;
},
{
glyphname = mlMA;
lastChange = "2015-07-03 10:43:56 +0000";
layers = (
{
layerId = "8E067A2A-2289-4446-99CD-66E5BEE6C169";
name = Bold;
paths = (
{
closed = 1;
nodes = (
"528 499 OFFCURVE",
"591 421 OFFCURVE",
"591 315 CURVE SMOOTH",
"591 111 LINE",
"205 111 LINE",
"205 315 LINE SMOOTH",
"205 421 OFFCURVE",
"279 499 OFFCURVE",
"398 499 CURVE SMOOTH"
);
},
{
closed = 1;
nodes = (
"70 0 LINE",
"726 0 LINE",
"726 315 LINE SMOOTH",
"726 506 OFFCURVE",
"599 610 OFFCURVE",
"398 610 CURVE SMOOTH",
"207 610 OFFCURVE",
"70 506 OFFCURVE",
"70 315 CURVE SMOOTH"
);
},
{
closed = 1;
nodes = (
"442 400 OFFCURVE",
"323 264 OFFCURVE",
"202 107 CURVE",
"353 107 LINE",
"463 245 OFFCURVE",
"599 386 OFFCURVE",
"460 521 CURVE",
"344 521 LINE"
);
}
);
width = 796;
},
{
associatedMasterId = "9D6DA52E-CD68-4B8E-8511-A7BD80A00452";
layerId = "9F1180AA-CDF7-4CBF-B459-28A011F68315";
name = "Light Apr 28 15, 15:55";
paths = (
{
closed = 1;
nodes = (
"205 580 OFFCURVE",
"91 476 OFFCURVE",
"91 285 CURVE SMOOTH",
"91 0 LINE",
"667 0 LINE",
"667 285 LINE SMOOTH",
"667 477 OFFCURVE",
"562 580 OFFCURVE",
"379 580 CURVE SMOOTH"
);
},
{
closed = 1;
nodes = (
"156 285 LINE SMOOTH",
"156 435 OFFCURVE",
"238 522 OFFCURVE",
"379 522 CURVE SMOOTH",
"532 522 OFFCURVE",
"602 418 OFFCURVE",
"602 285 CURVE SMOOTH",
"602 55 LINE",
"156 55 LINE"
);
},
{
closed = 1;
nodes = (
"503 395 OFFCURVE",
"338 233 OFFCURVE",
"145 50 CURVE",
"228 50 LINE",
"408 230 OFFCURVE",
"556 410 OFFCURVE",
"428 544 CURVE",
"369 544 LINE"
);
}
);
width = 758;
},
{
layerId = "9D6DA52E-CD68-4B8E-8511-A7BD80A00452";
name = Light;
paths = (
{
closed = 1;
nodes = (
"520 525 OFFCURVE",
"596 419 OFFCURVE",
"596 285 CURVE SMOOTH",
"596 55 LINE",
"150 55 LINE",
"150 285 LINE SMOOTH",
"150 419 OFFCURVE",
"226 525 OFFCURVE",
"373 525 CURVE SMOOTH"
);
},
{
closed = 1;
nodes = (
"90 0 LINE",
"656 0 LINE",
"656 285 LINE SMOOTH",
"656 476 OFFCURVE",
"534 580 OFFCURVE",
"373 580 CURVE SMOOTH",
"212 580 OFFCURVE",
"90 476 OFFCURVE",
"90 285 CURVE SMOOTH"
);
},
{
closed = 1;
nodes = (
"498 384 OFFCURVE",
"294 197 OFFCURVE",
"143 49 CURVE",
"225 49 LINE",
"359 187 OFFCURVE",
"549 377 OFFCURVE",
"425 541 CURVE",
"365 541 LINE"
);
}
);
width = 746;
}
);
unicode = 0D2E;
},
{
glyphname = mlYA;
lastChange = "2015-07-03 10:43:56 +0000";
layers = (
{
guideLines = (
{
angle = 90;
position = "{573, 330}";
}
);
layerId = "8E067A2A-2289-4446-99CD-66E5BEE6C169";
name = Bold;
paths = (
{
closed = 1;
nodes = (
"652 -10 OFFCURVE",
"799 213 OFFCURVE",
"799 372 CURVE SMOOTH",
"799 525 OFFCURVE",
"706 610 OFFCURVE",
"572 610 CURVE SMOOTH",
"497 610 OFFCURVE",
"420 559 OFFCURVE",
"405 485 CURVE",
"396 389 LINE",
"481 389 LINE",
"481 445 OFFCURVE",
"516 488 OFFCURVE",
"572 488 CURVE SMOOTH",
"633 488 OFFCURVE",
"664 445 OFFCURVE",
"664 365 CURVE SMOOTH",
"664 232 OFFCURVE",
"557 120 OFFCURVE",
"419 120 CURVE SMOOTH",
"301 120 OFFCURVE",
"198 225 OFFCURVE",
"198 378 CURVE SMOOTH",
"198 445 OFFCURVE",
"225 488 OFFCURVE",
"272 488 CURVE SMOOTH",
"342 488 OFFCURVE",
"332 399 OFFCURVE",
"363 294 CURVE SMOOTH",
"425 88 OFFCURVE",
"580 -10 OFFCURVE",
"745 -10 CURVE SMOOTH",
"961 -10 OFFCURVE",
"1095 149 OFFCURVE",
"1095 326 CURVE SMOOTH",
"1095 497 OFFCURVE",
"994 610 OFFCURVE",
"833 610 CURVE",
"833 475 LINE",
"891 475 OFFCURVE",
"947 435 OFFCURVE",
"947 326 CURVE SMOOTH",
"947 211 OFFCURVE",
"866 115 OFFCURVE",
"749 115 CURVE SMOOTH",
"603 115 OFFCURVE",
"541 184 OFFCURVE",
"503 317 CURVE SMOOTH",
"442 527 OFFCURVE",
"396 610 OFFCURVE",
"262 610 CURVE SMOOTH",
"135 610 OFFCURVE",
"50 511 OFFCURVE",
"50 369 CURVE SMOOTH",
"50 145 OFFCURVE",
"219 -10 OFFCURVE",
"412 -10 CURVE SMOOTH"
);
}
);
width = 1140;
},
{
layerId = "9D6DA52E-CD68-4B8E-8511-A7BD80A00452";
name = Light;
paths = (
{
closed = 1;
nodes = (
"600 -10 OFFCURVE",
"729 181 OFFCURVE",
"729 342 CURVE SMOOTH",
"729 473 OFFCURVE",
"655 580 OFFCURVE",
"532 580 CURVE SMOOTH",
"457 580 OFFCURVE",
"377 524 OFFCURVE",
"362 450 CURVE",
"356 359 LINE",
"401 359 LINE",
"397 458 OFFCURVE",
"457 525 OFFCURVE",
"532 525 CURVE SMOOTH",
"617 525 OFFCURVE",
"664 446 OFFCURVE",
"664 342 CURVE SMOOTH",
"664 199 OFFCURVE",
"553 45 OFFCURVE",
"372 45 CURVE SMOOTH",
"222 45 OFFCURVE",
"105 177 OFFCURVE",
"105 342 CURVE SMOOTH",
"105 440 OFFCURVE",
"144 525 OFFCURVE",
"222 525 CURVE SMOOTH",
"312 525 OFFCURVE",
"325 405 OFFCURVE",
"368 264 CURVE SMOOTH",
"430 60 OFFCURVE",
"550 -10 OFFCURVE",
"695 -10 CURVE SMOOTH",
"878 -10 OFFCURVE",
"996 145 OFFCURVE",
"996 310 CURVE SMOOTH",
"996 488 OFFCURVE",
"901 580 OFFCURVE",
"756 580 CURVE",
"756 520 LINE",
"871 520 OFFCURVE",
"931 442 OFFCURVE",
"931 310 CURVE SMOOTH",
"931 178 OFFCURVE",
"839 47 OFFCURVE",
"695 47 CURVE SMOOTH",
"579 47 OFFCURVE",
"472 126 OFFCURVE",
"428 280 CURVE SMOOTH",
"372 478 OFFCURVE",
"346 580 OFFCURVE",
"222 580 CURVE SMOOTH",
"111 580 OFFCURVE",
"40 473 OFFCURVE",
"40 339 CURVE SMOOTH",
"40 154 OFFCURVE",
"167 -10 OFFCURVE",
"372 -10 CURVE SMOOTH"
);
}
);
width = 1051;
}
);
unicode = 0D2F;
},
{
glyphname = mlRA;
lastChange = "2015-07-03 10:43:56 +0000";
layers = (
{
layerId = "8E067A2A-2289-4446-99CD-66E5BEE6C169";
name = Bold;
paths = (
{
closed = 1;
nodes = (
"646 -10 OFFCURVE",
"740 78 OFFCURVE",
"740 270 CURVE SMOOTH",
"740 499 OFFCURVE",
"571 610 OFFCURVE",
"395 610 CURVE SMOOTH",
"169 610 OFFCURVE",
"50 434 OFFCURVE",
"50 270 CURVE SMOOTH",
"50 173 OFFCURVE",
"76 85 OFFCURVE",
"128 0 CURVE",
"293 0 LINE",
"231 90 OFFCURVE",
"198 165 OFFCURVE",
"198 270 CURVE SMOOTH",
"198 390 OFFCURVE",
"270 488 OFFCURVE",
"395 488 CURVE SMOOTH",
"406 488 OFFCURVE",
"412 487 OFFCURVE",
"423 486 CURVE",
"362 437 OFFCURVE",
"321 348 OFFCURVE",
"321 260 CURVE SMOOTH",
"321 71 OFFCURVE",
"416 -10 OFFCURVE",
"531 -10 CURVE SMOOTH"
);
},
{
closed = 1;
nodes = (
"497 112 OFFCURVE",
"472 149 OFFCURVE",
"472 270 CURVE SMOOTH",
"472 350 OFFCURVE",
"492 411 OFFCURVE",
"532 456 CURVE",
"572 409 OFFCURVE",
"593 342 OFFCURVE",
"593 260 CURVE SMOOTH",
"593 149 OFFCURVE",
"567 112 OFFCURVE",
"532 112 CURVE SMOOTH"
);
}
);
width = 790;
},
{
guideLines = (
{
angle = 90;
position = "{494, 259}";
}
);
layerId = "9D6DA52E-CD68-4B8E-8511-A7BD80A00452";
name = Light;
paths = (
{
closed = 1;
nodes = (
"625 -10 OFFCURVE",
"675 126 OFFCURVE",
"675 258 CURVE SMOOTH",
"675 440 OFFCURVE",
"539 580 OFFCURVE",
"363 580 CURVE SMOOTH",
"173 580 OFFCURVE",
"55 424 OFFCURVE",
"55 260 CURVE SMOOTH",
"55 163 OFFCURVE",
"81 85 OFFCURVE",
"133 0 CURVE",
"205 0 LINE",
"147 88 OFFCURVE",
"120 164 OFFCURVE",
"120 260 CURVE SMOOTH",
"120 420 OFFCURVE",
"233 525 OFFCURVE",
"362 525 CURVE SMOOTH",
"391 525 OFFCURVE",
"410 522 OFFCURVE",
"433 514 CURVE",
"382 478 OFFCURVE",
"311 381 OFFCURVE",
"311 259 CURVE SMOOTH",
"311 127 OFFCURVE",
"361 -10 OFFCURVE",
"493 -10 CURVE SMOOTH"
);
},
{
closed = 1;
nodes = (
"420 47 OFFCURVE",
"376 140 OFFCURVE",
"376 259 CURVE SMOOTH",
"376 370 OFFCURVE",
"437 452 OFFCURVE",
"491 492 CURVE",
"553 452 OFFCURVE",
"611 370 OFFCURVE",
"611 258 CURVE SMOOTH",
"611 140 OFFCURVE",
"570 47 OFFCURVE",
"493 47 CURVE SMOOTH"
);
}
);
width = 735;
},
{
associatedMasterId = "8E067A2A-2289-4446-99CD-66E5BEE6C169";
layerId = "B7C9625B-9479-4206-9B0E-F30A6014F964";
name = "Bold Apr 17 15, 15:08";
paths = (
{
closed = 1;
nodes = (
"49 468 OFFCURVE",
"192 610 OFFCURVE",
"406 610 CURVE SMOOTH",
"582 610 OFFCURVE",
"751 499 OFFCURVE",
"751 270 CURVE SMOOTH",
"751 78 OFFCURVE",
"657 -10 OFFCURVE",
"542 -10 CURVE SMOOTH",
"427 -10 OFFCURVE",
"332 71 OFFCURVE",
"332 260 CURVE SMOOTH",
"332 348 OFFCURVE",
"363 437 OFFCURVE",
"434 486 CURVE",
"309 502 OFFCURVE",
"200 444 OFFCURVE",
"198 290 CURVE SMOOTH",
"198 171 OFFCURVE",
"244 125 OFFCURVE",
"312 125 CURVE",
"312 -10 LINE",
"145 -10 OFFCURVE",
"49 110 OFFCURVE",
"49 291 CURVE SMOOTH"
);
},
{
closed = 1;
nodes = (
"604 343 OFFCURVE",
"591 401 OFFCURVE",
"543 451 CURVE",
"499 405 OFFCURVE",
"481 343 OFFCURVE",
"481 271 CURVE SMOOTH",
"481 163 OFFCURVE",
"497 112 OFFCURVE",
"543 112 CURVE SMOOTH",
"585 112 OFFCURVE",
"604 153 OFFCURVE",
"604 271 CURVE SMOOTH"
);
}
);
width = 801;
}
);
unicode = 0D30;
},
{
glyphname = mlRRA;
lastChange = "2015-07-03 10:43:56 +0000";
layers = (
{
layerId = "8E067A2A-2289-4446-99CD-66E5BEE6C169";
name = Bold;
paths = (
{
closed = 1;
nodes = (
"40 140 OFFCURVE",
"115 0 OFFCURVE",
"273 0 CURVE",
"273 135 LINE",
"223 135 OFFCURVE",
"188 188 OFFCURVE",
"188 305 CURVE SMOOTH",
"188 419 OFFCURVE",
"246 488 OFFCURVE",
"327 488 CURVE SMOOTH",
"411 488 OFFCURVE",
"466 423 OFFCURVE",
"466 306 CURVE SMOOTH",
"466 189 OFFCURVE",
"430 135 OFFCURVE",
"380 135 CURVE",
"380 0 LINE",
"538 0 OFFCURVE",
"614 141 OFFCURVE",
"614 306 CURVE SMOOTH",
"614 489 OFFCURVE",
"501 610 OFFCURVE",
"327 610 CURVE SMOOTH",
"159 610 OFFCURVE",
"40 487 OFFCURVE",
"40 305 CURVE SMOOTH"
);
}
);
width = 654;
},
{
layerId = "9D6DA52E-CD68-4B8E-8511-A7BD80A00452";
name = Light;
paths = (
{
closed = 1;
nodes = (
"55 135 OFFCURVE",
"113 0 OFFCURVE",
"251 0 CURVE",
"251 60 LINE",
"171 60 OFFCURVE",
"120 143 OFFCURVE",
"120 290 CURVE SMOOTH",
"120 434 OFFCURVE",
"191 523 OFFCURVE",
"312 523 CURVE SMOOTH",
"426 523 OFFCURVE",
"504 438 OFFCURVE",
"504 291 CURVE SMOOTH",
"504 144 OFFCURVE",
"452 60 OFFCURVE",
"372 60 CURVE",
"372 0 LINE",
"510 0 OFFCURVE",
"569 136 OFFCURVE",
"569 291 CURVE SMOOTH",
"569 464 OFFCURVE",
"470 580 OFFCURVE",
"312 580 CURVE SMOOTH",
"154 580 OFFCURVE",
"55 462 OFFCURVE",
"55 290 CURVE SMOOTH"
);
}
);
width = 624;
}
);
unicode = 0D31;
},
{
glyphname = mlLA;
lastChange = "2015-07-03 10:43:56 +0000";
layers = (
{
layerId = "8E067A2A-2289-4446-99CD-66E5BEE6C169";
name = Bold;
paths = (
{
closed = 1;
nodes = (
"165 610 OFFCURVE",
"70 522 OFFCURVE",
"70 350 CURVE SMOOTH",
"70 0 LINE",
"841 0 LINE",
"841 600 LINE",
"695 600 LINE",
"695 122 LINE",
"216 122 LINE",
"216 230 LINE",
"549 230 LINE",
"549 350 LINE",
"549 522 OFFCURVE",
"459 610 OFFCURVE",
"312 610 CURVE SMOOTH"
);
},
{
closed = 1;
nodes = (
"217 390 LINE",
"217 460 OFFCURVE",
"263 488 OFFCURVE",
"312 488 CURVE SMOOTH",
"361 488 OFFCURVE",
"409 459 OFFCURVE",
"409 389 CURVE",
"409 351 LINE",
"217 351 LINE"
);
}
);
width = 911;
},
{
guideLines = (
{
angle = 90;
position = "{300, 390}";
}
);
layerId = "9D6DA52E-CD68-4B8E-8511-A7BD80A00452";
name = Light;
paths = (
{
closed = 1;
nodes = (
"152 580 OFFCURVE",
"90 482 OFFCURVE",
"90 340 CURVE SMOOTH",
"90 0 LINE",
"781 0 LINE",
"781 580 LINE",
"721 580 LINE",
"721 55 LINE",
"150 55 LINE",
"150 253 LINE",
"509 253 LINE",
"509 340 LINE SMOOTH",
"509 482 OFFCURVE",
"446 580 OFFCURVE",
"299 580 CURVE SMOOTH"
);
},
{
closed = 1;
nodes = (
"150 360 LINE",
"150 466 OFFCURVE",
"210 525 OFFCURVE",
"299 525 CURVE SMOOTH",
"388 525 OFFCURVE",
"449 465 OFFCURVE",
"449 359 CURVE",
"449 308 LINE",
"150 308 LINE"
);
}
);
width = 871;
}
);
unicode = 0D32;
},
{
glyphname = mlLLA;
lastChange = "2015-07-03 10:43:56 +0000";
layers = (
{
layerId = "8E067A2A-2289-4446-99CD-66E5BEE6C169";
name = Bold;
paths = (
{
closed = 1;
nodes = (
"757 -214 LINE",
"757 -92 LINE",
"250 -92 LINE SMOOTH",
"219 -92 OFFCURVE",
"195 -76 OFFCURVE",
"195 -52 CURVE SMOOTH",
"195 -24 OFFCURVE",
"215 -12 OFFCURVE",
"238 -12 CURVE SMOOTH",
"265 -12 OFFCURVE",
"529 -13 OFFCURVE",
"562 -13 CURVE SMOOTH",
"686 -13 OFFCURVE",
"757 61 OFFCURVE",
"757 165 CURVE SMOOTH",
"757 228 OFFCURVE",
"718 281 OFFCURVE",
"637 295 CURVE",
"691 300 OFFCURVE",
"725 355 OFFCURVE",
"725 414 CURVE SMOOTH",
"725 533 OFFCURVE",
"585 610 OFFCURVE",
"417 610 CURVE SMOOTH",
"190 610 OFFCURVE",
"50 485 OFFCURVE",
"50 332 CURVE SMOOTH",
"50 212 OFFCURVE",
"124 138 OFFCURVE",
"237 138 CURVE SMOOTH",
"331 138 OFFCURVE",
"411 204 OFFCURVE",
"411 297 CURVE SMOOTH",
"411 383 OFFCURVE",
"353 445 OFFCURVE",
"274 445 CURVE SMOOTH",
"264 445 OFFCURVE",
"254 444 OFFCURVE",
"243 442 CURVE",
"279 473 OFFCURVE",
"345 493 OFFCURVE",
"419 493 CURVE SMOOTH",
"513 493 OFFCURVE",
"582 464 OFFCURVE",
"582 414 CURVE SMOOTH",
"582 377 OFFCURVE",
"562 355 OFFCURVE",
"522 355 CURVE SMOOTH",
"489 355 LINE",
"489 235 LINE",
"522 235 LINE SMOOTH",
"582 235 OFFCURVE",
"616 215 OFFCURVE",
"616 176 CURVE SMOOTH",
"616 138 OFFCURVE",
"589 114 OFFCURVE",
"538 114 CURVE SMOOTH",
"518 114 OFFCURVE",
"258 114 OFFCURVE",
"234 114 CURVE SMOOTH",
"121 114 OFFCURVE",
"50 53 OFFCURVE",
"50 -45 CURVE SMOOTH",
"50 -133 OFFCURVE",
"110 -214 OFFCURVE",
"222 -214 CURVE SMOOTH"
);
},
{
closed = 1;
nodes = (
"196 249 OFFCURVE",
"173 278 OFFCURVE",
"173 307 CURVE SMOOTH",
"173 337 OFFCURVE",
"196 366 OFFCURVE",
"230 366 CURVE SMOOTH",
"264 366 OFFCURVE",
"288 337 OFFCURVE",
"288 307 CURVE SMOOTH",
"288 278 OFFCURVE",
"264 249 OFFCURVE",
"230 249 CURVE SMOOTH"
);
}
);
width = 797;
},
{
guideLines = (
{
angle = 90;
position = "{210, 287}";
}
);
layerId = "9D6DA52E-CD68-4B8E-8511-A7BD80A00452";
name = Light;
paths = (
{
closed = 1;
nodes = (
"656 -161 LINE",
"656 -106 LINE",
"217 -106 LINE SMOOTH",
"172 -106 OFFCURVE",
"122 -92 OFFCURVE",
"122 -49 CURVE SMOOTH",
"122 -6 OFFCURVE",
"157 8 OFFCURVE",
"205 8 CURVE SMOOTH",
"232 8 OFFCURVE",
"448 7 OFFCURVE",
"481 7 CURVE SMOOTH",
"605 7 OFFCURVE",
"676 55 OFFCURVE",
"676 159 CURVE SMOOTH",
"676 228 OFFCURVE",
"639 281 OFFCURVE",
"556 289 CURVE",
"622 306 OFFCURVE",
"644 353 OFFCURVE",
"644 407 CURVE SMOOTH",
"644 516 OFFCURVE",
"535 580 OFFCURVE",
"377 580 CURVE SMOOTH",
"180 580 OFFCURVE",
"45 455 OFFCURVE",
"45 302 CURVE SMOOTH",
"45 192 OFFCURVE",
"116 128 OFFCURVE",
"209 128 CURVE SMOOTH",
"303 128 OFFCURVE",
"377 194 OFFCURVE",
"377 287 CURVE SMOOTH",
"377 380 OFFCURVE",
"309 449 OFFCURVE",
"226 449 CURVE SMOOTH",
"195 449 OFFCURVE",
"166 441 OFFCURVE",
"137 417 CURVE",
"175 478 OFFCURVE",
"255 528 OFFCURVE",
"379 528 CURVE SMOOTH",
"515 528 OFFCURVE",
"579 483 OFFCURVE",
"579 407 CURVE SMOOTH",
"579 365 OFFCURVE",
"555 321 OFFCURVE",
"491 321 CURVE",
"458 321 LINE",
"458 255 LINE",
"491 255 LINE",
"571 255 OFFCURVE",
"612 222 OFFCURVE",
"612 159 CURVE SMOOTH",
"612 86 OFFCURVE",
"550 63 OFFCURVE",
"457 63 CURVE SMOOTH",
"437 63 OFFCURVE",
"225 63 OFFCURVE",
"201 63 CURVE SMOOTH",
"114 63 OFFCURVE",
"57 21 OFFCURVE",
"57 -49 CURVE SMOOTH",
"57 -131 OFFCURVE",
"126 -161 OFFCURVE",
"189 -161 CURVE SMOOTH"
);
},
{
closed = 1;
nodes = (
"154 181 OFFCURVE",
"105 222 OFFCURVE",
"105 287 CURVE SMOOTH",
"105 346 OFFCURVE",
"142 394 OFFCURVE",
"210 394 CURVE SMOOTH",
"272 394 OFFCURVE",
"314 346 OFFCURVE",
"314 287 CURVE SMOOTH",
"314 228 OFFCURVE",
"272 181 OFFCURVE",
"209 181 CURVE SMOOTH"
);
}
);
width = 731;
},
{
associatedMasterId = "8E067A2A-2289-4446-99CD-66E5BEE6C169";
layerId = "89EB4502-957A-4E97-B4D7-DAE587940DDF";
name = "Bold Apr 14 15, 13:40";
paths = (
{
closed = 1;
nodes = (
"196 249 OFFCURVE",
"173 278 OFFCURVE",
"173 307 CURVE SMOOTH",
"173 337 OFFCURVE",
"196 366 OFFCURVE",
"230 366 CURVE SMOOTH",
"264 366 OFFCURVE",
"288 337 OFFCURVE",
"288 307 CURVE SMOOTH",
"288 278 OFFCURVE",
"264 249 OFFCURVE",
"230 249 CURVE SMOOTH"
);
},
{
closed = 1;
nodes = (
"121 114 OFFCURVE",
"50 53 OFFCURVE",
"50 -45 CURVE SMOOTH",
"50 -133 OFFCURVE",
"110 -214 OFFCURVE",
"222 -214 CURVE SMOOTH",
"757 -214 LINE",
"757 -92 LINE",
"250 -92 LINE SMOOTH",
"219 -92 OFFCURVE",
"195 -76 OFFCURVE",
"195 -52 CURVE SMOOTH",
"195 -24 OFFCURVE",
"215 -12 OFFCURVE",
"238 -12 CURVE SMOOTH",
"265 -12 OFFCURVE",
"529 -13 OFFCURVE",
"562 -13 CURVE SMOOTH",
"686 -13 OFFCURVE",
"757 61 OFFCURVE",
"757 165 CURVE SMOOTH",
"757 228 OFFCURVE",
"718 281 OFFCURVE",
"637 295 CURVE",
"691 300 OFFCURVE",
"725 355 OFFCURVE",
"725 414 CURVE SMOOTH",
"725 533 OFFCURVE",
"585 610 OFFCURVE",
"417 610 CURVE SMOOTH",
"190 610 OFFCURVE",
"50 485 OFFCURVE",
"50 332 CURVE SMOOTH",
"50 212 OFFCURVE",
"124 138 OFFCURVE",
"237 138 CURVE SMOOTH",
"331 138 OFFCURVE",
"411 204 OFFCURVE",
"411 297 CURVE SMOOTH",
"411 394 OFFCURVE",
"341 451 OFFCURVE",
"256 451 CURVE",
"289 473 OFFCURVE",
"345 493 OFFCURVE",
"419 493 CURVE SMOOTH",
"513 493 OFFCURVE",
"582 464 OFFCURVE",
"582 414 CURVE SMOOTH",
"582 377 OFFCURVE",
"562 355 OFFCURVE",
"522 355 CURVE SMOOTH",
"489 355 LINE",
"489 235 LINE",
"522 235 LINE SMOOTH",
"582 235 OFFCURVE",
"616 215 OFFCURVE",
"616 176 CURVE SMOOTH",
"616 138 OFFCURVE",
"589 114 OFFCURVE",
"538 114 CURVE SMOOTH",
"518 114 OFFCURVE",
"258 114 OFFCURVE",
"234 114 CURVE SMOOTH"
);
}
);
width = 807;
visible = 1;
}
);
unicode = 0D33;
},
{
glyphname = mlLLLA;
lastChange = "2015-07-03 10:43:56 +0000";
layers = (
{
guideLines = (
{
angle = 90;
position = "{496, 413}";
}
);
layerId = "8E067A2A-2289-4446-99CD-66E5BEE6C169";
name = Bold;
paths = (
{
closed = 1;
nodes = (
"421 131 OFFCURVE",
"359 117 OFFCURVE",
"300 118 CURVE SMOOTH",
"250 119 OFFCURVE",
"209 131 OFFCURVE",
"167 147 CURVE",
"167 10 LINE",
"206 -3 OFFCURVE",
"260 -10 OFFCURVE",
"300 -10 CURVE SMOOTH",
"436 -10 OFFCURVE",
"543 42 OFFCURVE",
"543 178 CURVE SMOOTH",
"543 273 OFFCURVE",
"429 304 OFFCURVE",
"429 419 CURVE SMOOTH",
"429 459 OFFCURVE",
"454 488 OFFCURVE",
"496 488 CURVE SMOOTH",
"538 488 OFFCURVE",
"563 459 OFFCURVE",
"563 413 CURVE SMOOTH",
"563 350 OFFCURVE",
"516 274 OFFCURVE",
"407 274 CURVE SMOOTH",
"289 274 OFFCURVE",
"196 330 OFFCURVE",
"196 449 CURVE SMOOTH",
"196 499 OFFCURVE",
"209 549 OFFCURVE",
"226 600 CURVE",
"80 600 LINE",
"64 551 OFFCURVE",
"50 501 OFFCURVE",
"50 438 CURVE SMOOTH",
"50 254 OFFCURVE",
"215 164 OFFCURVE",
"407 164 CURVE SMOOTH",
"562 164 OFFCURVE",
"706 236 OFFCURVE",
"706 414 CURVE SMOOTH",
"706 539 OFFCURVE",
"608 610 OFFCURVE",
"496 610 CURVE SMOOTH",
"364 610 OFFCURVE",
"286 520 OFFCURVE",
"286 419 CURVE SMOOTH",
"286 270 OFFCURVE",
"421 234 OFFCURVE",
"421 178 CURVE SMOOTH"
);
}
);
width = 756;
},
{
guideLines = (
{
angle = 90;
position = "{431, 401}";
}
);
layerId = "9D6DA52E-CD68-4B8E-8511-A7BD80A00452";
name = Light;
paths = (
{
closed = 1;
nodes = (
"374 79 OFFCURVE",
"331 51 OFFCURVE",
"265 51 CURVE SMOOTH",
"212 51 OFFCURVE",
"175 61 OFFCURVE",
"132 73 CURVE",
"132 10 LINE",
"171 -3 OFFCURVE",
"225 -10 OFFCURVE",
"265 -10 CURVE SMOOTH",
"366 -10 OFFCURVE",
"439 50 OFFCURVE",
"439 148 CURVE SMOOTH",
"439 242 OFFCURVE",
"326 274 OFFCURVE",
"326 411 CURVE SMOOTH",
"326 467 OFFCURVE",
"359 525 OFFCURVE",
"431 525 CURVE SMOOTH",
"505 525 OFFCURVE",
"536 455 OFFCURVE",
"536 391 CURVE SMOOTH",
"536 272 OFFCURVE",
"460 223 OFFCURVE",
"335 223 CURVE SMOOTH",
"211 223 OFFCURVE",
"110 278 OFFCURVE",
"110 408 CURVE SMOOTH",
"110 458 OFFCURVE",
"131 520 OFFCURVE",
"153 570 CURVE",
"88 570 LINE",
"67 522 OFFCURVE",
"45 471 OFFCURVE",
"45 408 CURVE SMOOTH",
"45 250 OFFCURVE",
"163 164 OFFCURVE",
"335 164 CURVE SMOOTH",
"488 164 OFFCURVE",
"601 245 OFFCURVE",
"601 392 CURVE SMOOTH",
"601 498 OFFCURVE",
"533 580 OFFCURVE",
"431 580 CURVE SMOOTH",
"329 580 OFFCURVE",
"261 498 OFFCURVE",
"261 411 CURVE SMOOTH",
"261 265 OFFCURVE",
"374 229 OFFCURVE",
"374 148 CURVE SMOOTH"
);
}
);
width = 651;
},
{
associatedMasterId = "9D6DA52E-CD68-4B8E-8511-A7BD80A00452";
layerId = "2FCDE24E-C328-4785-993E-3A1B347D4E0F";
name = "Light Apr 27 15, 17:49";
paths = (
{
closed = 1;
nodes = (
"137 10 LINE",
"176 -3 OFFCURVE",
"230 -10 OFFCURVE",
"270 -10 CURVE SMOOTH",
"406 -10 OFFCURVE",
"446 67 OFFCURVE",
"446 141 CURVE SMOOTH",
"446 148 OFFCURVE",
"445 163 OFFCURVE",
"444 175 CURVE",
"545 204 OFFCURVE",
"606 290 OFFCURVE",
"606 402 CURVE SMOOTH",
"606 508 OFFCURVE",
"533 580 OFFCURVE",
"431 580 CURVE SMOOTH",
"329 580 OFFCURVE",
"256 503 OFFCURVE",
"256 401 CURVE SMOOTH",
"256 325 OFFCURVE",
"301 254 OFFCURVE",
"348 223 CURVE",
"224 223 OFFCURVE",
"115 278 OFFCURVE",
"115 408 CURVE SMOOTH",
"115 458 OFFCURVE",
"136 520 OFFCURVE",
"158 570 CURVE",
"93 570 LINE",
"72 522 OFFCURVE",
"50 471 OFFCURVE",
"50 408 CURVE SMOOTH",
"50 250 OFFCURVE",
"168 164 OFFCURVE",
"340 164 CURVE SMOOTH",
"356 164 OFFCURVE",
"370 165 OFFCURVE",
"386 168 CURVE",
"401 101 OFFCURVE",
"356 51 OFFCURVE",
"270 51 CURVE SMOOTH",
"217 51 OFFCURVE",
"180 61 OFFCURVE",
"137 73 CURVE"
);
},
{
closed = 1;
nodes = (
"505 525 OFFCURVE",
"541 465 OFFCURVE",
"541 401 CURVE SMOOTH",
"541 322 OFFCURVE",
"502 246 OFFCURVE",
"410 229 CURVE",
"361 287 OFFCURVE",
"321 328 OFFCURVE",
"321 401 CURVE SMOOTH",
"321 460 OFFCURVE",
"359 525 OFFCURVE",
"431 525 CURVE SMOOTH"
);
}
);
width = 666;
}
);
unicode = 0D34;
},
{
glyphname = mlVA;
lastChange = "2015-07-03 10:43:56 +0000";
layers = (
{
layerId = "8E067A2A-2289-4446-99CD-66E5BEE6C169";
name = Bold;
paths = (
{
closed = 1;
nodes = (
"45 181 OFFCURVE",
"96 0 OFFCURVE",
"300 0 CURVE",
"300 130 LINE",
"252 130 OFFCURVE",
"193 179 OFFCURVE",
"193 298 CURVE SMOOTH",
"193 420 OFFCURVE",
"257 488 OFFCURVE",
"346 488 CURVE SMOOTH",
"435 488 OFFCURVE",
"499 420 OFFCURVE",
"499 298 CURVE SMOOTH",
"499 204 OFFCURVE",
"464 145 OFFCURVE",
"420 117 CURVE",
"420 0 LINE",
"938 0 LINE",
"938 600 LINE",
"792 600 LINE",
"792 122 LINE",
"595 122 LINE",
"628 169 OFFCURVE",
"647 237 OFFCURVE",
"647 300 CURVE SMOOTH",
"647 486 OFFCURVE",
"521 610 OFFCURVE",
"346 610 CURVE SMOOTH",
"171 610 OFFCURVE",
"45 484 OFFCURVE",
"45 298 CURVE SMOOTH"
);
}
);
width = 1008;
},
{
layerId = "9D6DA52E-CD68-4B8E-8511-A7BD80A00452";
name = Light;
paths = (
{
closed = 1;
nodes = (
"50 161 OFFCURVE",
"111 0 OFFCURVE",
"285 0 CURVE",
"285 60 LINE",
"213 60 OFFCURVE",
"115 123 OFFCURVE",
"115 278 CURVE SMOOTH",
"115 408 OFFCURVE",
"188 525 OFFCURVE",
"321 525 CURVE SMOOTH",
"451 525 OFFCURVE",
"528 418 OFFCURVE",
"528 278 CURVE SMOOTH",
"528 196 OFFCURVE",
"492 116 OFFCURVE",
"428 55 CURVE",
"428 0 LINE",
"883 0 LINE",
"883 580 LINE",
"823 580 LINE",
"823 55 LINE",
"503 55 LINE",
"567 119 OFFCURVE",
"592 196 OFFCURVE",
"592 280 CURVE SMOOTH",
"592 449 OFFCURVE",
"500 580 OFFCURVE",
"321 580 CURVE SMOOTH",
"141 580 OFFCURVE",
"50 439 OFFCURVE",
"50 278 CURVE SMOOTH"
);
}
);
width = 973;
}
);
unicode = 0D35;
},
{
glyphname = mlSHA;
lastChange = "2015-07-03 10:43:56 +0000";
layers = (
{
guideLines = (
{
angle = 90;
position = "{807, 265}";
}
);
layerId = "8E067A2A-2289-4446-99CD-66E5BEE6C169";
name = Bold;
paths = (
{
closed = 1;
nodes = (
"440 -10 OFFCURVE",
"522 85 OFFCURVE",
"522 243 CURVE SMOOTH",
"522 320 LINE SMOOTH",
"522 439 OFFCURVE",
"593 486 OFFCURVE",
"665 486 CURVE SMOOTH",
"669 486 OFFCURVE",
"672 486 OFFCURVE",
"676 486 CURVE",
"615 437 OFFCURVE",
"577 358 OFFCURVE",
"577 260 CURVE SMOOTH",
"577 71 OFFCURVE",
"672 -10 OFFCURVE",
"787 -10 CURVE SMOOTH",
"902 -10 OFFCURVE",
"996 78 OFFCURVE",
"996 270 CURVE SMOOTH",
"996 489 OFFCURVE",
"845 610 OFFCURVE",
"659 610 CURVE SMOOTH",
"473 610 OFFCURVE",
"375 464 OFFCURVE",
"375 320 CURVE",
"375 238 LINE SMOOTH",
"375 153 OFFCURVE",
"352 112 OFFCURVE",
"293 112 CURVE SMOOTH",
"234 112 OFFCURVE",
"193 172 OFFCURVE",
"193 300 CURVE SMOOTH",
"193 429 OFFCURVE",
"239 465 OFFCURVE",
"307 465 CURVE",
"307 600 LINE",
"83 600 OFFCURVE",
"45 417 OFFCURVE",
"45 300 CURVE SMOOTH",
"45 103 OFFCURVE",
"135 -10 OFFCURVE",
"293 -10 CURVE SMOOTH"
);
},
{
closed = 1;
nodes = (
"752 112 OFFCURVE",
"726 149 OFFCURVE",
"726 270 CURVE SMOOTH",
"726 350 OFFCURVE",
"746 411 OFFCURVE",
"786 456 CURVE",
"826 409 OFFCURVE",
"847 342 OFFCURVE",
"847 260 CURVE SMOOTH",
"847 149 OFFCURVE",
"822 112 OFFCURVE",
"787 112 CURVE SMOOTH"
);
}
);
width = 1046;
},
{
layerId = "9D6DA52E-CD68-4B8E-8511-A7BD80A00452";
name = Light;
paths = (
{
closed = 1;
nodes = (
"405 -10 OFFCURVE",
"487 73 OFFCURVE",
"487 238 CURVE SMOOTH",
"487 332 LINE",
"487 475 OFFCURVE",
"581 525 OFFCURVE",
"656 525 CURVE SMOOTH",
"679 525 OFFCURVE",
"704 523 OFFCURVE",
"729 513 CURVE",
"653 459 OFFCURVE",
"602 344 OFFCURVE",
"602 246 CURVE SMOOTH",
"602 77 OFFCURVE",
"676 -10 OFFCURVE",
"781 -10 CURVE SMOOTH",
"886 -10 OFFCURVE",
"961 77 OFFCURVE",
"961 246 CURVE SMOOTH",
"961 417 OFFCURVE",
"824 580 OFFCURVE",
"656 580 CURVE SMOOTH",
"529 580 OFFCURVE",
"427 480 OFFCURVE",
"427 332 CURVE",
"427 233 LINE SMOOTH",
"427 104 OFFCURVE",
"358 45 OFFCURVE",
"279 45 CURVE SMOOTH",
"194 45 OFFCURVE",
"120 128 OFFCURVE",
"120 285 CURVE SMOOTH",
"120 464 OFFCURVE",
"199 520 OFFCURVE",
"307 520 CURVE",
"307 580 LINE",
"133 580 OFFCURVE",
"55 462 OFFCURVE",
"55 285 CURVE SMOOTH",
"55 109 OFFCURVE",
"139 -10 OFFCURVE",
"279 -10 CURVE SMOOTH"
);
},
{
closed = 1;
nodes = (
"706 47 OFFCURVE",
"664 129 OFFCURVE",
"664 237 CURVE SMOOTH",
"664 353 OFFCURVE",
"728 449 OFFCURVE",
"781 492 CURVE",
"840 449 OFFCURVE",
"899 353 OFFCURVE",
"899 237 CURVE SMOOTH",
"899 129 OFFCURVE",
"856 47 OFFCURVE",
"781 47 CURVE SMOOTH"
);
}
);
width = 1021;
},
{
associatedMasterId = "8E067A2A-2289-4446-99CD-66E5BEE6C169";
guideLines = (
{
angle = 90;
position = "{821.5, 265}";
}
);
layerId = "DD85142D-6BFA-4F01-83E2-D332DB217CA5";
name = "Bold Apr 14 15, 13:46";
paths = (
{
closed = 1;
nodes = (
"390 238 LINE SMOOTH",
"390 153 OFFCURVE",
"357 112 OFFCURVE",
"298 112 CURVE SMOOTH",
"239 112 OFFCURVE",
"198 172 OFFCURVE",
"198 300 CURVE SMOOTH",
"198 429 OFFCURVE",
"244 465 OFFCURVE",
"312 465 CURVE",
"312 600 LINE",
"88 600 OFFCURVE",
"50 417 OFFCURVE",
"50 300 CURVE SMOOTH",
"50 103 OFFCURVE",
"140 -10 OFFCURVE",
"298 -10 CURVE SMOOTH",
"435 -10 OFFCURVE",
"537 85 OFFCURVE",
"537 243 CURVE SMOOTH",
"537 320 LINE SMOOTH",
"537 455 OFFCURVE",
"635 491 OFFCURVE",
"711 486 CURVE",
"650 437 OFFCURVE",
"612 358 OFFCURVE",
"612 260 CURVE SMOOTH",
"612 71 OFFCURVE",
"707 -10 OFFCURVE",
"822 -10 CURVE SMOOTH",
"937 -10 OFFCURVE",
"1031 78 OFFCURVE",
"1031 270 CURVE SMOOTH",
"1031 499 OFFCURVE",
"880 610 OFFCURVE",
"694 610 CURVE SMOOTH",
"508 610 OFFCURVE",
"390 467 OFFCURVE",
"390 323 CURVE"
);
},
{
closed = 1;
nodes = (
"884 153 OFFCURVE",
"865 112 OFFCURVE",
"823 112 CURVE SMOOTH",
"777 112 OFFCURVE",
"761 163 OFFCURVE",
"761 271 CURVE SMOOTH",
"761 343 OFFCURVE",
"779 405 OFFCURVE",
"823 451 CURVE",
"871 401 OFFCURVE",
"884 343 OFFCURVE",
"884 271 CURVE SMOOTH"
);
}
);
width = 1081;
}
);
unicode = 0D36;
},
